<svg width="93" height="93" viewBox="0 0 93 93" fill="none" xmlns="http://www.w3.org/2000/svg">
<path d="M46.4319 92.8081C72.0755 92.8081 92.8638 72.0323 92.8638 46.4041C92.8638 20.7758 72.0755 0 46.4319 0C20.7883 0 0 20.7758 0 46.4041C0 72.0323 20.7883 92.8081 46.4319 92.8081Z" fill="#446661"/>
<path d="M45.1532 70C32.9377 70 23 60.1312 23 48.0022C23 42.0381 25.3613 36.4566 29.6501 32.288C30.6937 31.2664 31.8501 30.343 33.0857 29.5456C33.0975 29.5383 33.1092 29.531 33.1224 29.5251C35.4295 28.0403 37.9623 27.0084 40.6519 26.4558C42.1264 26.1524 43.6405 26 45.1532 26C47.9278 26 50.6321 26.5027 53.1883 27.4921C56.6695 28.8377 59.7798 31.0627 62.1821 33.9267C64.6108 36.8215 66.2554 40.3041 66.9384 43.9949C66.9751 44.1942 66.8432 44.3848 66.6453 44.4214C66.446 44.458 66.2554 44.3261 66.2188 44.1283C64.8893 36.9432 59.7959 30.8296 52.9245 28.1752C50.4533 27.218 47.8384 26.7329 45.1546 26.7329C43.6904 26.7329 42.2261 26.8809 40.7999 27.1741C38.1865 27.7105 35.727 28.7145 33.4888 30.1612C33.4771 30.1686 33.4654 30.1759 33.4536 30.1818C32.2708 30.9483 31.1642 31.8336 30.1631 32.8128C26.0165 36.8435 23.7343 42.2374 23.7343 48.0022C23.7343 59.7281 33.3437 69.2671 45.1546 69.2671C45.3027 69.2671 45.4419 69.2671 45.5782 69.2598C45.5826 69.2598 45.5885 69.2598 45.5929 69.2598C47.8985 69.2188 50.1704 68.8084 52.3441 68.0418C55.8809 66.7915 59.0454 64.6178 61.4976 61.7523C61.6295 61.5984 61.8611 61.5808 62.015 61.7127C62.1689 61.8446 62.1865 62.0762 62.0546 62.2287C59.5189 65.1909 56.2459 67.4394 52.5889 68.7321C50.3433 69.5236 47.9967 69.9487 45.6149 69.9912C45.4595 70 45.3056 70 45.1561 70H45.1532Z" fill="white"/>
<path d="M45.5991 69.9941C45.4818 69.9941 45.3675 69.9384 45.2957 69.8344C45.1769 69.6614 45.0685 69.4899 44.9615 69.3243C44.4265 68.4859 44.041 67.8805 42.9036 67.6372C41.9523 67.432 40.6375 67.0509 40.2139 66.0982C39.9809 65.5749 40.0571 64.9711 40.4382 64.3056C40.6713 63.8996 40.7182 63.4379 40.5774 62.9322C40.2418 61.7347 38.9094 60.4698 37.7647 59.838C37.3162 59.5903 36.6932 59.2986 36.0322 58.9908C34.3231 58.1935 32.3869 57.2891 31.8343 56.395C31.5881 55.9978 31.1791 55.3162 30.7042 54.5277C29.8453 53.1 28.7768 51.3221 28.3239 50.6479C28.1788 50.428 28.0131 50.2096 27.8373 49.978C27.1982 49.1308 26.4038 48.0784 26.159 46.3928C25.7999 43.9245 26.5723 41.2393 28.1758 39.3851C28.4499 39.0685 28.8002 38.7475 29.1725 38.4089C30.1282 37.5368 31.2114 36.5475 31.2026 35.3778C31.1967 34.5848 30.6779 33.7274 29.6606 32.8289C29.5097 32.6955 29.495 32.4639 29.6284 32.3115C29.7632 32.1605 29.9948 32.1458 30.1458 32.2792C31.3418 33.336 31.9281 34.3488 31.9355 35.3719C31.9472 36.8699 30.6822 38.0235 29.6665 38.9513C29.3118 39.2752 28.9761 39.5815 28.7299 39.8659C27.2612 41.5632 26.5533 44.0256 26.8831 46.2887C27.1014 47.7882 27.8035 48.7175 28.4221 49.5383C28.6038 49.7787 28.7753 50.0073 28.9322 50.2418C29.3953 50.9293 30.4697 52.716 31.3316 54.151C31.805 54.9381 32.2125 55.6167 32.4573 56.0095C32.8955 56.7175 34.8875 57.6482 36.3415 58.3269C37.0128 58.6405 37.6474 58.9366 38.1179 59.196C39.3565 59.8791 40.875 61.2774 41.2825 62.7343C41.4789 63.4364 41.4085 64.0872 41.0743 64.6706C40.812 65.1279 40.7489 65.4973 40.8838 65.7992C41.0978 66.2785 41.8292 66.6552 43.0589 66.919C44.4939 67.2268 45.0216 68.0535 45.58 68.9285C45.6812 69.0883 45.7867 69.2525 45.901 69.4196C46.0153 69.5867 45.9728 69.8153 45.8057 69.9282C45.7427 69.9722 45.6709 69.9927 45.5991 69.9927V69.9941Z" fill="white"/>
<path d="M52.4601 68.7555C52.4 68.7555 52.3384 68.7408 52.2827 68.7086C52.1054 68.6103 52.0424 68.3876 52.1406 68.2102C53.3307 66.0732 55.1893 62.2388 54.2468 60.559C53.9771 60.0783 53.4832 59.8203 52.7811 59.7925C51.6393 59.747 50.5795 60.2102 49.6415 60.6177C48.7576 61.0017 47.9222 61.3637 47.1292 61.2714C46.433 61.1908 45.7177 60.8302 45.0024 60.1999C44.5861 59.832 44.0189 59.7001 43.522 59.854C42.046 60.3113 41.4714 59.8335 41.2472 59.3513C40.7811 58.3516 39.8987 56.9841 37.6283 56.647C36.5642 56.4916 35.8474 56.0753 35.4986 55.4099C35.1702 54.784 35.2816 54.0937 35.4355 53.7844C35.6774 53.3344 36.1875 52.9167 37.2706 53.4092C37.8276 53.6627 38.4769 53.6862 39.053 53.4722C39.629 53.2582 40.1068 53.0413 40.4703 52.8273C41.1534 52.4301 42.0929 52.9181 43.0002 53.3887C43.6847 53.7434 44.5363 54.186 44.8104 53.9266C45.1387 53.6158 44.4967 52.5488 43.9075 51.8965C43.8225 51.8013 43.7917 51.6693 43.8284 51.5462C43.865 51.4231 43.9617 51.3293 44.0849 51.2956C44.1919 51.2663 46.7232 50.5495 46.8023 47.9845C46.8668 45.9017 47.2465 45.5352 47.8166 45.2142C47.9661 45.1292 48.0761 45.0691 48.1816 44.9108C48.3223 44.7012 48.3311 44.4271 48.3428 44.0783C48.3633 43.4392 48.3912 42.5642 49.3879 41.6965C49.9727 41.1893 49.8892 40.4242 49.788 40.0123C49.5579 39.0772 48.8324 38.2168 48.1362 38.0526C47.6774 37.9471 47.2816 38.2915 46.7745 38.7899C46.3729 39.1842 45.9947 39.5565 45.5169 39.4891C45.2149 39.4451 44.9614 39.2326 44.74 38.8368C44.5773 38.5451 44.4308 38.5158 44.3824 38.507C44.016 38.4352 43.4267 38.9057 42.9518 39.2824C42.5077 39.6371 42.1237 39.9434 41.7573 39.9845C41.0889 40.0578 40.2842 39.3586 39.8665 38.6668C39.4341 37.95 39.3901 37.2377 39.7448 36.71C40.123 36.1472 40.3648 34.8661 40.1215 33.8577C40.0336 33.4927 39.8415 33.0105 39.4326 32.7848C38.5913 32.3201 37.1578 33.2304 36.6756 33.6202C36.5656 33.7096 36.4147 33.7272 36.2871 33.6657C36.1596 33.6056 36.079 33.4766 36.079 33.3344C36.079 31.9449 34.4681 30.8515 33.1182 30.1787C32.9365 30.0878 32.8632 29.8679 32.954 29.6877C33.0435 29.5059 33.2633 29.4326 33.4451 29.5235C35.3051 30.4498 36.4249 31.533 36.7283 32.6895C37.4451 32.2351 38.7672 31.5799 39.7873 32.1428C40.2959 32.4227 40.658 32.9563 40.8339 33.6847C41.105 34.806 40.8939 36.3143 40.3531 37.119C40.0849 37.5176 40.3619 38.0688 40.4938 38.2886C40.8661 38.9072 41.4553 39.2795 41.6767 39.256C41.8306 39.2384 42.2146 38.9335 42.4945 38.7093C43.1175 38.2124 43.824 37.6496 44.5231 37.7873C44.8734 37.8562 45.1622 38.0893 45.3806 38.4792C45.5008 38.6946 45.5902 38.7591 45.621 38.7635C45.7382 38.7811 46.0651 38.4601 46.26 38.2681C46.7466 37.7888 47.415 37.1336 48.3018 37.3403C49.275 37.5689 50.1985 38.6199 50.4975 39.8379C50.7378 40.8155 50.5077 41.695 49.8657 42.2505C49.1109 42.9072 49.0918 43.4876 49.0728 44.1017C49.0596 44.5107 49.0464 44.9343 48.7869 45.3198C48.5832 45.6217 48.356 45.7492 48.1728 45.8518C47.8723 46.0204 47.588 46.1802 47.5308 48.005C47.4575 50.3385 45.684 51.4128 44.784 51.8086C45.2868 52.4696 46.068 53.7375 45.3102 54.4542C44.6565 55.0713 43.6407 54.5437 42.6587 54.0336C41.9947 53.6891 41.1695 53.2611 40.8368 53.4531C40.4381 53.6877 39.9207 53.9236 39.3036 54.1523C38.5356 54.4367 37.7045 54.4073 36.9614 54.0688C36.2739 53.7551 36.1523 53.9793 36.0805 54.1142C36.0438 54.1904 35.9178 54.6331 36.142 55.0625C36.3721 55.5022 36.9203 55.7969 37.7294 55.9156C39.6979 56.2073 41.0625 57.2289 41.9053 59.0361C42.0973 59.4495 42.8595 59.2839 43.2978 59.1475C44.0365 58.9189 44.8734 59.1094 45.4802 59.6444C45.8936 60.0079 46.5282 60.4594 47.2069 60.5385C47.8034 60.6089 48.5173 60.2981 49.3425 59.9405C50.3538 59.5022 51.5 59.0054 52.8031 59.0552C53.7646 59.0933 54.4828 59.4876 54.88 60.1955C55.7316 61.7126 55.0222 64.5268 52.7738 68.562C52.7063 68.6822 52.5817 68.7496 52.4528 68.7496L52.4601 68.7555Z" fill="white"/>
<path d="M49.2855 29.698C48.8472 29.698 48.4016 29.613 47.9736 29.4415C47.2657 29.1586 46.2851 29.1235 45.133 29.3389C43.6673 29.613 42.0931 28.8479 40.4559 27.0656C40.3196 26.9161 40.3284 26.6845 40.4779 26.5482C40.6274 26.4118 40.859 26.4206 40.9953 26.5701C42.8084 28.543 44.173 28.7746 44.9982 28.6192C46.3042 28.3745 47.3976 28.4214 48.2463 28.7614C48.9879 29.0575 49.7882 29.0311 50.4405 28.6852C51.3067 28.2279 52.1407 27.8277 52.919 27.498C53.1052 27.4188 53.3207 27.5053 53.3998 27.6914C53.479 27.8776 53.3925 28.093 53.2063 28.1722C52.4471 28.4947 51.6321 28.8845 50.7835 29.3331C50.3247 29.5764 49.8117 29.698 49.2869 29.698H49.2855Z" fill="white"/>
<path d="M63.8079 63.7237C63.7405 63.7237 63.673 63.7047 63.6144 63.668C63.1366 63.3705 51.9149 56.3262 51.3916 50.5101C51.3916 50.5057 51.3916 50.5013 51.3916 50.4969L51.3491 49.7303C51.3491 49.7303 51.3491 49.7171 51.3491 49.7098C51.3491 45.8754 54.2733 42.7549 57.8673 42.7549C60.4572 42.7549 62.7716 44.3921 63.8094 46.8487C64.8486 44.3921 67.1615 42.7549 69.7515 42.7549C73.3455 42.7549 76.2696 45.8754 76.2696 49.7098C76.2696 49.7377 76.2315 50.4544 76.2242 50.516C75.7009 56.3262 64.4792 63.3705 64.0014 63.668C63.9427 63.7047 63.8753 63.7237 63.8079 63.7237ZM52.1216 50.45C52.5847 55.5068 62.304 61.9546 63.8079 62.922C65.3117 61.9531 75.0384 55.5024 75.4942 50.4441C75.5001 50.3782 75.5338 49.7494 75.5367 49.6966C75.5367 46.28 72.9409 43.4892 69.7515 43.4892C67.1395 43.4892 64.8412 45.383 64.1641 48.0946C64.123 48.2573 63.9765 48.3716 63.8079 48.3716C63.6393 48.3716 63.4928 48.2573 63.4517 48.0946C62.7745 45.383 60.4777 43.4892 57.8643 43.4892C54.6778 43.4892 52.0835 46.2756 52.0791 49.701L52.1216 50.4515V50.45Z" fill="white"/>
</svg>
