<svg width="94" height="93" viewBox="0 0 94 93" fill="none" xmlns="http://www.w3.org/2000/svg">
<path d="M46.6549 92.6774C72.4217 92.6774 93.3098 71.9308 93.3098 46.3387C93.3098 20.7465 72.4217 0 46.6549 0C20.8881 0 0 20.7465 0 46.3387C0 71.9308 20.8881 92.6774 46.6549 92.6774Z" fill="#446661"/>
<path d="M50.6789 56.5217C50.6596 56.5217 50.6403 56.5217 50.6195 56.5169L43.3186 55.4388C41.691 55.1994 40.1775 54.4989 38.9403 53.4159L28.5802 44.3509C28.479 44.2625 28.4292 44.1292 28.4469 43.9958C28.4645 43.8624 28.5481 43.7468 28.6686 43.6873C28.8164 43.615 29.5748 43.2471 29.9009 43.1619C32.1841 42.5578 34.3499 43.8255 35.4361 44.6353L41.2363 48.9541C41.8693 49.4249 42.6534 49.6852 43.4423 49.6852H45.5149C46.1464 49.6852 46.7698 49.5229 47.3193 49.2144L50.5231 47.1257C53.9196 44.9116 57.9798 44.1179 61.9596 44.894C62.1765 44.9357 62.3195 45.1478 62.2777 45.3647C62.236 45.5832 62.0239 45.7246 61.807 45.6828C58.0344 44.947 54.1831 45.6989 50.9633 47.7989L47.7483 49.8956C47.7483 49.8956 47.7338 49.9053 47.7258 49.9085C47.0526 50.2893 46.2878 50.4901 45.5149 50.4901H43.4423C42.4815 50.4901 41.5271 50.1736 40.7559 49.6L34.9556 45.2812C33.9852 44.5581 32.0636 43.4222 30.105 43.9396C30.0022 43.9669 29.7917 44.0536 29.5716 44.1533L39.4689 52.8134C40.5904 53.7951 41.9625 54.4282 43.4359 54.6451L50.7367 55.7216C50.9569 55.7537 51.1079 55.9577 51.0758 56.1779C51.0468 56.3771 50.8749 56.5217 50.6789 56.5217Z" fill="white"/>
<path d="M37.3418 59.8411C36.45 59.8411 35.5567 59.6981 34.7148 59.417L20.2126 54.5824C20.0969 54.5438 20.0054 54.4538 19.962 54.3398C19.9202 54.2257 19.9331 54.0972 19.9957 53.9927C21.0835 52.1996 22.3094 51.6582 24.3692 52.0615C24.5861 52.1048 24.7291 52.3153 24.6857 52.5322C24.6423 52.7491 24.4318 52.8921 24.2149 52.8487C22.6629 52.5451 21.7856 52.8327 20.9614 53.9847L34.9686 58.6538C36.0002 58.9976 37.1152 59.1133 38.1949 58.988L43.2271 58.4047C43.4473 58.379 43.6465 58.5365 43.6722 58.7582C43.6979 58.9783 43.5404 59.1776 43.3187 59.2033L38.2865 59.7865C37.9732 59.8235 37.6583 59.8411 37.3418 59.8411Z" fill="white"/>
<path d="M49.628 60.4357C48.9275 60.4357 48.2269 60.3569 47.5425 60.1995L36.355 57.6223C35.1965 57.3556 34.1152 56.8736 33.1399 56.1923L18.1847 46.6051C18.0867 46.5425 18.0224 46.4412 18.0047 46.3272C17.9871 46.2131 18.0192 46.0974 18.0947 46.009C19.6773 44.1227 22.7976 43.6038 24.9056 44.8779C25.0951 44.992 25.1562 45.2394 25.0421 45.429C24.9281 45.6186 24.6806 45.6796 24.491 45.5656C22.8345 44.5646 20.4405 44.8683 19.0282 46.1906L33.5818 55.5207C33.5818 55.5207 33.5914 55.5272 33.5962 55.5304C34.4864 56.1554 35.4761 56.5956 36.5365 56.8399L47.724 59.417C49.4946 59.8251 51.3889 59.6484 53.0535 58.9221L64.7166 53.8353C67.7308 52.521 71.0342 52.1434 74.2669 52.7443C74.4854 52.7845 74.6284 52.995 74.5882 53.2135C74.5481 53.432 74.3376 53.575 74.1191 53.5349C71.0438 52.9629 67.9027 53.3212 65.0363 54.5728L53.3732 59.6596C52.1939 60.1738 50.9101 60.4357 49.6264 60.4357H49.628Z" fill="white"/>
<path d="M35.8152 54.7029C35.7253 54.7029 35.6353 54.674 35.5614 54.6129L20.0839 41.9761C19.9811 41.8926 19.9265 41.7624 19.9377 41.6291C19.949 41.4957 20.0261 41.3784 20.1434 41.3142C22.5727 39.971 25.5034 40.1156 27.7897 41.6901C27.9729 41.8155 28.0179 42.0661 27.8925 42.2493C27.7672 42.4324 27.5166 42.4774 27.3334 42.3521C25.4664 41.0667 23.119 40.8531 21.0737 41.7496L36.0675 53.9911C36.2394 54.1309 36.2651 54.3848 36.1253 54.5567C36.0466 54.6547 35.9309 54.7045 35.8136 54.7045L35.8152 54.7029Z" fill="white"/>
<path d="M46.14 48.7951C45.0684 48.7951 44.0224 48.5991 43.0616 48.2103L43.0214 48.1942C42.8158 48.1106 42.7177 47.8761 42.8013 47.6704C42.8848 47.4647 43.1194 47.3667 43.3251 47.4503L43.3636 47.4663C44.9334 48.1026 46.7683 48.1637 48.5276 47.6383L50.8204 46.9554C51.0325 46.8927 51.2574 47.0133 51.3201 47.2253C51.3827 47.4374 51.2622 47.6624 51.0501 47.725L48.7574 48.4079C47.8913 48.6666 47.0077 48.7935 46.14 48.7935V48.7951Z" fill="white"/>
<path d="M74.1931 42.9273H65.5088C65.4863 42.9273 65.4622 42.9257 65.4397 42.9209C64.1993 42.7056 63.1196 42.4662 62.0769 42.2348C59.0322 41.56 56.6269 41.0282 53.0215 41.8123C52.8046 41.8605 52.5909 41.7223 52.5443 41.5054C52.4977 41.2885 52.6342 41.0748 52.8512 41.0282C56.6285 40.2072 59.1093 40.755 62.2504 41.4507C63.2755 41.6773 64.3359 41.9119 65.5425 42.124H74.1931C74.4148 42.124 74.5947 42.3039 74.5947 42.5256C74.5947 42.7474 74.4148 42.9273 74.1931 42.9273Z" fill="white"/>
<path d="M36.1718 45.9351C36.0641 45.9351 35.9565 45.8918 35.8777 45.8066C35.37 45.2603 35.1579 44.1131 35.3523 42.9515C35.4809 42.1771 35.905 40.7696 37.2948 40.0273C37.9118 39.6979 38.532 39.4039 39.1329 39.1195C42.1326 37.6959 44.5025 36.5729 44.4977 32.4018C44.4977 32.2653 44.5668 32.1383 44.6809 32.0644C44.795 31.9905 44.9396 31.9793 45.0633 32.0355L47.0524 32.9272C49.8802 34.1965 54.1541 36.1133 53.4294 40.159C53.2463 41.1777 52.2565 43.2021 49.8143 43.5781C49.5942 43.6118 49.3902 43.4608 49.3564 43.2423C49.3227 43.0238 49.4737 42.8181 49.6922 42.7844C51.6861 42.4775 52.4911 40.8403 52.6389 40.0176C53.2077 36.8508 50.1662 35.2039 46.7246 33.6599L45.285 33.014C45.0504 37.2011 42.3399 38.4864 39.4784 39.8441C38.8871 40.1253 38.2749 40.4145 37.674 40.7358C36.5879 41.3142 36.2505 42.455 36.1444 43.0832C35.9822 44.0553 36.1798 44.9518 36.4658 45.2587C36.6168 45.421 36.6088 45.6749 36.4465 45.8259C36.3694 45.8982 36.2714 45.9335 36.1734 45.9335L36.1718 45.9351Z" fill="white"/>
<path d="M39.5557 42.606C39.334 42.606 39.1541 42.426 39.1541 42.2043C39.1541 41.9826 39.334 41.8026 39.5557 41.8026C44.7952 41.8026 46.1031 38.6455 46.3778 37.6782C46.9321 35.7341 46.2364 33.7048 44.6876 32.7424C44.4996 32.6251 44.4417 32.3777 44.5574 32.1897C44.6747 32.0017 44.9221 31.9439 45.1101 32.0596C46.9627 33.2084 47.8014 35.6104 47.1506 37.8983C46.3103 40.8466 43.4713 42.606 39.5557 42.606Z" fill="white"/>
<path d="M54.6411 45.935C54.6138 45.935 54.5848 45.9318 54.5559 45.9254C54.339 45.8788 54.2008 45.6651 54.2474 45.4482C54.7359 43.1715 53.481 42.4083 52.2664 41.8732C52.0639 41.7833 51.9707 41.5471 52.0607 41.343C52.1507 41.1406 52.3869 41.0474 52.5909 41.1374C53.5212 41.5471 55.6999 42.5095 55.0331 45.6169C54.9929 45.8049 54.8258 45.935 54.6411 45.935Z" fill="white"/>
</svg>
