<svg id="a" height="512" viewBox="0 0 512 512" width="512" xmlns="http://www.w3.org/2000/svg" data-name="outline"><g><path d="m268.912 320.16c-2.928 3.41-6.716 5.366-10.394 5.366-3.544 0-7.231-1.842-10.116-5.053-2.953-3.287-8.011-3.557-11.298-.604-3.286 2.953-3.557 8.011-.604 11.298 5.915 6.584 13.94 10.36 22.019 10.36 8.351 0 16.564-3.99 22.535-10.946 2.877-3.353 2.491-8.403-.861-11.281s-8.403-2.492-11.28.861z"/><path d="m291.406 360.835c-3.973-1.87-24.35-11.197-35.406-11.197s-31.434 9.327-35.406 11.197c-2.258 1.062-3.891 3.117-4.415 5.556s.119 4.983 1.739 6.88c3.478 4.069 21.656 24.368 38.082 24.368s34.604-20.298 38.082-24.368c1.62-1.896 2.264-4.441 1.739-6.88s-2.157-4.494-4.415-5.556zm-35.406 20.803c-4.546 0-11.857-5.145-18.116-10.815 7.096-2.784 14.514-5.185 18.116-5.185s11.021 2.401 18.116 5.185c-6.26 5.671-13.57 10.815-18.116 10.815z"/><path d="m161.195 349.174-7.373-18.769c-1.203-3.062-4.157-5.075-7.446-5.075s-6.243 2.013-7.446 5.075l-7.373 18.769c-3.148 8.014-9.557 14.398-17.581 17.515l-18.496 7.184c-3.076 1.195-5.104 4.156-5.104 7.457s2.026 6.262 5.104 7.457l18.496 7.185c8.024 3.117 14.433 9.501 17.581 17.514l7.373 18.769c1.203 3.062 4.157 5.075 7.446 5.075s6.243-2.013 7.446-5.075l7.373-18.769c3.147-8.013 9.555-14.397 17.58-17.514l18.497-7.185c3.076-1.195 5.104-4.157 5.104-7.457s-2.027-6.262-5.104-7.457l-18.496-7.185c-8.025-3.117-14.434-9.5-17.581-17.514zm-14.819 58.277c-4.712-11.845-14.126-21.322-25.921-26.121 11.796-4.799 21.209-14.276 25.921-26.121 4.711 11.846 14.124 21.322 25.921 26.121-11.797 4.799-21.21 14.276-25.921 26.121z"/><path d="m32.554 368.451c1.203 3.062 4.157 5.075 7.446 5.075s6.243-2.014 7.446-5.075l4.915-12.513c1.827-4.651 5.546-8.355 10.204-10.165l12.331-4.79c3.077-1.195 5.104-4.157 5.104-7.457s-2.027-6.262-5.104-7.457l-12.331-4.79c-4.658-1.809-8.377-5.514-10.204-10.165l-4.915-12.513c-1.203-3.062-4.157-5.075-7.446-5.075s-6.243 2.014-7.446 5.075l-4.915 12.513c-1.827 4.651-5.546 8.356-10.204 10.166l-12.331 4.79c-3.076 1.195-5.104 4.156-5.104 7.457s2.026 6.262 5.104 7.457l12.331 4.791c4.658 1.809 8.377 5.514 10.204 10.165l4.915 12.513zm7.446-46.367c2.82 4.666 6.735 8.6 11.385 11.442-4.649 2.843-8.564 6.776-11.385 11.442-2.82-4.666-6.735-8.6-11.385-11.442 4.649-2.843 8.564-6.776 11.385-11.442z"/><path d="m388.045 371.58-4.915 12.513c-1.827 4.651-5.546 8.356-10.204 10.166l-12.331 4.79c-3.076 1.195-5.104 4.157-5.104 7.457s2.027 6.262 5.104 7.457l12.331 4.79c4.658 1.81 8.377 5.515 10.204 10.166l4.915 12.513c1.203 3.062 4.157 5.075 7.446 5.075s6.243-2.014 7.446-5.075l4.915-12.513c1.827-4.651 5.546-8.356 10.204-10.166l12.331-4.79c3.076-1.195 5.104-4.157 5.104-7.457s-2.027-6.262-5.104-7.457l-12.331-4.79c-4.658-1.809-8.377-5.514-10.204-10.165l-4.915-12.513c-1.203-3.062-4.157-5.075-7.446-5.075s-6.243 2.014-7.446 5.075zm18.831 34.925c-4.649 2.843-8.564 6.777-11.385 11.442-2.82-4.666-6.735-8.599-11.385-11.442 4.649-2.843 8.564-6.776 11.385-11.442 2.82 4.666 6.735 8.6 11.385 11.442z"/><path d="m494.096 317.913-15.414-5.987c-6.342-2.464-11.405-7.508-13.893-13.84l-6.144-15.641c-1.203-3.062-4.156-5.075-7.446-5.075s-6.243 2.013-7.446 5.075l-6.145 15.641c-2.487 6.332-7.551 11.376-13.893 13.84l-15.413 5.987c-3.077 1.195-5.104 4.157-5.104 7.457s2.027 6.262 5.104 7.457l15.413 5.987c6.342 2.464 11.405 7.508 13.893 13.84l6.145 15.641c1.203 3.062 4.157 5.075 7.446 5.075s6.243-2.014 7.446-5.075l6.144-15.641c2.487-6.332 7.551-11.376 13.893-13.84l15.414-5.987c3.076-1.195 5.104-4.156 5.104-7.457s-2.026-6.262-5.104-7.457zm-42.896 25.933c-3.912-7.998-10.394-14.516-18.361-18.476 7.968-3.96 14.449-10.479 18.361-18.476 3.911 7.998 10.393 14.516 18.36 18.476-7.968 3.959-14.449 10.478-18.36 18.476z"/><path d="m484.103 495.508c-26.675-15.936-126.569-37.625-151.654-42.906l-6.029-44.96c26.553-25.122 48.514-61.323 56.39-98.639.025-.119.048-.238.067-.357 9.629-8.613 41.123-39.899 41.123-80.538 0-19.827-3.243-35.143-10.208-48.2-5.418-10.158-12.927-18.737-23.979-27.296 3.606-13.007 7.133-44.103-25.12-79.354-7.28-7.957-16.576-14.429-27.512-19.292-6.316-10.998-18.942-28.873-39.319-40.678-25.662-14.867-55.527-16.021-88.768-3.426-48.836 18.501-63.929 66.673-67.946 84.751-2.728 2.551-5.373 5.18-7.909 7.901-24.971 26.793-39.908 60.559-44.396 100.36-6.186 54.865 23.973 91.808 37.281 105.199l6.687 6.598c1.559 1.538 3.589 2.306 5.619 2.306 2.064 0 4.129-.795 5.694-2.381 2.182-2.211 2.806-5.37 1.896-8.13-.022-.199-.044-.399-.082-.599l-1.664-8.805c-.58-13.412.218-39.297 11.527-65.819 13.968-32.754 39.533-56.356 75.986-70.148 43.116-16.314 80.11-15.065 103.553-11.145 23.321 3.9 38.272 11.139 40.773 12.411 20.2 14.463 31.885 29.97 31.885 65.747 0 23.497-13.04 43.658-23.871 56.356-.596-23.62-6.365-60.574-32.38-92.873-10.077-12.512-21.157-23.267-32.933-31.964-3.554-2.625-8.563-1.872-11.188 1.682s-1.872 8.563 1.682 11.188c10.674 7.884 20.76 17.685 29.978 29.13 35.854 44.514 28.294 101.043 27.821 104.288-6.293 29.58-22.773 60.089-45.24 83.737-21.386 22.509-45.812 35.948-65.339 35.948-16.923 0-37.682-10.101-56.952-27.714-3.262-2.98-8.321-2.753-11.303.508-1.371 1.5-1.915 3.129-2.179 5.291 0 0-.071.643-.118.992l-6.427 47.925c-25.085 5.28-124.979 26.969-151.654 42.906-3.793 2.266-5.031 7.178-2.766 10.971 1.499 2.508 4.152 3.898 6.876 3.898 1.396 0 2.81-.365 4.095-1.133 7.826-4.675 29.105-13.182 86.036-27.155 34.496-8.467 65.88-14.906 66.192-14.971 3.335-.682 5.873-3.4 6.325-6.774l5.515-41.128c19.079 14.517 38.719 22.385 56.359 22.385 17.959 0 37.287-8.148 55.39-21.705l5.424 40.448c.452 3.374 2.99 6.092 6.325 6.774 34.569 7.075 129.308 28.433 152.229 42.126 1.285.768 2.699 1.133 4.095 1.133 2.723 0 5.378-1.391 6.876-3.898 2.266-3.793 1.027-8.705-2.766-10.971zm-108.783-351.029c-7.727-3.129-20.25-7.386-36.576-10.182-25.546-4.374-65.82-5.874-112.616 11.832-40.687 15.395-69.299 41.919-85.041 78.837-9.802 22.984-12.486 45.452-12.887 61.24-12.416-16.011-27.687-44.005-23.456-81.54 4.096-36.317 17.621-67.017 40.202-91.244 19.76-21.201 46.221-36.841 76.523-45.23 9.199-2.546 18.346-4.573 27.185-6.023 4.36-.715 7.314-4.83 6.6-9.19-.716-4.36-4.833-7.313-9.189-6.599-9.402 1.542-19.113 3.693-28.863 6.392-19.542 5.41-37.636 13.628-53.673 24.233 7.796-18.466 22.845-41.426 51.236-52.182 49.979-18.932 80.787 1.581 97.588 21.429-10.264-2.034-21.386-3.018-33.19-2.878-4.418.053-7.957 3.677-7.904 8.095s3.689 8.003 8.094 7.904c32.511-.384 58.62 8.38 73.538 24.685 24.235 26.489 24.484 49.161 22.431 60.422z"/></g><g><path d="m201.838 240.521c-21.145 0-33.328 10.994-33.328 10.994-1.589 1.462-2.591 3.552-2.591 5.882 0 4.418 3.582 8 8 8 1.597 0 3.079-.474 4.326-1.282 2.064 11.15 11.854 19.624 23.593 19.624s21.53-8.474 23.593-19.626c1.247.808 2.728 1.284 4.325 1.284 4.418 0 8-3.582 8-8 0-2.329-1.002-4.42-2.591-5.882 0 0-12.183-10.994-33.328-10.994zm0 27.217c-4.411 0-8-3.589-8-8 0-.89.159-1.756.44-2.581 2.276-.392 4.797-.636 7.56-.636s5.282.245 7.561.641c.28.824.439 1.688.439 2.576 0 4.411-3.589 8-8 8z"/><path d="m347.389 251.515s-12.184-10.994-33.328-10.994-33.328 10.994-33.328 10.994c-1.589 1.462-2.591 3.552-2.591 5.882 0 4.418 3.582 8 8 8 1.597 0 3.079-.474 4.326-1.282 2.064 11.15 11.854 19.623 23.593 19.623s21.531-8.475 23.593-19.626c1.247.808 2.729 1.285 4.326 1.285 4.418 0 8-3.582 8-8 0-2.329-1.002-4.42-2.59-5.882zm-33.329 16.223c-4.411 0-8-3.589-8-8 0-.89.159-1.756.44-2.581 2.276-.393 4.797-.636 7.561-.636s5.282.245 7.56.641c.28.824.439 1.689.439 2.576 0 4.411-3.589 8-8 8z"/></g></svg>