<svg width="99" height="122" viewBox="0 0 99 122" fill="none" xmlns="http://www.w3.org/2000/svg">
<path d="M46.6791 66.1652C46.9896 66.1424 47.8822 66.5626 48.0538 66.933C48.1008 67.0344 48.2009 67.0924 48.303 67.0924C48.3418 67.0924 48.3806 67.0841 48.4194 67.0655C48.5563 66.9992 48.6155 66.8337 48.5522 66.695C48.2846 66.1197 47.1693 65.5588 46.626 65.6106C46.4748 65.6251 46.3645 65.7616 46.3788 65.9148C46.3931 66.0679 46.5279 66.1797 46.6791 66.1652ZM46.1337 72.1089C46.1582 72.1089 46.1827 72.1068 46.2072 72.0986C46.6158 71.9847 46.9834 71.7405 47.3389 71.5046C48.1518 70.9665 48.6441 70.6934 49.3243 71.3121C49.3345 71.3225 49.3488 71.3266 49.3611 71.3328C49.3754 71.3432 49.3897 71.3535 49.4081 71.3597C49.4244 71.366 49.4408 71.368 49.4592 71.3722C49.4775 71.3763 49.4939 71.3804 49.5102 71.3804C49.5286 71.3804 49.5449 71.3763 49.5613 71.3722C49.5797 71.368 49.596 71.366 49.6124 71.3597C49.6287 71.3535 49.643 71.3411 49.6593 71.3308C49.6716 71.3225 49.6838 71.3184 49.6941 71.3101C50.362 70.6934 50.8502 70.9665 51.6571 71.5025C52.0145 71.7385 52.3822 71.9847 52.7928 72.0986C52.8173 72.1048 52.8418 72.1089 52.8663 72.1089C52.9868 72.1089 53.0971 72.0282 53.1319 71.904C53.1727 71.755 53.0869 71.6019 52.9399 71.5605C52.613 71.4694 52.2964 71.2583 51.9594 71.0348C51.2812 70.5857 50.4478 70.0497 49.5082 70.7575C48.5563 70.0497 47.7188 70.5857 47.0386 71.0369C46.7036 71.2583 46.387 71.4694 46.0622 71.5605C45.9151 71.6019 45.8293 71.755 45.8702 71.904C45.9029 72.0282 46.0152 72.1089 46.1357 72.1089H46.1337ZM50.5704 67.0613C50.6112 67.082 50.6521 67.0924 50.695 67.0924C50.7951 67.0924 50.8931 67.0365 50.9401 66.9392C51.1301 66.5584 52.0043 66.1383 52.3189 66.1631C52.466 66.1776 52.6049 66.0659 52.6192 65.9127C52.6335 65.7596 52.5232 65.623 52.372 65.6085C51.8266 65.5568 50.7419 66.1031 50.4498 66.6867C50.3804 66.8233 50.4355 66.991 50.5704 67.0613ZM55.6076 74.7352C53.7161 75.2898 51.8041 74.4144 50.8339 73.8411C50.7522 73.7914 50.65 73.7915 50.5683 73.8349C50.5642 73.837 50.0944 74.0812 49.5102 74.0812C48.926 74.0812 48.4378 73.837 48.4337 73.8349C48.35 73.7915 48.2499 73.7935 48.1682 73.8411C47.2 74.4123 45.2941 75.2857 43.3945 74.7352C43.2454 74.6917 43.0962 74.7786 43.0533 74.9256C43.0104 75.0746 43.0962 75.2277 43.2413 75.2712C44.0359 75.503 44.8223 75.5071 45.5536 75.3953C45.8763 75.4781 48.2581 76.1093 49.3223 77.1358C49.3754 77.1876 49.4448 77.2124 49.5123 77.2124C49.5797 77.2124 49.6512 77.1855 49.7043 77.1338C50.7501 76.1073 53.1298 75.4761 53.4526 75.3953C53.7447 75.4409 54.0429 75.4698 54.3473 75.4698C54.8109 75.4698 55.2869 75.4119 55.7649 75.2712C55.9099 75.2277 55.9957 75.0746 55.9528 74.9256C55.9099 74.7786 55.7587 74.6917 55.6117 74.7352H55.6076ZM49.5082 76.5584C48.7115 75.8941 47.4982 75.414 46.6423 75.1325C47.3082 74.9193 47.8883 74.6379 48.3193 74.3937C48.5359 74.4847 48.9771 74.6379 49.5102 74.6379C50.0434 74.6379 50.4682 74.4847 50.6827 74.3937C51.1137 74.6379 51.6918 74.9194 52.3557 75.1346C51.5018 75.416 50.2946 75.8962 49.5082 76.5584ZM52.6089 79.4351C50.8992 80.7182 48.1192 80.7182 46.4094 79.4351C46.2869 79.3419 46.1153 79.3689 46.0254 79.493C45.9355 79.6172 45.9601 79.791 46.0826 79.8821C47.0284 80.5919 48.2683 80.9458 49.5102 80.9458C50.7522 80.9458 51.9921 80.5919 52.9378 79.8821C53.0604 79.791 53.0849 79.6151 52.995 79.493C52.9051 79.3689 52.7315 79.3419 52.611 79.4351H52.6089ZM30.9485 44.015C34.323 41.7902 42.1934 43.4479 42.8797 44.1453C42.9328 44.1992 43.0043 44.2261 43.0738 44.2261C43.1432 44.2261 43.2147 44.1992 43.2678 44.1453C43.3761 44.0357 43.3761 43.8598 43.2678 43.7501C42.2485 42.7153 34.1596 41.2294 30.6462 43.5472C30.5195 43.6321 30.4828 43.8039 30.5665 43.9322C30.6482 44.0605 30.8198 44.0977 30.9464 44.0129L30.9485 44.015ZM20.0529 40.5381C21.1559 42.0199 22.1977 43.421 22.3121 44.1371C22.3121 44.1412 22.3182 44.1433 22.3182 44.1495C22.3305 44.2033 22.355 44.2509 22.3938 44.2902C22.3999 44.2964 22.4081 44.3026 22.4142 44.3088C22.4551 44.3419 22.5 44.3668 22.5552 44.373C22.5592 44.373 22.5633 44.373 22.5674 44.373C22.5715 44.373 22.5776 44.373 22.5817 44.373C22.6389 44.373 22.69 44.3523 22.7349 44.3213C22.741 44.3171 22.7472 44.315 22.7533 44.3109C22.7941 44.2778 22.8227 44.2323 22.8391 44.1805C22.8391 44.1743 22.8473 44.1722 22.8473 44.1681C23.1148 43.1602 23.4253 42.1751 23.7236 41.2252C24.847 37.6615 25.9072 34.2944 24.5651 30.2712C22.8759 25.2153 16.8765 22.6222 16.6232 22.5146C16.5272 22.4752 16.4169 22.4918 16.3393 22.5601C16.2596 22.6284 16.227 22.736 16.2515 22.8374C16.6478 24.4972 16.4394 26.4881 16.2392 28.4127C16.0247 30.4595 15.8041 32.5766 16.3107 34.3233C16.8888 36.2894 18.5699 38.5493 20.0529 40.5423V40.5381ZM16.7846 28.4686C16.9705 26.6992 17.1605 24.878 16.8949 23.2554C18.3575 23.9839 22.7063 26.4384 24.0443 30.4471C25.3291 34.2985 24.2935 37.5787 23.1986 41.0535C23.1169 41.3101 23.0393 41.5791 22.9576 41.8399C22.9433 36.5501 21.3214 31.3018 21.303 31.2418C21.256 31.0949 21.1028 31.0141 20.9578 31.0597C20.8128 31.1073 20.7331 31.2625 20.778 31.4094C20.7985 31.4715 22.6266 37.3924 22.3856 42.9326C21.9567 42.1814 21.2846 41.2666 20.49 40.1987C19.0336 38.243 17.3852 36.0245 16.8357 34.1557C16.3577 32.5166 16.564 30.5485 16.7826 28.4645L16.7846 28.4686ZM22.8963 103.889C22.8432 103.744 22.6838 103.673 22.5429 103.725C22.3999 103.779 22.3284 103.938 22.3795 104.081C22.4163 104.183 23.3191 106.571 26.6609 106.571C30.5931 106.571 32.8155 104.692 34.9644 102.873C36.0286 101.972 37.0336 101.124 38.2286 100.497C38.3634 100.426 38.4165 100.259 38.347 100.12C38.2776 99.9835 38.1121 99.9297 37.9753 100C36.7251 100.654 35.6507 101.563 34.611 102.442C32.5377 104.197 30.3908 106.01 26.6589 106.01C23.7133 106.01 22.9249 103.971 22.8922 103.885L22.8963 103.889ZM77.6153 72.1793C79.4966 75.2546 81.1205 77.9098 79.1024 80.8362C79.0145 80.9624 79.0452 81.1362 79.1698 81.2252C79.2188 81.2583 79.2719 81.2749 79.3271 81.2749C79.4149 81.2749 79.4986 81.2335 79.5538 81.1549C81.7803 77.9264 79.9848 74.9918 78.0831 71.8833C77.2864 70.5816 76.4653 69.2364 75.8933 67.8105C75.8361 67.6677 75.6748 67.5994 75.5359 67.6573C75.3949 67.7153 75.3275 67.8788 75.3847 68.0195C75.973 69.491 76.8084 70.8568 77.6173 72.1772L77.6153 72.1793ZM65.9088 79.9276C64.2624 89.015 60.6162 92.1772 57.8484 93.2306C54.8395 94.3751 52.0023 93.3879 50.8298 92.4442C50.7113 92.349 50.5377 92.3676 50.4437 92.4897C50.3498 92.6097 50.3681 92.7857 50.4887 92.8809C51.3547 93.5783 53.0542 94.3006 55.0704 94.3006C56.01 94.3006 57.0191 94.1433 58.0445 93.7542C60.4589 92.8353 63.5005 90.3995 65.4308 84.2261C64.7628 90.9396 64.6035 98.0216 66.495 100.259C66.9178 100.758 67.4285 101.012 68.0168 101.012C70.18 101.012 70.6559 99.0833 71.2054 96.8502C71.7059 94.8179 72.3289 92.289 74.3327 90.2029C75.8627 88.6093 77.4131 87.6987 78.9124 86.8192C81.5352 85.2794 83.8005 83.9487 84.6972 79.5199C85.5715 75.1636 83.5043 72.3842 81.3146 69.4413C79.5661 67.0903 77.7603 64.6586 77.0025 61.1176C77.2905 60.385 77.6541 59.6441 78.0443 58.8597C78.9982 56.9413 80.0685 54.7703 80.1135 52.2145C81.0878 51.5605 81.9437 50.6437 82.3665 49.5344C83.0161 47.8353 83.0733 46.4715 82.7853 45.4181C83.4001 44.7683 83.6126 43.4872 83.7944 42.3407C83.8577 41.9413 83.9169 41.5708 83.9905 41.2708C84.2744 39.9794 83.441 38.3072 82.5667 37.171C82.4891 37.0717 82.3951 36.9371 82.2869 36.7799C81.6761 35.9044 80.5792 34.3544 79.1248 33.9612C79.85 33.3403 80.7263 32.1896 81.6394 30.9852C82.0152 30.4905 82.3849 30.0021 82.7281 29.5737C84.2356 27.7049 85.0506 26.0493 84.7544 23.1044C84.6339 21.9061 84.6339 20.9045 84.6339 19.8469C84.6339 18.3506 84.6339 16.8006 84.2703 14.6482C83.966 12.7381 83.2653 12.2931 82.7281 12.2559C81.9355 12.1938 81.0919 13.0444 80.5343 14.3689C80.0175 13.1685 79.1493 12.3511 78.2322 11.5191C78.3731 8.49344 77.4866 7.4773 76.2631 6.0845C75.9015 5.67473 75.493 5.21116 75.0742 4.64824C73.436 2.46902 72.9294 2.20619 71.426 1.42598C71.1931 1.30594 70.9358 1.17142 70.6437 1.01621C69.1382 0.217366 67.0322 -0.521458 65.5493 0.494685C64.2705 1.37217 63.7701 3.39411 64.054 6.49013C62.4138 7.45661 60.4855 7.9326 58.6042 8.38583C59.0842 5.72233 58.9228 4.11844 58.1078 3.64245C57.734 3.42515 57.064 3.36099 56.0018 4.30884C55.2665 4.95661 54.5658 5.20909 53.8223 5.47606C52.6968 5.88169 51.5325 6.29973 50.2476 8.08988C49.3162 9.38748 48.8974 11.3825 49.0016 13.5266C47.6596 11.7136 45.7823 11.5853 44.3361 12.1627C42.271 12.9864 40.6226 15.3933 41.1945 18.1271C40.0935 17.7919 39.1314 17.8871 38.4063 18.241C36.6087 19.1205 35.8693 21.4653 36.4698 24.3668C36.335 26.9475 37.6096 28.659 39.8892 28.9508C40.1037 28.9777 40.3223 28.9922 40.5449 28.9922C40.5654 28.9922 40.5858 28.9901 40.6062 28.9901C39.3868 31.7157 36.7395 33.5948 33.9247 35.5671C29.0958 38.9508 23.6235 42.7857 23.6235 52.0551C23.6235 52.0634 23.6276 52.0696 23.6276 52.0779C23.6276 52.0862 23.6255 52.0944 23.6276 52.1027C23.8502 53.4107 24.0912 54.6648 24.3466 55.8651C24.3466 60.9024 22.2835 64.1598 20.1019 67.6097C17.8121 71.2273 15.4467 74.9669 15.4467 80.9707C15.4467 85.3995 16.7703 88.7977 18.7027 91.3473C19.0193 93.5617 18.4821 95.5319 17.9632 97.44C17.5465 98.9694 17.1155 100.553 17.1155 102.26C17.1155 107.018 19.5851 112.101 26.5138 112.101C31.7533 112.101 35.7998 108.235 39.0497 105.13C41.4253 102.86 43.4762 100.9 45.3718 100.9C46.3706 100.9 47.5636 101.304 47.5636 103.22C47.5636 104.888 46.3951 106.356 45.0409 108.053C43.3638 110.157 41.4621 112.544 41.4621 115.917C41.4621 118.659 43.3168 120.894 46.1868 121.61C46.7649 121.755 47.3777 121.832 48.0027 121.832C50.3498 121.832 52.8643 120.745 54.2574 118.055C54.2574 118.053 54.2574 118.051 54.2574 118.048C54.2819 117.997 54.288 117.939 54.2778 117.879C54.2778 117.868 54.2758 117.86 54.2717 117.85C54.2696 117.839 54.2717 117.831 54.2676 117.821C54.2492 117.773 54.2165 117.738 54.1798 117.709C54.1757 117.707 54.1757 117.701 54.1716 117.699C54.1675 117.695 54.1614 117.699 54.1573 117.695C54.1083 117.664 54.0531 117.645 53.9959 117.649C53.9877 117.649 53.9816 117.651 53.9734 117.653C53.953 117.655 53.9305 117.657 53.9101 117.666C51.6407 118.576 49.9085 118.464 49.1568 117.353C48.5052 116.391 48.7422 114.868 49.7084 113.812C50.5091 112.928 51.7857 112.401 53.0195 111.89C54.7783 111.161 56.5983 110.408 56.7535 108.589C56.8843 107.049 56.0386 106.395 55.0601 105.64C54.0919 104.892 52.8888 103.963 52.1596 101.798C52.1575 101.792 52.1514 101.788 52.1493 101.782C51.4058 98.3361 47.9823 96.0348 43.3128 96.0348C41.7828 96.0348 40.4408 96.2749 38.8904 96.5543C38.8434 96.5625 38.7944 96.5708 38.7474 96.5791C38.296 95.9583 38.104 95.416 38.1816 94.9338C38.3307 94.017 39.399 93.3092 40.6348 92.4876C42.3016 91.3804 44.3504 90.0166 44.569 87.5746C46.003 88.212 47.6412 88.6404 49.5082 88.6404C54.7721 88.6404 58.3611 85.1491 60.2894 83.272L60.7102 82.8643C60.8552 82.7277 61.0288 82.5684 61.229 82.3883C62.379 81.3453 64.2828 79.6172 66.3806 76.635C66.2315 77.6429 66.0763 78.7314 65.9292 79.8697C65.921 79.8883 65.9108 79.9049 65.9067 79.9276H65.9088ZM77.554 58.6073C77.1455 59.4309 76.7574 60.207 76.4571 60.9893C75.4889 63.4562 74.2837 64.0564 72.4535 64.1246C73.532 60.8796 74.5064 57.0882 75.2867 52.6615C75.7299 53.0588 76.3223 53.2782 77.0352 53.2782C77.1659 53.2782 77.2987 53.272 77.4376 53.2575C78.1015 53.1892 78.8389 52.9471 79.5456 52.5642C79.4169 54.8324 78.4753 56.7509 77.552 58.6093L77.554 58.6073ZM81.8538 49.3316C81.141 51.2025 78.9778 52.5373 77.3824 52.7008C76.7288 52.7691 75.8443 52.6842 75.35 51.902C75.35 51.902 75.3479 51.902 75.3459 51.8999C75.3173 51.8564 75.2764 51.8254 75.2274 51.8026C75.2172 51.7985 75.209 51.7943 75.1988 51.7902C75.1866 51.7861 75.1784 51.7799 75.1661 51.7778C75.1253 51.7716 75.0844 51.7757 75.0477 51.7861C75.0456 51.7861 75.0436 51.7861 75.0415 51.7861C74.4103 51.9723 73.7179 51.7819 73.1888 51.277C72.4862 50.6044 72.2002 49.5365 72.3922 48.3838C72.7027 48.4479 73.0173 48.4934 73.338 48.4934C74.7392 48.4934 76.1507 47.8333 76.8942 46.2211C77.1414 46.3722 77.4253 46.4549 77.7379 46.4549C77.9421 46.4549 78.1607 46.4218 78.3833 46.3535C79.5007 46.0183 80.5506 44.9173 80.7712 43.8494C80.7876 43.7728 80.7814 43.7004 80.7896 43.6259C81.4147 43.9756 81.9417 44.553 82.2133 45.3809C82.2174 45.4036 82.2215 45.4243 82.2317 45.445C82.5259 46.4053 82.483 47.6884 81.8538 49.3337V49.3316ZM69.6203 43.7252C69.6121 43.6859 69.5958 43.6507 69.5713 43.6176C69.5713 43.6155 69.5713 43.6135 69.5672 43.6114C68.7767 42.5828 68.4478 40.7761 68.8032 39.4123C68.9768 38.748 69.3915 37.8664 70.3822 37.4483C70.7315 37.3014 71.1237 37.2434 71.5159 37.2641C71.5302 37.2641 71.5445 37.2662 71.5588 37.2641C71.9592 37.291 72.3595 37.4028 72.717 37.5994C73.2583 37.8953 73.9446 38.5203 74.2204 39.791C74.1857 39.8304 74.1448 39.8614 74.1101 39.9028C73.0683 41.1362 73.099 42.2765 73.3073 43.0154C73.6668 44.2881 74.823 45.3664 76.4183 45.95C75.5563 47.8829 73.626 48.2472 72.0347 47.7256C70.4986 47.2207 69.0872 45.7948 69.6142 43.8556C69.6142 43.8515 69.6142 43.8473 69.6142 43.8432C69.6223 43.808 69.6223 43.7728 69.6183 43.7397C69.6183 43.7356 69.6183 43.7294 69.6183 43.7252H69.6203ZM45.1798 25.4471C44.7692 26.1176 44.0093 26.5791 43.1657 26.6453C42.2322 26.7178 41.4029 26.3059 40.8942 25.5112C40.3264 24.6069 40.4469 23.3569 41.1741 22.6035C41.8543 21.8999 42.8511 21.8482 43.9358 22.4359C43.8255 22.707 43.7621 23.003 43.7621 23.3134C43.7621 24.2778 44.3484 25.1035 45.1798 25.4471ZM52.037 25.2215C51.7245 25.5692 51.1403 25.8775 50.4723 25.8196C49.8759 25.7658 49.0057 25.3933 48.2111 23.9756C48.2744 23.7646 48.3193 23.5431 48.3193 23.3113C48.3193 22.0406 47.298 21.0059 46.0418 21.0059C45.7701 21.0059 45.5127 21.0617 45.2717 21.1507C44.7385 20.5112 44.2115 19.9835 43.6947 19.551C43.7642 18.2161 44.4689 17.051 45.527 16.5605C46.7812 15.981 48.3132 16.368 49.8473 17.6429C50.4315 19.2136 51.32 20.6727 52.517 21.8088C52.1984 22.6408 51.9982 23.5928 51.9982 24.6565C51.9982 24.8552 52.0227 25.0352 52.039 25.2215H52.037ZM51.6754 26.1611C51.0422 27.2207 49.9412 27.5932 48.9873 27.5932C47.8434 27.5766 46.4891 26.9413 45.9764 25.6126C45.9968 25.6126 46.0172 25.6189 46.0397 25.6189C46.8302 25.6189 47.5268 25.207 47.9353 24.5862C48.7953 25.9314 49.7472 26.3101 50.4212 26.3722C50.8951 26.4136 51.3221 26.3204 51.6734 26.159L51.6754 26.1611ZM46.0418 21.5646C46.9936 21.5646 47.7699 22.349 47.7699 23.3134C47.7699 24.2778 46.9957 25.0642 46.0418 25.0642C45.0878 25.0642 44.3137 24.2799 44.3137 23.3134C44.3137 22.3469 45.0878 21.5646 46.0418 21.5646ZM45.5985 26.1135C46.2072 27.32 47.4941 28.1292 48.9812 28.152C48.9996 28.152 49.0179 28.152 49.0363 28.152C50.1843 28.152 51.5039 27.6408 52.2188 26.2997C52.4088 26.991 52.7111 27.5932 53.0808 28.1396C51.5304 31.0369 48.8831 31.6764 46.8997 31.2956C45.0429 30.9396 43.6396 29.7165 43.3883 28.2865C44.3606 27.7877 45.1777 27.0448 45.6005 26.1114L45.5985 26.1135ZM52.5477 24.6586C52.5477 23.6238 52.754 22.6946 53.0808 21.8937C53.0828 21.8896 53.0849 21.8833 53.089 21.8771C53.0971 21.8627 53.1053 21.8502 53.1094 21.8337C53.1114 21.8233 53.1135 21.815 53.1155 21.8047C53.8999 19.9504 55.3441 18.8308 56.4104 18.8308C57.2928 18.8308 57.6094 19.6255 58.0281 20.9355C58.1956 21.4591 58.3672 21.9992 58.6185 22.4649C59.2292 23.5721 59.4887 24.4661 59.7644 25.4119C60.1934 26.8916 60.6387 28.421 62.4587 30.8548C63.8232 32.6843 65.2735 33.241 66.5522 33.7314C67.9249 34.2571 69.0381 34.6855 69.7653 36.5191C68.4029 35.9376 66.2111 36.2894 64.3911 36.5853L63.8232 36.6764C61.8847 36.9744 58.835 34.5282 57.1947 32.0572C56.6514 31.2459 55.9671 30.5485 55.3073 29.8759C53.8897 28.4314 52.5518 27.0675 52.5518 24.6607L52.5477 24.6586ZM66.7442 33.2099C66.6972 33.1913 66.6503 33.1727 66.6033 33.154C68.8625 32.5704 70.0574 31.2873 71.2136 30.0373C72.0531 29.1309 72.9212 28.1913 74.204 27.5394C75.1375 27.0675 75.7401 26.3059 76.2712 25.6333C76.8636 24.8842 77.3314 24.2944 78.0504 24.2944C78.3772 24.2944 78.6142 24.4144 78.7735 24.6586C79.084 25.1346 79.0554 26.0452 78.7061 26.8751C78.4222 27.5539 78.2914 28.3465 78.1362 29.2633C77.8727 30.8382 77.5397 32.7877 76.2406 34.8097C74.3123 34.3047 72.0409 34.8718 71.3361 36.6992C71.0359 36.7033 70.7397 36.7447 70.4557 36.8295C69.653 34.3295 68.2395 33.7811 66.7442 33.2078V33.2099ZM76.5919 42.4069C75.9321 43.1375 75.6033 44.195 76.0465 45.1863C74.9231 44.6358 74.104 43.7935 73.8404 42.8602C73.5933 41.9889 73.8323 41.0886 74.5309 40.2629C75.3724 39.2716 76.7267 38.8991 77.9033 39.3399C78.2567 39.4723 78.557 39.671 78.8123 39.9173C78.8368 39.9607 78.8736 39.9939 78.9185 40.0187C79.3107 40.4429 79.564 41.0017 79.6498 41.664C78.5713 41.1217 77.3477 41.5688 76.594 42.4069H76.5919ZM79.7805 42.4111C80.1911 42.7629 80.3423 43.2078 80.234 43.7314C80.0522 44.6027 79.1534 45.5381 78.2281 45.8155C77.8666 45.9231 77.36 45.9727 76.9841 45.5899C76.0098 44.6068 76.3836 43.4624 77.0005 42.7815C77.4274 42.3076 78.0381 41.9847 78.655 41.9847C79.0431 41.9847 79.4333 42.1131 79.7826 42.4111H79.7805ZM78.8777 39.2509C78.6407 39.075 78.3833 38.926 78.0933 38.8184C76.9433 38.3879 75.6584 38.6176 74.6841 39.3668C74.3225 38.0899 73.5769 37.4338 72.9784 37.1068C72.6516 36.9289 72.2941 36.8088 71.9305 36.7467C72.6148 35.3146 74.5615 34.9069 76.2059 35.3788C76.2161 35.3829 76.2283 35.3871 76.2385 35.3891C76.2549 35.3974 76.2733 35.4016 76.2896 35.4057C77.744 35.8548 79.1984 37.1068 78.8736 39.2509H78.8777ZM81.8375 37.1006C81.9539 37.2662 82.052 37.409 82.1337 37.5145C82.9303 38.5493 83.6963 40.0477 83.4553 41.1424C83.3797 41.4529 83.3164 41.8399 83.251 42.2517C83.1101 43.1395 82.9344 44.2012 82.5626 44.8035C82.1582 43.9136 81.4821 43.3134 80.7488 42.9843C80.667 42.6491 80.4914 42.3469 80.2258 42.0862C80.2034 41.1218 79.8949 40.2877 79.3516 39.6772C79.899 37.2145 78.4936 35.6996 76.9126 35.0415C77.4927 34.5862 78.0749 34.3709 78.6469 34.4247C80.0645 34.5634 81.2186 36.2149 81.8375 37.1027V37.1006ZM81.0123 16.5357C80.9918 16.0431 80.9163 15.6126 80.8162 15.2091C81.2962 13.6611 82.1316 12.7753 82.6934 12.8126C83.1632 12.8457 83.539 13.5473 83.729 14.7393C84.0844 16.8482 84.0844 18.3713 84.0844 19.8469C84.0844 20.8734 84.0844 21.933 84.207 23.1602C84.4848 25.9252 83.7515 27.4235 82.3012 29.2199C81.9539 29.6524 81.5801 30.1449 81.2022 30.6437C80.1727 32.0013 78.8899 33.6921 78.2526 33.868C78.2526 33.868 78.2506 33.868 78.2485 33.8701C77.9135 33.8991 77.5806 33.9943 77.2517 34.1557C78.1587 32.3945 78.4467 30.7368 78.6775 29.3585C78.8246 28.4748 78.9532 27.7132 79.2106 27.0944C79.6416 26.0721 79.6518 24.9959 79.2311 24.3523C79.0676 24.0998 78.8409 23.9322 78.5713 23.8349C79.466 22.7463 81.1757 20.1677 81.0123 16.5336V16.5357ZM65.8597 0.95826C67.1854 0.0497335 69.2669 0.914802 70.3904 1.51083C70.6845 1.66811 70.9439 1.80263 71.1788 1.92474C72.6373 2.68219 73.0765 2.90984 74.6391 4.98765C75.0701 5.56712 75.4868 6.04104 75.8545 6.45909C76.9657 7.72358 77.7276 8.59278 77.7011 11.0328C77.2027 10.5692 76.7124 10.0725 76.2876 9.48061C75.7034 8.66521 74.8761 8.19129 74.0202 8.18301C73.3911 8.17267 72.5229 8.39824 71.5833 9.40611C71.3075 6.91646 69.9614 5.89411 69.1403 5.49676C67.788 4.84485 66.1151 4.998 64.9753 5.88376C64.8486 5.98103 64.7138 6.06588 64.5831 6.15694C64.3747 3.44584 64.7975 1.69088 65.8618 0.9624L65.8597 0.95826ZM58.4816 8.99013L58.6859 8.94046C60.5692 8.48723 62.663 7.97813 64.4258 6.91853C64.4605 6.90611 64.4911 6.88955 64.5197 6.86679C64.7914 6.69916 65.0549 6.52118 65.3082 6.32457C66.2724 5.5754 67.7492 5.44295 68.9013 5.99758C70.2515 6.64949 71.0256 8.11265 71.0788 10.116C71.0808 10.2339 71.1584 10.3374 71.2687 10.3747C71.379 10.4098 71.5016 10.3726 71.571 10.2774C72.333 9.26124 73.1623 8.70454 74.012 8.73765C74.7045 8.74593 75.352 9.12465 75.8402 9.80553C76.4163 10.6085 77.0883 11.2273 77.7419 11.8213C77.7542 11.8378 77.7705 11.8482 77.7848 11.8606C77.7951 11.8709 77.8073 11.8813 77.8175 11.8916C79.1841 13.1313 80.3647 14.2012 80.4587 16.5605C80.6303 20.3726 78.6325 22.9512 77.9115 23.7521C77.0086 23.8184 76.4367 24.5282 75.8361 25.2877C75.3153 25.9458 74.778 26.6267 73.9528 27.0448C72.5801 27.7422 71.6793 28.7169 70.8071 29.6607C69.6142 30.95 68.4825 32.1751 66.2131 32.6842C67.071 31.2211 67.6757 29.8345 67.9923 28.6631C71.136 27.1006 74.6207 24.1371 74.441 20.7534C77.7215 19.3875 78.5406 17.6594 78.5733 17.587C78.6366 17.4483 78.5774 17.2828 78.4405 17.2186C78.3037 17.1545 78.1403 17.2145 78.0749 17.3531C78.0667 17.3676 77.3436 18.8494 74.5554 20.0994C74.5656 20.0415 74.584 19.9835 74.5901 19.9256C74.7086 18.8391 74.2326 17.8829 73.2419 17.2145C73.3584 16.217 73.0622 15.267 72.382 14.4516C71.2401 13.0837 69.3241 12.4111 68.2272 12.3304C68.0577 11.7323 67.4346 10.0166 65.8332 9.84899C63.9601 9.65238 60.0769 12.2455 58.8391 15.0725C58.1936 16.5481 58.5531 17.4607 58.9698 17.9657C59.6582 18.8018 61.0207 19.1164 62.4383 18.7666C63.192 18.5824 64.195 18.4707 64.7118 18.9901C64.7179 18.9963 64.724 19.0025 64.7301 19.0088C65.1652 19.4661 65.2183 20.3457 64.8895 21.6247C64.5402 23.003 64.626 24.0791 65.1387 24.8242C65.6677 25.5899 66.5236 25.8258 67.1507 25.89C67.3223 25.9065 67.451 26.0059 67.5429 26.1963C67.9678 27.0696 67.5102 29.4765 65.5452 32.7174C64.6587 32.2972 63.764 31.6971 62.8897 30.5257C61.1289 28.1747 60.7 26.695 60.2833 25.2629C60.0116 24.3295 59.7317 23.3651 59.0924 22.2041C58.8677 21.7861 58.7022 21.2708 58.5449 20.7741C58.1548 19.5489 57.7503 18.2844 56.4042 18.2844C55.3094 18.2844 53.9163 19.2095 52.9909 20.8113C52.9419 20.4719 52.8949 20.1532 52.852 19.8593C52.4251 16.9868 52.3107 16.2149 53.8284 14.4889C54.4494 13.777 55.0969 13.183 55.7199 12.6098C56.9578 11.4736 58.0302 10.4864 58.4775 8.99841L58.4816 8.99013ZM64.5545 18.2285C63.9989 17.9968 63.2513 17.9905 62.3137 18.2203C61.1167 18.5141 59.9442 18.2679 59.3967 17.6035C58.9433 17.053 58.9249 16.2542 59.3457 15.2939C60.5263 12.5973 64.2726 10.236 65.7801 10.3995C66.9281 10.5195 67.4673 11.7571 67.6593 12.3428C66.926 12.4607 66.1743 12.9305 65.5962 13.6528C65.0447 14.342 64.2338 15.8237 64.5545 18.2285ZM66.0232 14.0046C66.5849 13.303 67.3488 12.8684 68.0168 12.8684C68.9952 12.8684 70.9113 13.5431 71.9673 14.8076C72.5903 15.5526 72.8293 16.3929 72.6782 17.3014C72.6598 17.4131 72.7108 17.527 72.8069 17.587C73.7199 18.1478 74.1489 18.9343 74.0468 19.8593C73.8976 21.2211 72.6046 22.6118 70.9725 23.1665C69.3527 23.717 67.6695 23.3941 66.2233 22.2848C67.8044 22.5746 68.7338 22.0034 69.1852 21.5771C69.9859 20.8196 70.2862 19.6006 69.9492 18.4727C69.6673 17.529 69.2301 16.9206 68.65 16.6702C68.0045 16.3887 67.4346 16.6702 67.4101 16.6826C67.2753 16.7509 67.2202 16.9165 67.2876 17.0551C67.355 17.1938 67.5204 17.2497 67.6552 17.1834C67.6716 17.1751 68.0311 17.0054 68.4417 17.1876C68.8543 17.3718 69.1934 17.8726 69.4221 18.6362C69.7 19.5634 69.4589 20.5588 68.8114 21.1714C68.0638 21.8771 66.8872 21.991 65.4859 21.5067C65.7801 20.207 65.68 19.255 65.1795 18.6776C64.6811 16.159 65.4921 14.6689 66.0252 14.0046H66.0232ZM65.3348 22.2476C66.5481 23.3879 67.9576 23.9881 69.3997 23.9881C69.9818 23.9881 70.5681 23.8908 71.1482 23.6942C72.2574 23.3175 73.2011 22.6077 73.8261 21.7612C73.3706 24.2095 70.8561 26.515 68.1537 27.9533C68.3028 27.1151 68.2762 26.4218 68.0434 25.9438C67.8677 25.5816 67.5715 25.3622 67.2099 25.3291C66.6993 25.2774 66.0048 25.0911 65.5962 24.4992C65.2388 23.9798 65.1632 23.2161 65.3368 22.2476H65.3348ZM50.695 8.41894C51.8797 6.76952 52.9133 6.397 54.0082 6.00379C54.766 5.73061 55.5504 5.44915 56.3654 4.72896C56.9946 4.16811 57.5297 3.94667 57.8341 4.12672C58.0567 4.2571 58.7267 4.97316 57.9934 8.69212C57.6176 10.1077 56.5676 11.0721 55.3543 12.1896C54.719 12.7732 54.0613 13.3776 53.4199 14.1122C51.7286 16.0307 51.8879 17.0944 52.3107 19.9359C52.3577 20.2546 52.4088 20.6044 52.4619 20.9748C51.512 19.9504 50.8114 18.7459 50.3354 17.4773C50.3375 17.409 50.315 17.3428 50.268 17.2869C49.9678 16.4405 49.7635 15.5713 49.6491 14.7165C49.6532 14.6689 49.6491 14.6213 49.6266 14.5737C49.3202 12.0862 49.7533 9.73103 50.695 8.42101V8.41894ZM44.5404 12.6801C45.9927 12.1006 47.9578 12.3531 49.1201 14.791C49.212 15.4347 49.3529 16.0824 49.5388 16.7198C47.5656 15.3767 46.0622 15.7037 45.2982 16.0555C44.1564 16.5833 43.3618 17.767 43.1779 19.1474C42.7143 18.8101 42.2608 18.5493 41.8257 18.3569C41.0903 15.772 42.6101 13.4479 44.5404 12.678V12.6801ZM39.9607 28.3962C37.961 28.1416 36.8906 26.6702 37.0254 24.3606C37.0254 24.3357 37.0254 24.3109 37.0193 24.2861C36.4678 21.6723 37.1071 19.4951 38.6493 18.7418C39.6952 18.2306 41.3355 18.3569 43.2004 19.8593C43.2208 19.8842 43.2453 19.9028 43.2719 19.9194C43.756 20.3167 44.2544 20.8093 44.761 21.4074C44.5465 21.5564 44.3627 21.7426 44.2095 21.9558C42.9063 21.2459 41.6398 21.3308 40.7819 22.2145C39.879 23.1478 39.7279 24.6938 40.4326 25.8134C41.0556 26.7881 42.0667 27.2952 43.2106 27.2021C43.6355 27.1689 44.044 27.051 44.4138 26.8647C43.3189 27.9843 41.4764 28.5907 39.9628 28.3962H39.9607ZM15.9961 80.9686C15.9961 75.1284 18.3187 71.4591 20.5636 67.9098C22.4142 64.9856 24.318 61.9723 24.7857 57.8188C25.1493 59.3523 25.5354 60.7968 25.9399 62.1524C25.9337 65.89 24.369 68.2617 22.7124 70.7699C20.7903 73.6818 18.8007 76.6909 18.8007 82.1193C18.8007 82.2724 18.9233 82.3987 19.0765 82.3987C19.2297 82.3987 19.3522 82.2745 19.3522 82.1193C19.3522 76.8606 21.2928 73.9218 23.172 71.0804C24.6489 68.8432 26.0502 66.7116 26.4035 63.6404C27.9784 68.5059 29.7821 72.1772 31.5225 74.9607C31.4918 78.5741 29.7862 80.9065 28.1357 83.1602C26.5567 85.3146 24.9246 87.5435 24.9246 90.7948C24.9246 93.4148 25.8888 95.5009 27.5066 96.7136C24.7286 95.8755 21.542 94.1184 19.2256 91.1155C19.2256 91.1073 19.2236 91.099 19.2215 91.0907C19.2052 90.9872 19.1337 90.9065 19.0438 90.8734C17.232 88.4231 15.9982 85.176 15.9982 80.9686H15.9961ZM52.2842 103.442C53.0256 104.766 53.9489 105.482 54.7272 106.082C55.6811 106.819 56.3103 107.306 56.2061 108.539C56.0794 110.021 54.5658 110.646 52.8132 111.372C51.5222 111.906 50.1884 112.459 49.306 113.433C48.1702 114.675 47.9129 116.494 48.7054 117.668C48.9934 118.096 49.7165 118.833 51.2485 118.833C51.655 118.833 52.1228 118.775 52.6498 118.651C51.2424 119.491 49.5306 119.677 48.0497 119.069C46.4769 118.423 45.576 117.036 45.576 115.267C45.576 113.022 47.3225 111.022 49.0118 109.087C50.6459 107.217 52.1779 105.445 52.2862 103.442H52.2842ZM38.9864 97.1006C40.5143 96.8275 41.8318 96.5895 43.3148 96.5895C48.2846 96.5895 51.7551 99.315 51.7551 103.216C51.7551 105.104 50.2211 106.858 48.5971 108.717C46.8404 110.729 45.0225 112.808 45.0225 115.265C45.0225 117.274 46.0499 118.849 47.8393 119.584C49.4305 120.238 51.2587 120.075 52.7826 119.222C51.0218 121.157 48.4153 121.587 46.3196 121.066C43.7029 120.412 42.0136 118.39 42.0136 115.913C42.0136 112.736 43.85 110.431 45.4698 108.398C46.8302 106.693 48.1151 105.081 48.1151 103.214C48.1151 101.347 47.1162 100.337 45.3738 100.337C43.2597 100.337 41.1353 102.368 38.6739 104.719C35.328 107.914 31.5368 111.538 26.5138 111.538C19.9896 111.538 17.665 106.743 17.665 102.254C17.665 100.621 18.0674 99.1453 18.4923 97.5808C18.9601 95.863 19.4421 94.0936 19.3298 92.1193C22.9269 96.277 28.1623 97.8788 31.1854 97.8788C34.6335 97.8788 36.9458 97.4649 38.9864 97.0986V97.1006ZM40.3345 92.0199C39.0456 92.8767 37.8282 93.6838 37.6403 94.8428C37.5483 95.416 37.7281 96.0224 38.155 96.6826C36.3105 97.0054 34.18 97.3241 31.1875 97.3241C27.7701 97.3241 25.4721 94.7 25.4721 90.7948C25.4721 87.7256 26.9796 85.6685 28.5749 83.4914C30.158 81.3328 31.7839 79.104 32.0372 75.7617C34.3557 79.2716 36.5005 81.2294 37.7526 82.3697C37.9589 82.558 38.1387 82.7215 38.2878 82.8643L38.7433 83.301C38.8904 83.4438 39.0477 83.5928 39.209 83.748C40.5797 86.8213 39.2397 89.1391 38.3695 89.7828C38.2469 89.8738 38.2204 90.0477 38.3103 90.1718C38.3634 90.2463 38.4471 90.2857 38.5329 90.2857C38.5881 90.2857 38.6453 90.2691 38.6943 90.2318C39.8075 89.4082 40.8248 87.2041 40.0874 84.5613C41.1516 85.5133 42.4589 86.5336 44.0338 87.3179C43.9378 89.6213 42.03 90.8941 40.3345 92.0179V92.0199ZM60.8654 81.9723C60.6611 82.1565 60.4834 82.3179 60.3364 82.4587L59.9115 82.8705C57.9076 84.82 54.5515 88.0837 49.5102 88.0837C47.586 88.0837 45.909 87.6056 44.4546 86.9082C44.4383 86.8978 44.424 86.8895 44.4056 86.8833C42.0912 85.7617 40.3509 84.0874 39.1212 82.8995L38.6636 82.4607C38.5125 82.3159 38.3307 82.1503 38.1183 81.9578C36.8069 80.7637 34.5027 78.6569 32.0536 74.7703C32.0393 74.731 32.0168 74.6958 31.9882 74.6669C29.1121 70.0684 26.0481 63.0009 24.1729 52.0344C24.1811 43.0733 29.5227 39.3295 34.2372 36.0266C37.2113 33.9425 40.02 31.9703 41.2415 28.9467C41.7951 28.8804 42.3486 28.7376 42.8736 28.5245C43.227 30.118 44.7712 31.4591 46.7935 31.8461C47.1652 31.9185 47.5574 31.9558 47.9619 31.9558C49.8677 31.9558 52.0268 31.0845 53.4342 28.6404C53.8877 29.2219 54.4004 29.7496 54.911 30.2691C55.5545 30.9251 56.2183 31.6019 56.7331 32.3697C58.4591 34.9732 61.6886 37.5684 63.9008 37.229L64.4728 37.1379C66.2519 36.8502 68.6255 36.4694 69.7755 37.1586C69.0443 37.6015 68.5172 38.3113 68.268 39.2695C67.9535 40.4802 68.1148 41.9475 68.6316 43.0919C64.8016 41.4508 57.8014 42.7939 56.8577 43.7521C56.7515 43.8618 56.7515 44.0377 56.8577 44.1474C56.9108 44.2012 56.9823 44.2281 57.0518 44.2281C57.1212 44.2281 57.1927 44.2012 57.2458 44.1474C57.924 43.4583 65.5717 41.8419 69.034 43.9198C68.5908 46.0059 70.084 47.6677 71.8529 48.2534C71.618 49.6068 71.9591 50.8755 72.8069 51.6847C73.3686 52.2207 74.0794 52.4587 74.776 52.3883C73.9671 57.0199 72.9458 60.9458 71.8182 64.2819C71.806 64.3068 71.7978 64.3316 71.7916 64.3585C68.0127 75.4843 63.0531 79.9897 60.8613 81.9744L60.8654 81.9723ZM66.9975 75.7347C68.7624 73.0609 70.6212 69.4827 72.2635 64.6855C74.1918 64.6524 75.5747 64.1329 76.643 61.933C77.5111 65.2277 79.2842 67.6387 80.8754 69.7766C83.0794 72.7401 84.9853 75.2981 84.158 79.4082C83.3103 83.5928 81.2472 84.8035 78.6366 86.337C77.1761 87.1938 75.5236 88.1644 73.9385 89.8138C71.8325 92.0075 71.1891 94.6172 70.6723 96.7136C70.0676 99.1702 69.6734 100.453 68.0168 100.453C67.5919 100.453 67.2304 100.271 66.9117 99.8945C65.012 97.647 65.061 88.9156 67.0465 75.9355C67.0588 75.861 67.0384 75.7906 66.9995 75.7347H66.9975ZM0.549478 59.5675C0.549478 47.1482 5.10667 35.2608 13.3836 26.0949C13.4857 25.981 13.4796 25.8051 13.3672 25.7016C13.2549 25.5982 13.0813 25.6044 12.9791 25.7182C4.6103 34.9876 0 47.0075 0 59.5675C0 73.3817 5.42328 86.248 15.273 95.7968C15.3261 95.8486 15.3956 95.8734 15.463 95.8734C15.5365 95.8734 15.608 95.8444 15.6611 95.7865C15.7653 95.6747 15.7612 95.4988 15.653 95.3933C5.91353 85.95 0.549478 73.2265 0.549478 59.5675ZM87.6795 27.6387C87.5815 27.5208 87.4079 27.5042 87.2914 27.6015C87.175 27.7008 87.1587 27.8747 87.2547 27.9947C94.4735 36.8233 98.4485 48.0361 98.4485 59.5675C98.4485 82.8084 82.2011 103.204 59.8155 108.063C59.6664 108.096 59.5724 108.243 59.6051 108.394C59.6316 108.524 59.746 108.613 59.8747 108.613C59.8931 108.613 59.9135 108.613 59.9319 108.607C82.5688 103.692 99 83.0692 99 59.5655C99 47.9057 94.98 36.5667 87.6795 27.6367V27.6387ZM19.6525 20.1698C19.7097 20.1698 19.769 20.1511 19.818 20.1139C27.1838 14.4351 35.9265 10.9976 45.1001 10.1698C45.2513 10.1553 45.3636 10.0208 45.3493 9.86762C45.335 9.71447 45.2063 9.60685 45.0511 9.61513C35.7753 10.4512 26.9346 13.9301 19.485 19.671C19.3645 19.7641 19.34 19.94 19.4319 20.0622C19.485 20.1346 19.5688 20.1718 19.6505 20.1718L19.6525 20.1698ZM43.9235 52.9533C43.9235 52.8001 43.801 52.6739 43.6478 52.6739C43.3945 52.6739 42.8593 52.44 42.2383 52.171C41.0209 51.6412 39.3561 50.9169 37.6219 50.9169C36.4657 50.9169 35.3361 51.2645 34.3618 51.7467C34.0411 51.575 33.4058 51.0452 33.0974 50.4885C33.0238 50.354 32.8563 50.3064 32.7236 50.3829C32.5908 50.4574 32.5438 50.6292 32.6194 50.7617C32.9013 51.2708 33.3976 51.7468 33.8103 52.0427C33.3711 52.2972 32.9707 52.5704 32.6357 52.8457C32.0924 52.558 31.4183 51.9827 31.118 51.4115C31.0465 51.2749 30.879 51.2252 30.7463 51.2977C30.6114 51.3701 30.5624 51.5398 30.6339 51.6743C31.0322 52.4318 31.9269 53.1437 32.5642 53.4293C32.599 53.4458 32.6378 53.4541 32.6745 53.4541C32.7379 53.4541 32.8012 53.4314 32.8522 53.3879C33.0095 53.2534 33.461 52.8933 34.0983 52.5228C34.1841 53.1892 34.5232 53.7045 34.5415 53.7294C34.5946 53.808 34.6804 53.8515 34.7683 53.8515C34.8214 53.8515 34.8745 53.8349 34.9235 53.8039C35.0481 53.717 35.0808 53.5431 34.9971 53.4169C34.993 53.4107 34.6375 52.8664 34.6335 52.2372C35.1482 51.9827 35.7467 51.7592 36.4024 51.6205C36.2758 51.8357 36.2002 52.0862 36.2002 52.3614C36.2002 53.1747 36.8252 53.8121 37.6239 53.8121C38.4226 53.8121 39.0477 53.1602 39.0477 52.3614C39.0477 52.0779 38.9639 51.8171 38.825 51.5936C39.3745 51.695 39.9097 51.8564 40.4142 52.0344C40.4285 52.3759 40.3386 53.0568 40.1364 53.3858C40.0567 53.5162 40.0956 53.688 40.2242 53.7687C40.2692 53.7977 40.3203 53.8101 40.3693 53.8101C40.4612 53.8101 40.5511 53.7625 40.6042 53.6776C40.8268 53.3134 40.9453 52.7029 40.9616 52.2372C41.3416 52.3883 41.7011 52.5435 42.0238 52.6822C42.7551 53.0009 43.2842 53.2306 43.6498 53.2306C43.801 53.2306 43.9256 53.1064 43.9256 52.9512L43.9235 52.9533ZM37.6219 53.2534C37.1316 53.2534 36.7476 52.8602 36.7476 52.3593C36.7476 51.8585 37.1316 51.4756 37.6219 51.4756C38.1121 51.4756 38.4961 51.873 38.4961 52.3593C38.4961 52.8457 38.1039 53.2534 37.6219 53.2534ZM35.2503 49.1495C35.1033 49.1888 35.0175 49.3419 35.0563 49.491C35.0951 49.64 35.2483 49.7269 35.3933 49.6876C36.6434 49.3461 38.439 49.2116 39.7238 49.8552C39.7626 49.8759 39.8035 49.8842 39.8463 49.8842C39.9485 49.8842 40.0445 49.8283 40.0935 49.729C40.1609 49.5903 40.1058 49.4247 39.9689 49.3564C38.1775 48.4583 35.904 48.9694 35.2503 49.1495ZM68.2578 51.2977C68.123 51.2252 67.9576 51.277 67.8861 51.4115C67.594 51.9661 66.9158 52.5518 66.3847 52.8436C66.1559 52.6594 65.7474 52.3552 65.2081 52.0427C65.6126 51.7468 66.1008 51.2728 66.3827 50.7617C66.4582 50.6271 66.4092 50.4574 66.2785 50.3829C66.1457 50.3084 65.9782 50.356 65.9047 50.4885C65.5942 51.0493 64.9691 51.5791 64.6566 51.7467C63.768 51.3039 62.6425 50.9169 61.3985 50.9169C59.65 50.9169 57.9873 51.6433 56.7719 52.1731C56.155 52.4421 55.6239 52.6739 55.3727 52.6739C55.2215 52.6739 55.0969 52.7981 55.0969 52.9533C55.0969 53.1085 55.2195 53.2327 55.3727 53.2327C55.7383 53.2327 56.2633 53.003 56.9905 52.6863C57.3153 52.5456 57.6748 52.3904 58.0567 52.2393C58.0731 52.7132 58.2038 53.3258 58.4224 53.6797C58.4734 53.7645 58.5654 53.8121 58.6573 53.8121C58.7063 53.8121 58.7574 53.7997 58.8023 53.7708C58.931 53.69 58.9719 53.5183 58.8902 53.3879C58.6838 53.0526 58.5858 52.3593 58.6062 52.0344C59.1087 51.8544 59.6439 51.695 60.1934 51.5936C60.0565 51.815 59.9769 52.0758 59.9769 52.3614C59.9769 53.1747 60.6019 53.8121 61.4006 53.8121C62.1993 53.8121 62.8243 53.1602 62.8243 52.3614C62.8243 52.0882 62.7447 51.8378 62.616 51.6205C63.2737 51.7592 63.8722 51.9827 64.389 52.2372C64.3686 52.8643 64.0132 53.4148 64.0111 53.4189C63.9253 53.5452 63.9601 53.719 64.0847 53.8059C64.1316 53.8391 64.1847 53.8535 64.2379 53.8535C64.3257 53.8535 64.4115 53.8101 64.4646 53.7314C64.483 53.7045 64.8241 53.1892 64.9201 52.5208C65.5615 52.8933 66.017 53.2554 66.1743 53.39C66.2254 53.4334 66.2887 53.4562 66.352 53.4562C66.3908 53.4562 66.4296 53.4479 66.4664 53.4314C67.0976 53.1396 67.9821 52.4256 68.3763 51.6785C68.4478 51.5419 68.3967 51.3742 68.264 51.3018L68.2578 51.2977ZM61.3965 53.2534C60.9063 53.2534 60.5222 52.8602 60.5222 52.3593C60.5222 51.8585 60.9063 51.4756 61.3965 51.4756C61.8868 51.4756 62.2708 51.873 62.2708 52.3593C62.2708 52.8457 61.8786 53.2534 61.3965 53.2534ZM59.1516 49.8862C59.1925 49.8862 59.2333 49.878 59.2721 49.8573C60.5794 49.2095 62.3668 49.344 63.6026 49.6876C63.7476 49.729 63.9008 49.64 63.9396 49.493C63.9805 49.344 63.8926 49.1909 63.7476 49.1516C62.4158 48.7811 60.4753 48.6404 59.029 49.3585C58.8922 49.4268 58.835 49.5924 58.9024 49.731C58.9494 49.8304 59.0474 49.8862 59.1496 49.8862H59.1516Z" fill="black"/>
</svg>
