<svg width="107" height="114" viewBox="0 0 107 114" fill="none" xmlns="http://www.w3.org/2000/svg">
<path d="M18.8447 83.5681C16.1976 83.837 13.5263 85.8078 13.5263 89.6127C13.5263 92.4838 14.9505 94.5867 17.5394 95.5349C18.5001 95.8878 19.5556 96.0414 20.5067 96.0414C21.812 96.0414 22.9232 95.751 23.3284 95.2828C23.4036 95.1964 23.4254 95.0788 23.3915 94.9732C23.3575 94.8651 23.2677 94.7835 23.1561 94.7571C21.3947 94.337 20.9701 93.3432 20.4339 92.0829C20.1185 91.3435 19.7618 90.5057 19.0679 89.7664C17.93 88.5541 16.8115 88.314 16.0569 88.3068C15.3994 88.3092 14.7589 88.5133 14.213 88.8781C14.5332 85.7694 16.8794 84.4179 18.9078 84.2139C21.4044 83.9618 24.4372 85.3085 25.182 88.8637C25.182 88.8733 25.1917 88.8829 25.1942 88.8925C25.2014 88.9141 25.2087 88.9334 25.2209 88.9526C25.2306 88.9718 25.2427 88.9886 25.2548 89.003C25.267 89.0174 25.2815 89.0318 25.2961 89.0438C25.3131 89.0582 25.3325 89.0702 25.3519 89.0798C25.3689 89.087 25.3834 89.0942 25.4028 89.099C25.4271 89.1062 25.4489 89.111 25.4732 89.1134C25.4829 89.1134 25.4902 89.1182 25.5023 89.1182C25.5144 89.1182 25.5241 89.1134 25.5338 89.111C25.546 89.111 25.5557 89.111 25.5678 89.111C25.5799 89.111 25.5872 89.1014 25.5969 89.099C25.6188 89.0918 25.6382 89.0846 25.6576 89.075C25.677 89.0654 25.694 89.0534 25.7085 89.0414C25.7231 89.0294 25.7376 89.015 25.7498 88.9982C25.7643 88.9814 25.774 88.9646 25.7862 88.9454C25.7959 88.9286 25.8032 88.9094 25.808 88.8902C25.8153 88.8685 25.8177 88.8493 25.8201 88.8253C25.8201 88.8157 25.8274 88.8061 25.8274 88.7941C25.8274 85.1621 24.362 81.1459 22.8092 76.8946C22.1031 74.9597 21.3898 73.0056 20.8051 71.0588C20.8051 71.0588 20.8051 71.0588 20.8051 71.0564C20.8051 71.0564 20.8051 71.054 20.8051 71.0516C20.8051 71.0468 20.8051 71.0396 20.8051 71.0348C20.5722 69.1287 21.1059 68.2117 21.7271 67.1507C22.222 66.3009 22.7849 65.3383 22.9863 63.7731C23.2119 62.0159 22.7922 60.7268 22.3846 59.4785C21.9721 58.2158 21.5839 57.0251 21.8411 55.3663C21.8654 55.2175 21.7804 55.0711 21.6373 55.0158C21.4966 54.9606 21.334 55.011 21.2467 55.1359C20.0238 56.9339 19.3372 58.8015 19.0218 60.7148C18.6045 59.793 18.175 58.984 17.7844 58.2494C16.9425 56.6698 16.2753 55.4215 16.1612 53.8948C16.1491 53.7388 16.0254 53.6115 15.8677 53.5971C15.7124 53.5827 15.562 53.6811 15.5207 53.8324C15.3266 54.5237 15.0961 55.2079 14.8729 55.8704C14.0601 58.2758 13.2934 60.5467 14.3003 62.9713C14.936 64.5077 15.9574 65.6551 17.0371 66.8722C18.1192 68.0893 19.2353 69.3472 20.1621 71.162C20.7566 73.1473 21.4796 75.1373 22.2002 77.1106C22.239 77.2162 22.2754 77.3194 22.3142 77.4227C20.6886 75.8623 19.706 74.5948 18.8956 73.5482C17.7601 72.079 16.9376 71.018 15.1495 70.1034C13.2594 69.1335 11.7625 68.7855 10.3164 68.4518C9.22217 68.1973 8.18859 67.9573 7.04825 67.4603C6.90025 67.3955 6.72313 67.4507 6.63579 67.59C6.55087 67.7292 6.58241 67.9093 6.71101 68.0101C8.26138 69.2368 9.19306 70.6123 10.0156 71.827C10.775 72.948 11.4325 73.9179 12.3957 74.542C13.9606 75.5622 15.084 75.8191 16.3845 76.1192C17.9445 76.4768 19.7133 76.8897 22.8116 78.7982C23.7918 81.5228 24.641 84.1298 24.9952 86.5664C23.6098 84.2331 21.0477 83.3401 18.8447 83.5633V83.5681ZM16.0642 88.9526H16.0763C16.9522 88.9526 17.8232 89.3847 18.5923 90.2056C19.2086 90.861 19.5265 91.61 19.8346 92.3349C20.3029 93.432 20.7832 94.5627 22.2851 95.1628C21.3461 95.4701 19.4828 95.5589 17.7698 94.93C16.154 94.3394 14.2324 92.9591 14.1839 89.7447C14.6885 89.2454 15.3679 88.9574 16.0666 88.955L16.0642 88.9526ZM17.5296 66.4521C16.4864 65.2782 15.4989 64.1692 14.9069 62.7336C13.9946 60.5299 14.7225 58.3694 15.4965 56.0817C15.5838 55.8272 15.6711 55.568 15.7561 55.3063C16.0618 56.4034 16.6077 57.4236 17.2118 58.5567C17.7383 59.5433 18.3303 60.662 18.8689 62.0159C18.6942 64.2724 18.9951 66.5865 19.5556 68.9175C18.8859 67.9765 18.1823 67.1843 17.5345 66.4545L17.5296 66.4521ZM19.5216 62.0447C19.5264 62.0159 19.5289 61.9895 19.5265 61.9583C19.6817 60.1242 20.1646 58.3334 21.1084 56.6122C21.1423 57.7765 21.4553 58.7415 21.7635 59.6825C22.1662 60.9164 22.5471 62.0831 22.3385 63.6963C22.1541 65.1342 21.6494 65.9984 21.1617 66.8338C20.7832 67.4844 20.4145 68.1133 20.2276 68.9439C19.655 66.6058 19.3421 64.294 19.5192 62.0447H19.5216ZM16.5325 75.495C15.2926 75.2093 14.2227 74.9645 12.7548 74.0067C11.9007 73.4546 11.2772 72.5351 10.559 71.4717C9.95005 70.5715 9.28283 69.5872 8.35357 68.627C8.96014 68.8071 9.55457 68.9463 10.1684 69.0879C11.5756 69.4144 13.0338 69.7529 14.8511 70.6843C16.5106 71.5317 17.2943 72.5447 18.3788 73.9491C19.0509 74.8181 19.837 75.8311 21.0016 77.041C19.0679 76.076 17.7407 75.7711 16.5349 75.4926L16.5325 75.495ZM25.4902 73.7882C25.3325 73.6994 25.1335 73.7546 25.0462 73.9106C24.9564 74.0667 25.0122 74.2635 25.1699 74.35C27.4045 75.6006 28.4648 79.9361 27.8703 85.3997C27.8655 85.4501 27.8752 85.4982 27.8922 85.5438C27.8946 85.5534 27.9019 85.5606 27.9043 85.5678C27.931 85.623 27.9698 85.671 28.0232 85.7046C28.0256 85.7046 28.0256 85.7094 28.0305 85.7118H28.0329C28.0717 85.7334 28.1129 85.7478 28.159 85.7526C28.1712 85.7526 28.1833 85.7526 28.193 85.7526C28.2343 85.7526 28.2755 85.743 28.3143 85.7286C28.324 85.7238 28.3313 85.7166 28.341 85.7118C28.3701 85.6974 28.3968 85.683 28.4187 85.6614C28.4187 85.6614 28.4235 85.659 28.4259 85.6566C28.8263 85.2581 29.4838 85.2005 30.2456 85.1357C31.2282 85.0516 32.3395 84.9556 33.2445 84.0866C34.4066 82.9824 34.659 81.8229 34.9501 80.4786C35.0714 79.9145 35.2 79.3311 35.4014 78.6758C35.4354 78.5653 35.4087 78.4453 35.3286 78.3589C35.2485 78.2749 35.1297 78.2413 35.0156 78.2653C31.6237 79.0527 29.7313 81.1579 28.6758 83.28C28.8311 78.5485 27.6714 74.9981 25.4926 73.781L25.4902 73.7882ZM34.6153 79.0454C34.4891 79.5136 34.3945 79.9505 34.3096 80.349C34.0184 81.6909 33.8073 82.6607 32.7908 83.6281C32.0507 84.3387 31.1045 84.4203 30.1898 84.4995C29.6876 84.5427 29.1999 84.5859 28.768 84.7276C29.5711 82.5215 31.2234 80.0369 34.6177 79.0454H34.6153ZM27.3875 102.475C27.3705 102.461 27.3511 102.449 27.3317 102.439C27.2613 102.403 27.1813 102.391 27.1012 102.412C26.7179 102.506 26.1477 102.477 25.4829 102.444C24.1727 102.374 22.3773 102.28 20.3878 103.049C18.7598 103.68 17.6825 104.487 16.5397 105.341C15.7003 105.97 14.8317 106.621 13.701 107.216C13.5676 107.286 13.5021 107.437 13.5385 107.581C13.5749 107.725 13.7059 107.826 13.8563 107.826C14.5745 107.826 15.38 108.071 16.3141 108.354C17.4569 108.7 18.7889 109.105 20.281 109.105C20.9507 109.105 21.6543 109.024 22.3846 108.817C24.789 108.128 25.7376 106.167 26.4995 104.592C26.8076 103.956 27.0963 103.356 27.4384 102.931C27.4433 102.926 27.4457 102.921 27.4506 102.917C27.4676 102.895 27.4797 102.871 27.4894 102.845C27.5112 102.792 27.5161 102.734 27.5064 102.674C27.504 102.655 27.4991 102.636 27.4918 102.617C27.4724 102.559 27.436 102.513 27.3923 102.477L27.3875 102.475ZM25.9051 104.311C25.1626 105.845 24.3231 107.586 22.2002 108.193C20.036 108.805 18.1605 108.236 16.5033 107.735C15.9405 107.564 15.3945 107.398 14.8753 107.293C15.6469 106.82 16.2995 106.333 16.9352 105.855C18.0392 105.027 19.0824 104.247 20.6255 103.649C22.4258 102.953 24.0271 103.013 25.3276 103.08C24.6216 103.406 23.8986 103.795 23.1877 104.177C22.4428 104.578 21.6713 104.993 20.9434 105.322C20.7784 105.396 20.708 105.588 20.7832 105.752C20.8585 105.915 21.0526 105.987 21.2175 105.91C21.9648 105.569 22.7461 105.152 23.5006 104.746C24.4784 104.22 25.4829 103.682 26.4073 103.32C26.2375 103.63 26.0749 103.963 25.9075 104.309L25.9051 104.311ZM43.4104 41.8896C43.4104 41.6495 43.3474 41.4287 43.243 41.2294C43.67 41.3279 44.0485 41.4647 44.3809 41.6183C44.5168 42.3289 44.1553 42.869 44.1383 42.8906C44.034 43.0371 44.068 43.2387 44.216 43.3419C44.2742 43.3827 44.3397 43.4019 44.4052 43.4019C44.5071 43.4019 44.609 43.3539 44.6721 43.2651C44.6915 43.2387 45.0506 42.7178 45.0651 41.9784C45.1913 42.0528 45.3126 42.1248 45.4242 42.1921C45.8682 42.4609 46.2176 42.6746 46.5743 42.713C46.7562 42.7394 46.9139 42.6049 46.9334 42.4273C46.9528 42.2497 46.8242 42.0912 46.6446 42.072C46.436 42.0504 46.1254 41.8608 45.7688 41.6447C45.5091 41.4863 45.201 41.3038 44.8444 41.1262C44.8347 41.119 44.8225 41.1142 44.8104 41.1094C44.0874 40.7541 43.1581 40.4372 41.9401 40.4372C40.7222 40.4372 39.8317 40.7445 39.1063 41.107C39.0869 41.1142 39.0699 41.1214 39.0529 41.131C38.8903 41.215 38.7375 41.299 38.5943 41.3855C38.308 41.2054 37.784 40.7901 37.5462 40.2716C37.471 40.1108 37.2793 40.0387 37.1143 40.1108C36.9493 40.1852 36.8766 40.3772 36.9518 40.5381C37.1871 41.0518 37.6335 41.4839 38.0023 41.7624C37.9756 41.7792 37.9465 41.7984 37.9223 41.8152C37.6578 41.9928 37.4225 42.1488 37.2356 42.2281C36.9518 42.1416 36.0783 41.8272 35.5227 41.1382C35.4111 40.999 35.2049 40.975 35.0641 41.0854C34.9234 41.1958 34.8992 41.3999 35.0108 41.5391C35.8211 42.5449 37.1168 42.8666 37.1726 42.881C37.1992 42.8858 37.2235 42.8906 37.2502 42.8906C37.2842 42.8906 37.3181 42.8858 37.3497 42.8762C37.6384 42.785 37.9393 42.5833 38.2886 42.3481C38.4463 42.2425 38.6186 42.1296 38.8006 42.0168C38.8224 42.4249 38.9534 42.881 39.213 43.2243C39.2761 43.3083 39.3756 43.3539 39.4751 43.3539C39.543 43.3539 39.6109 43.3323 39.6716 43.2891C39.8172 43.1811 39.8463 42.9794 39.7371 42.8354C39.4314 42.4345 39.4168 41.8536 39.4751 41.6447C39.8172 41.4791 40.2005 41.3327 40.6372 41.2294C40.5353 41.4287 40.4698 41.6495 40.4698 41.8896C40.4698 42.6962 41.1298 43.3539 41.9426 43.3539C42.7554 43.3539 43.4153 42.6986 43.4153 41.8896H43.4104ZM41.1201 41.8896C41.1201 41.4431 41.4864 41.0806 41.9377 41.0806C42.389 41.0806 42.7554 41.4431 42.7554 41.8896C42.7554 42.3361 42.3963 42.7058 41.9377 42.7058C41.4791 42.7058 41.1201 42.3481 41.1201 41.8896ZM39.2276 39.3234C39.281 39.3234 39.3343 39.3114 39.3829 39.285C40.4019 38.7376 42.3647 38.2143 43.5342 38.7689C43.6992 38.8481 43.8933 38.7785 43.9709 38.6176C44.0485 38.4568 43.9806 38.2647 43.8181 38.1855C42.3599 37.4966 40.1326 38.1471 39.0723 38.7184C38.9146 38.8049 38.8564 38.9993 38.9413 39.1577C38.9995 39.2658 39.1136 39.3258 39.2276 39.3258V39.3234ZM78.4285 94.0369C77.8413 93.0575 77.2857 92.1333 77.2857 90.6306C77.2857 90.6234 77.2833 90.6185 77.2833 90.6137C77.2833 90.5897 77.276 90.5705 77.2687 90.5465C77.2639 90.5273 77.259 90.5081 77.2518 90.4913C77.2421 90.4721 77.2299 90.4577 77.2178 90.4409C77.2057 90.4241 77.1935 90.4073 77.179 90.3929C77.1644 90.3785 77.1474 90.3713 77.128 90.3593C77.1086 90.3473 77.0916 90.3353 77.0698 90.3281C77.0649 90.3281 77.0601 90.3209 77.0528 90.3185C67.0931 87.3754 66.7776 74.2995 67.4958 66.6826C68.015 66.0896 68.5076 65.4775 68.9516 64.8485C72.8966 63.3074 75.5679 61.7806 77.5405 59.9538C77.9918 60.9284 78.2756 62.0207 78.329 63.1633C78.5401 67.1627 76.109 70.5523 72.9112 70.7227C71.7054 70.7779 70.5141 70.3722 69.4781 69.5416C69.3616 69.448 69.1966 69.4456 69.0753 69.5344C68.9564 69.6233 68.9127 69.7817 68.971 69.9185C70.1477 72.6984 72.2052 74.3884 74.3791 74.3884C74.4519 74.3884 74.5247 74.3884 74.5974 74.3836C75.8154 74.3211 76.963 73.7354 77.9165 72.6888C79.5373 70.9075 80.4059 68.0221 80.2385 64.9686C80.1244 62.6928 79.4693 60.6212 78.443 59.0608C79.2073 58.2182 79.8406 57.318 80.3161 56.3722C81.0222 54.9582 82.1334 53.6139 83.3125 52.1928C85.5447 49.497 87.852 46.7099 87.9054 42.9314C91.0571 39.8323 92.0737 36.3875 90.7684 33.214C89.8828 31.0655 88.7498 29.6995 87.92 28.7057C87.5391 28.2472 87.2067 27.8487 87.0053 27.4958C84.7319 17.8288 73.1926 -2.00946 53.5376 1.57938C49.84 0.139042 45.2398 1.685 44.182 2.07869C43.9321 1.76902 43.6652 1.49296 43.3813 1.2649C42.3696 0.453514 41.2147 0.259068 40.0307 0.688768C38.8879 -0.144226 37.5365 -0.048202 36.811 0.0958316C35.6828 0.321484 34.7075 0.890416 34.3824 1.51216C33.9093 2.41237 32.536 3.59105 31.3253 3.84551C30.0418 4.10477 29.5493 4.52006 29.2897 5.68193C28.751 5.5499 28.0353 5.57871 27.3972 5.78036C26.7979 5.9676 25.9851 6.3853 25.5241 7.29751C24.7599 8.81707 22.7048 11.3305 21.6664 12.173C21.1351 12.6075 20.873 13.1837 20.9264 13.8006C20.9871 14.5016 21.4432 15.1809 22.2269 15.7595C20.7881 16.3092 19.9753 17.255 19.8103 18.5825C19.7642 19.0122 19.5556 19.478 19.3324 19.9701C19.0461 20.6038 18.7525 21.2568 18.7525 21.9457C18.7525 22.4618 19.1091 23.0068 19.6308 23.4845C19.9874 24.3919 20.395 25.3233 20.9507 26.0363C20.7226 26.3988 20.3392 26.9005 19.8928 27.4838C18.7379 28.989 17.1584 31.0487 16.2656 33.214C14.9578 36.3851 15.9744 39.8323 19.1285 42.9314C19.1819 46.7099 21.4893 49.497 23.7214 52.1928C24.8982 53.6163 26.0118 54.9606 26.7179 56.3746C27.2007 57.3276 27.8364 58.2326 28.5982 59.068C27.5792 60.626 26.9192 62.6928 26.7931 64.9662C26.6257 68.0197 27.4943 70.9075 29.115 72.6888C30.0685 73.7354 31.2161 74.3235 32.4341 74.3836C32.5069 74.3884 32.5797 74.3884 32.6525 74.3884C34.8264 74.3884 36.8838 72.696 38.0606 69.9185C38.1188 69.7817 38.0751 69.6233 37.9562 69.5344C37.8374 69.4456 37.6699 69.448 37.5535 69.5416C36.515 70.3746 35.3238 70.7779 34.1203 70.7227C30.9225 70.5547 28.4914 67.1627 28.7025 63.1633C28.7559 62.0231 29.0398 60.9356 29.4886 59.9634C32.0168 62.2727 35.3723 63.7875 38.0824 64.8509C38.5264 65.4775 39.0189 66.092 39.5381 66.6826C40.2539 74.2995 39.9409 87.3754 30.003 90.3185C29.9957 90.3185 29.9933 90.3257 29.986 90.3281C29.9642 90.3353 29.9472 90.3473 29.9278 90.3593C29.9108 90.3713 29.8914 90.3785 29.8768 90.3929C29.8623 90.4073 29.8501 90.4217 29.838 90.4385C29.8259 90.4553 29.8113 90.4721 29.8016 90.4913C29.7943 90.5081 29.7895 90.5273 29.7846 90.5441C29.7774 90.5657 29.7725 90.5873 29.7701 90.6113C29.7701 90.6162 29.7676 90.6233 29.7676 90.6282C29.7676 92.1309 29.2072 93.0551 28.6152 94.0345C27.9261 95.1748 27.2128 96.3511 27.5258 98.3916C27.9407 101.008 30.3451 102.328 31.4685 102.809C31.2671 103.027 31.1118 103.306 31.0317 103.639C30.8837 104.266 31.005 104.933 31.3496 105.459C30.5028 106.042 29.9278 107.13 29.9132 108.239C29.8962 109.521 30.6071 110.646 31.8688 111.35C32.2934 112.68 33.094 113.16 33.703 113.328C34.8021 113.63 36.0565 113.16 36.9396 112.495C37.5365 113.599 38.4803 113.995 39.3271 113.995C39.4896 113.995 39.6498 113.981 39.8026 113.954C40.9866 113.743 42.2046 112.725 42.3308 111.172C43.3158 110.543 43.8302 109.403 43.6919 108.253C45.1549 108.916 46.4069 109.965 47.6224 110.985C49.4688 112.536 51.2133 114 53.5109 114C55.8086 114 57.5749 112.533 59.4285 110.978C60.6441 109.957 61.8985 108.908 63.3615 108.248C63.2523 109.302 63.6405 110.493 64.7129 111.172C64.8391 112.725 66.057 113.743 67.2411 113.954C67.3939 113.981 67.554 113.995 67.7166 113.995C68.5634 113.995 69.5072 113.597 70.104 112.495C70.9872 113.16 72.2391 113.633 73.3406 113.328C73.9472 113.16 74.7479 112.68 75.1749 111.35C76.4438 110.644 77.1596 109.511 77.1377 108.224C77.1207 107.101 76.5554 106.037 75.6965 105.459C76.0411 104.933 76.1624 104.266 76.0119 103.642C75.9343 103.308 75.779 103.032 75.5752 102.813C76.7034 102.333 79.12 101.013 79.5179 98.3916C79.8284 96.3535 79.1224 95.1748 78.4382 94.0369H78.4285ZM79.5858 64.9998C79.7435 67.8852 78.938 70.5979 77.4313 72.2543C76.5967 73.1713 75.6043 73.685 74.5635 73.7378C72.8651 73.8218 71.2298 72.6936 70.0968 70.7227C70.9945 71.1956 71.9601 71.4165 72.9452 71.3685C76.5021 71.1812 79.2097 67.4844 78.9817 63.1321C78.9356 62.1791 78.7488 61.2549 78.4382 60.3955C79.0884 61.7158 79.5009 63.3074 79.5858 64.9998ZM19.4003 21.9457C19.4003 21.396 19.6672 20.8055 19.9244 20.2341C20.1573 19.7156 20.3999 19.1803 20.4557 18.6546C20.5552 17.86 20.9337 16.7389 23.0591 16.17C23.1877 16.1364 23.2799 16.0283 23.2968 15.8987C23.3138 15.7691 23.2507 15.6419 23.1367 15.577C22.2002 15.0441 21.63 14.3768 21.5766 13.7454C21.5427 13.3421 21.7174 12.97 22.0813 12.6724C23.1755 11.7842 25.2912 9.21316 26.1089 7.58558C26.4655 6.87501 27.1133 6.54614 27.5937 6.3949C28.324 6.16685 29.0592 6.22686 29.3843 6.3997C29.4765 6.45011 29.5905 6.45251 29.6827 6.4045C29.7774 6.35889 29.8429 6.27007 29.8598 6.16685C30.0564 4.96417 30.2966 4.70971 31.4563 4.47685C32.8684 4.18159 34.4066 2.85888 34.9598 1.80983C35.1539 1.43774 35.9133 0.933627 36.9396 0.729579C37.4904 0.619154 38.4633 0.537534 39.3343 1.00804C38.6307 1.39693 38.1673 1.87945 38.0363 2.40757C37.9393 2.79646 38.0266 3.18775 38.2741 3.48302C38.4415 3.68467 38.7132 3.88392 39.0286 4.11437C39.5964 4.53207 40.3048 5.05059 40.4553 5.65793C40.5523 6.05882 40.2005 6.77899 39.8608 7.47515C39.4872 8.23853 39.1087 9.02111 39.1305 9.70287C38.5895 9.79889 38.1406 10.099 37.767 10.5215C37.141 8.27454 36.0322 6.23406 35.2194 5.36266C35.0981 5.23063 34.8919 5.22343 34.7584 5.34346C34.625 5.46348 34.6177 5.66993 34.739 5.79956C35.5591 6.67817 36.7116 8.85787 37.272 11.2032C37.0658 11.5489 36.8838 11.921 36.7261 12.3027C36.2069 11.208 35.2752 9.60925 34.3072 8.45938C34.1907 8.32015 33.9845 8.30335 33.8462 8.41857C33.7079 8.5338 33.6885 8.73785 33.8049 8.87468C34.6201 9.84451 35.4475 11.2104 35.974 12.2499C34.9404 11.6065 33.851 11.2272 32.8369 12.1875C32.3637 12.646 31.6043 13.3781 30.8959 13.9663C29.9448 13.5582 28.3459 12.4947 27.1352 11.4481C26.9993 11.3305 26.7931 11.3449 26.6742 11.4793C26.5553 11.6137 26.5699 11.8178 26.7057 11.9354C27.8533 12.9244 29.297 13.9063 30.3208 14.4128C30.0127 14.636 29.7313 14.8017 29.5226 14.8593C28.7171 14.7657 28.0693 14.9217 27.5937 15.3274C27.1133 15.7379 26.8513 16.3692 26.8367 17.1542C26.8173 18.2465 28.6055 20.0613 30.8813 21.0335C30.7042 20.9879 30.5271 20.9375 30.3475 20.8847C29.3697 20.6062 28.358 20.3181 27.2613 20.6662C26.1331 21.0239 25.2524 21.9553 24.4736 22.7763C23.8039 23.4845 23.1683 24.1542 22.6248 24.1542C21.3316 24.1542 19.4051 22.8291 19.4051 21.9385L19.4003 21.9457ZM20.6425 24.2071C21.3 24.5719 22.0231 24.8096 22.6199 24.8096C23.4473 24.8096 24.1412 24.0774 24.9467 23.2276C25.6697 22.4642 26.4898 21.5976 27.4554 21.2904C28.3628 21.0047 29.2363 21.252 30.1607 21.516C31.2477 21.8257 32.371 22.145 33.6788 21.6745C33.8243 21.6217 33.9141 21.4752 33.8898 21.3216C33.8656 21.1703 33.7394 21.0551 33.5841 21.0455C30.4179 20.8847 27.4676 18.1408 27.4845 17.1734C27.4918 16.7581 27.5889 16.1844 28.0135 15.8243C28.3531 15.5338 28.8505 15.4282 29.4935 15.5146C29.5299 15.5194 29.5663 15.5194 29.6027 15.5098C30.0078 15.4258 30.5392 15.0849 31.1288 14.6144C31.7984 14.0791 32.5457 13.3733 33.2857 12.6556C34.1592 11.8274 35.1005 12.3939 36.5466 13.4285H36.549C36.5539 13.4309 36.5587 13.4309 36.5636 13.4357C36.6097 13.4646 36.663 13.479 36.7164 13.4838C36.7237 13.4838 36.7286 13.491 36.7358 13.491C36.7625 13.491 36.7892 13.4838 36.8135 13.4766C36.8208 13.4766 36.8256 13.4766 36.8329 13.4766C36.8329 13.4766 36.8353 13.4766 36.8377 13.4742C36.8402 13.4742 36.8426 13.4742 36.845 13.4742C36.8887 13.4597 36.9275 13.4333 36.959 13.4045C36.9663 13.3997 36.9688 13.3901 36.9736 13.3853C37.0003 13.3565 37.0197 13.3253 37.0343 13.2917C37.0343 13.2869 37.0415 13.2845 37.0415 13.2797C37.3133 12.5163 37.5874 11.9138 37.8737 11.4529C37.8835 11.4409 37.8907 11.4289 37.898 11.4169C38.3784 10.6631 38.8928 10.3102 39.4848 10.3102C39.856 10.3102 40.1957 10.4831 40.4989 10.8215C41.2923 11.7121 41.666 13.563 41.4282 15.4282C41.4064 15.6059 41.5325 15.7667 41.7121 15.7883C41.8892 15.8099 42.0542 15.6851 42.076 15.5074C42.3405 13.4381 41.9134 11.4313 40.9866 10.3918C40.6348 9.99814 40.2175 9.76529 39.7662 9.69567C39.7468 9.17235 40.1107 8.42817 40.4359 7.76322C40.8459 6.92782 41.2317 6.13804 41.0764 5.51149C40.8702 4.6785 40.0574 4.08076 39.4047 3.60305C39.1354 3.4062 38.8831 3.22136 38.7642 3.07973C38.6477 2.9405 38.6113 2.76285 38.6574 2.57081C38.7666 2.12911 39.2907 1.685 40.0913 1.35372C41.1152 0.931226 42.0784 1.07046 42.9543 1.77382C45.1525 3.53823 46.3608 8.529 45.8124 11.3833C45.7396 11.5657 45.6669 11.7409 45.6013 11.9426C45.1695 13.2749 45.252 14.1823 45.3199 14.9097C45.3587 15.3418 45.3903 15.7211 45.3199 16.122C44.8735 16.5181 42.7966 18.4121 40.7197 21.2376C40.8216 19.6028 40.3922 17.6295 39.7589 16.1604C39.6886 15.9971 39.4945 15.9203 39.3295 15.9899C39.1621 16.0596 39.0869 16.2492 39.1572 16.4148C39.9263 18.2081 40.3995 20.9063 39.8099 22.4835C37.3812 23.2852 34.9622 24.2551 33.0043 25.5754C32.2327 25.4697 30.1583 25.7386 27.1303 26.1611C25.4805 26.3916 23.9228 26.6076 23.2604 26.6268C22.0837 26.6604 21.3292 25.7458 20.6304 24.2143L20.6425 24.2071ZM47.7631 14.1487C47.8262 14.2447 47.9305 14.2999 48.0397 14.2999C48.1004 14.2999 48.161 14.2831 48.2144 14.2495C49.4178 13.4958 51.0095 11.8514 51.5384 11.2896C52.1231 11.6113 52.8777 11.8562 53.8846 11.969C54.069 11.9906 54.2267 11.861 54.2461 11.6833C54.2655 11.5057 54.1369 11.3449 53.9573 11.3256C50.9803 10.9944 50.4951 9.48442 50.0681 8.15211C49.8861 7.58318 49.7114 7.03825 49.362 6.62776C50.6601 5.60272 51.9169 5.67233 53.5085 6.8318C53.5716 6.87741 53.6516 6.89902 53.7293 6.89422C54.5785 6.827 55.5635 7.58798 56.141 8.75705C56.6068 9.69807 56.682 10.6367 56.3957 11.4289C56.2938 11.0976 56.1337 10.7567 55.8789 10.4086C54.9982 9.20596 53.1955 8.01288 51.599 8.17371C51.4195 8.19052 51.2885 8.34896 51.3055 8.5266C51.3249 8.70424 51.4874 8.83627 51.6621 8.81706C52.9699 8.68743 54.5639 9.71728 55.3476 10.7879C55.8086 11.4193 55.9663 12.0194 55.7795 12.4395C55.3864 13.3205 54.7604 13.5798 53.6225 14.0479C53.0621 14.2783 52.3657 14.5664 51.5432 14.9985C49.9007 15.8675 48.4643 15.8291 47.307 15.7955C46.8169 15.7811 46.3923 15.7715 46.0284 15.8291C46.0454 15.4954 46.0162 15.1761 45.9847 14.8449C45.9192 14.1391 45.844 13.3397 46.237 12.1346C46.6179 10.9632 47.1299 10.1686 47.7219 9.24676C48.098 8.66103 48.5177 7.99847 48.952 7.17268C49.1606 7.47995 49.2965 7.89045 49.4445 8.34896C49.709 9.16995 50.0365 10.1734 50.9876 10.9272C50.4126 11.5321 48.9399 13.0324 47.865 13.7046C47.7122 13.8006 47.6661 13.9999 47.7631 14.1511V14.1487ZM34.0791 71.3685C35.0617 71.4165 36.0298 71.1956 36.9275 70.7227C35.7945 72.6936 34.1446 73.8242 32.4584 73.7378C31.4175 73.685 30.4276 73.1737 29.593 72.2543C28.0863 70.5979 27.2807 67.8876 27.4384 64.9998C27.5282 63.3482 27.9286 61.795 28.5497 60.4939C28.2609 61.3245 28.0838 62.2151 28.0402 63.1297C27.8121 67.4844 30.5198 71.1812 34.0767 71.3685H34.0791ZM38.5507 64.402C37.0731 62.2895 35.0933 57.0755 33.5259 52.0704C33.5211 52.0488 33.5162 52.0271 33.5065 52.0079C32.4996 48.7816 31.6674 45.6513 31.2525 43.498C31.3665 43.3371 31.4806 43.1763 31.597 43.013C33.703 40.0508 36.0832 36.6996 36.1827 32.7194C40.0622 31.8096 44.6139 31.704 46.0405 34.083C46.1327 34.2366 46.3341 34.287 46.4893 34.1958C46.6446 34.1046 46.6956 33.9053 46.6034 33.7517C45.2107 31.4279 41.6902 31.2887 38.9267 31.5936C45.5989 28.6841 56.9125 22.3586 56.9125 18.2033C56.9125 18.0256 56.7669 17.8792 56.585 17.8792C56.403 17.8792 56.2574 18.0232 56.2574 18.2033C56.2574 22.4643 41.8382 30.0812 35.7508 32.1577C30.9638 33.7805 28.637 36.5939 28.637 40.7565C28.637 40.9342 28.7826 41.0806 28.9646 41.0806C29.1465 41.0806 29.2921 40.9366 29.2921 40.7565C29.2921 37.038 31.3326 34.4767 35.5154 32.9355C35.3335 36.6228 33.0722 39.8131 31.0633 42.641C30.9347 42.821 30.8061 43.001 30.6799 43.1811C30.6508 43.2099 30.629 43.2411 30.612 43.2795C29.6997 44.571 28.8505 45.8361 28.2876 47.0916C28.2367 47.1468 28.2051 47.2164 28.2003 47.2932C27.487 48.9736 27.3171 50.6348 28.2609 52.308C28.3216 52.4136 28.4332 52.4736 28.5472 52.4736C28.6006 52.4736 28.6564 52.4616 28.7074 52.4328C28.8651 52.3464 28.9209 52.1496 28.8335 51.9935C28.1396 50.7645 28.1275 49.533 28.5278 48.2631C29.9254 51.7439 31.9319 52.3848 32.9703 52.464C34.3654 56.8931 36.0759 61.4541 37.4807 63.9195C34.9404 62.8801 32.0022 61.4469 29.7871 59.3705C30.3281 58.4174 31.0414 57.6109 31.8979 57.0539C32.0362 56.9627 32.0847 56.7827 32.0095 56.6362C31.9343 56.4898 31.7596 56.4226 31.6019 56.4826C30.6096 56.8595 29.7191 57.5724 28.9791 58.5303C28.3022 57.7669 27.732 56.9507 27.2977 56.0937C26.5577 54.615 25.4247 53.2418 24.2212 51.7895C22.0352 49.1489 19.7764 46.417 19.7764 42.8018C19.7764 42.7154 19.74 42.6314 19.6793 42.5713C16.6513 39.6451 15.6542 36.4115 16.8673 33.466C17.7286 31.3775 19.2765 29.3587 20.4096 27.8823C20.8172 27.3518 21.1593 26.9029 21.4019 26.5428C21.892 26.9917 22.484 27.275 23.2192 27.275C23.2435 27.275 23.2677 27.275 23.292 27.275C23.9519 27.2558 25.3955 27.0589 26.958 26.8405C26.5941 27.2486 26.1525 27.7095 25.66 28.2256C23.0955 30.907 19.5847 34.5775 19.5847 37.9046C19.5847 38.0823 19.7303 38.2287 19.9122 38.2287C20.0942 38.2287 20.2398 38.0847 20.2398 37.9046C20.2398 34.8343 23.7894 31.1255 26.138 28.6697C26.8731 27.9015 27.5064 27.2366 27.931 26.706C29.4304 26.4972 31.1263 26.2715 32.1551 26.2091C30.8376 27.2534 29.8016 28.4969 29.2314 30.0164C29.1684 30.1845 29.2557 30.3693 29.4255 30.4317C29.4619 30.4461 29.5008 30.4509 29.5396 30.4509C29.673 30.4509 29.7968 30.3693 29.8453 30.2397C31.6067 25.5298 38.3517 23.5445 43.7695 21.9481C45.9701 21.3 48.0519 20.6878 49.5901 19.9677C49.7527 19.8908 49.823 19.6988 49.7454 19.538C49.6677 19.3771 49.4736 19.3075 49.3111 19.3843C47.8165 20.0853 45.7591 20.6902 43.5827 21.3312C42.7093 21.588 41.8018 21.8569 40.8871 22.145C43.1241 18.9738 45.4776 16.8637 45.8124 16.5709C46.1375 16.422 46.6446 16.4316 47.29 16.4508C48.4546 16.4845 50.0559 16.5277 51.8514 15.5794C52.6472 15.1617 53.2998 14.8929 53.8773 14.6528C55.071 14.1607 55.8619 13.8294 56.3618 12.7468C57.5385 11.4457 57.3298 9.69567 56.7306 8.48339C56.0536 7.11027 54.8963 6.21726 53.8021 6.25327C51.8975 4.90415 50.2646 4.94496 48.6657 6.3781C48.6657 6.3781 48.6633 6.3781 48.6608 6.3805C48.6511 6.3877 48.6487 6.3997 48.6414 6.4093C48.622 6.43091 48.6026 6.45011 48.5881 6.47892C48.0931 7.48475 47.6054 8.24093 47.176 8.90829C46.977 9.21556 46.7926 9.51323 46.6131 9.8133C46.6058 7.45595 45.8731 4.56327 44.5872 2.63322C45.8537 2.18912 50.102 0.892818 53.3848 2.22273C53.443 2.24673 53.5061 2.25393 53.5691 2.24193C72.8457 -1.34931 84.1763 18.2177 86.3842 27.6951C86.3914 27.7239 86.4011 27.7503 86.4157 27.7767C86.6438 28.192 87.0029 28.6241 87.4202 29.1258C88.2208 30.0884 89.3175 31.4087 90.1667 33.4684C91.307 36.2363 90.4918 39.261 87.8763 42.0432C87.6798 36.4163 85.3821 31.812 82.507 28.0552C82.4003 25.5034 80.7262 20.0421 79.1418 16.1676C79.0739 16.0019 78.8798 15.9203 78.7172 15.9899C78.5498 16.0572 78.4697 16.2444 78.5377 16.41C79.8891 19.718 81.3667 24.3871 81.7622 27.1189C79.5664 24.4351 77.1426 22.1954 75.1215 20.3398C72.5084 17.9392 70.4437 16.0428 70.4437 14.6552C70.4437 13.8846 70.6572 13.3517 71.0818 13.0661C71.9965 12.4491 73.6367 13.0805 73.6536 13.0853C73.821 13.1501 74.0103 13.0685 74.0782 12.9028C74.1437 12.7372 74.0637 12.5499 73.8963 12.4827C73.8162 12.4515 71.9213 11.7217 70.7179 12.5283C70.104 12.9412 69.7935 13.6542 69.7935 14.6528C69.7935 16.3212 71.8437 18.2033 74.6799 20.8103C79.6901 25.4121 87.26 32.369 87.26 42.7994C87.26 46.417 84.9988 49.1465 82.8151 51.7871C81.6142 53.2394 80.4787 54.6101 79.7387 56.0889C79.3044 56.9507 78.7488 57.7501 78.0621 58.5207C77.3221 57.5676 76.4293 56.8571 75.4345 56.4802C75.2792 56.4202 75.1021 56.4874 75.0269 56.6338C74.9517 56.7803 74.9978 56.9603 75.1385 57.0515C75.9925 57.6085 76.7034 58.4126 77.2445 59.3609C75.4636 61.0533 73.0519 62.484 69.5605 63.9147C70.9726 61.4397 72.6783 56.8835 74.0661 52.464C75.0997 52.3848 77.0989 51.7439 78.5158 48.2463C78.921 49.521 78.9089 50.7597 78.2077 51.9935C78.1179 52.1496 78.1762 52.3464 78.3314 52.4328C78.3824 52.4616 78.4382 52.4736 78.4916 52.4736C78.6056 52.4736 78.7172 52.4136 78.7779 52.308C79.7338 50.6252 79.5591 48.9568 78.8361 47.2644C78.8288 47.2092 78.8046 47.1612 78.773 47.1156C78.1179 45.6465 77.0649 44.1605 75.9804 42.6338C73.986 39.8323 71.7442 36.6756 71.5282 33.0315C73.7386 34.2582 76.2109 34.5463 78.0548 34.7503C79.4524 34.9064 80.6606 35.0408 81.0052 35.5113C81.0683 35.5977 81.1677 35.6433 81.2696 35.6433C81.3351 35.6433 81.4031 35.6241 81.4613 35.5809C81.6069 35.4753 81.6384 35.2736 81.5341 35.1296C81.0197 34.4286 79.8066 34.2942 78.1276 34.107C76.0944 33.8813 73.5639 33.598 71.3584 32.1889C69.3301 30.895 67.3842 27.9447 65.6664 25.3425C64.002 22.8195 62.4322 20.4382 60.9255 19.7204C60.763 19.6436 60.5689 19.7108 60.4888 19.8716C60.4112 20.0325 60.4791 20.2245 60.6417 20.3037C61.9834 20.9423 63.5046 23.2516 65.1181 25.6978C66.6296 27.9879 68.1849 30.3309 69.8832 31.8552C67.1052 31.3391 62.1556 30.8854 60.4379 33.7517C60.3457 33.9053 60.3966 34.1046 60.5519 34.1958C60.7072 34.2846 60.9085 34.2366 61.0007 34.083C62.4274 31.704 66.9814 31.8096 70.8586 32.7194C70.9581 36.6972 73.3406 40.046 75.4491 43.0082C75.5582 43.1619 75.665 43.3131 75.7742 43.4643C75.3714 45.6152 74.5416 48.7672 73.5299 52.0151C73.525 52.0247 73.5226 52.0367 73.5202 52.0488C71.9625 57.0491 69.9851 62.2703 68.493 64.4044C68.0417 65.0502 67.5322 65.6815 66.9936 66.2913C66.979 66.3033 66.9693 66.3177 66.9596 66.3297C65.465 68.0221 63.757 69.5536 62.4104 70.7587C61.8766 71.2364 61.4059 71.6565 61.0468 72.0022C59.2272 73.721 56.9101 75.4782 53.5182 75.4782C50.1263 75.4782 47.8311 73.721 46.0138 72.0046C45.6523 71.6565 45.184 71.2388 44.6478 70.7587C42.8063 69.1119 40.2806 66.8554 38.5652 64.4044L38.5507 64.402ZM32.7568 51.7823C31.7523 51.6118 30.0539 50.7789 28.8821 47.3389C29.3333 46.3378 29.9909 45.308 30.7333 44.2325C31.1603 46.2634 31.8858 48.9688 32.7544 51.7799L32.7568 51.7823ZM74.2675 51.7703C75.1361 48.9472 75.8591 46.2298 76.2764 44.2037C77.0261 45.284 77.6885 46.3186 78.1446 47.3244C77.2445 49.9315 75.8518 51.511 74.2675 51.7703ZM43.1994 107.398C43.1994 107.398 43.1775 107.408 43.1654 107.41C43.1363 107.418 43.1072 107.425 43.0805 107.439C43.0635 107.449 43.0514 107.458 43.0368 107.47C43.015 107.487 42.998 107.504 42.981 107.526C42.9737 107.533 42.9664 107.538 42.9592 107.547C42.9543 107.557 42.9543 107.566 42.9495 107.576C42.9446 107.588 42.9349 107.595 42.93 107.607C42.9252 107.622 42.9276 107.636 42.9228 107.651C42.9179 107.67 42.9155 107.687 42.9131 107.706C42.9131 107.735 42.9155 107.761 42.9228 107.79C42.9252 107.802 42.9228 107.814 42.9252 107.823C43.2503 108.776 42.981 110.073 41.8407 110.704C41.7388 110.759 41.6757 110.865 41.6732 110.978C41.6417 112.286 40.6421 113.148 39.674 113.321C38.6647 113.501 37.7937 112.956 37.3472 111.859C37.3084 111.76 37.2211 111.686 37.1168 111.664C37.0925 111.659 37.0682 111.657 37.044 111.657C36.9615 111.657 36.8838 111.686 36.8232 111.743C36.1026 112.404 34.8676 112.985 33.868 112.711C33.1911 112.524 32.7131 111.962 32.4462 111.045C32.422 110.961 32.3637 110.889 32.2837 110.848C31.1555 110.262 30.5416 109.341 30.5562 108.253C30.5683 107.235 31.1506 106.244 31.9683 105.845C32.0605 105.8 32.126 105.713 32.1454 105.612C32.1648 105.512 32.1332 105.408 32.0629 105.334C31.6892 104.94 31.5291 104.335 31.6577 103.793C31.7475 103.414 31.9634 103.135 32.2473 103.032C32.2667 103.025 32.2788 103.01 32.2958 103.001C32.3104 102.991 32.3225 102.984 32.337 102.974C32.3831 102.936 32.4244 102.89 32.4438 102.83C32.6039 102.35 32.8829 102.024 33.293 101.836C34.0281 101.5 35.0593 101.69 35.7775 101.978C35.9424 102.045 36.1341 101.966 36.2021 101.803C36.4253 101.265 37.0512 100.891 37.7937 100.847C38.3202 100.816 38.9825 100.97 39.2713 101.486C39.3174 101.568 39.395 101.625 39.4872 101.644C39.5794 101.666 39.674 101.644 39.7517 101.589C40.7367 100.879 42.0736 100.886 42.7311 101.604C42.7748 101.652 42.833 101.685 42.8961 101.702C43.7113 101.896 44.4125 102.444 44.7764 103.166C45.0676 103.745 45.0943 104.362 44.8541 104.902C44.8298 104.957 44.8225 105.015 44.8298 105.075C44.9147 105.718 44.7691 106.333 44.4295 106.762C44.1407 107.127 43.7283 107.343 43.1994 107.403V107.398ZM76.4729 108.236C76.4826 108.868 76.2691 110.049 74.7357 110.846C74.6557 110.886 74.5974 110.958 74.5732 111.043C74.3087 111.96 73.8308 112.521 73.1514 112.709C72.1494 112.985 70.9168 112.401 70.1962 111.743C70.1186 111.671 70.007 111.64 69.9027 111.664C69.7983 111.688 69.711 111.76 69.6722 111.859C69.2282 112.953 68.3571 113.501 67.3454 113.321C66.3773 113.148 65.3777 112.288 65.3462 110.978C65.3437 110.862 65.2806 110.759 65.1787 110.704C64.0578 110.085 63.7861 108.781 64.0966 107.819C64.1015 107.807 64.0966 107.795 64.0991 107.783C64.1039 107.756 64.1063 107.732 64.1063 107.703C64.1063 107.684 64.1015 107.665 64.0966 107.646C64.0942 107.634 64.0966 107.619 64.0894 107.607C64.0845 107.595 64.0748 107.586 64.0675 107.574C64.0627 107.564 64.0627 107.552 64.0554 107.542C64.0505 107.535 64.0408 107.53 64.036 107.523C64.019 107.502 63.9996 107.485 63.9778 107.468C63.9632 107.456 63.9511 107.446 63.9341 107.437C63.9074 107.422 63.8807 107.415 63.8516 107.408C63.8395 107.406 63.8298 107.398 63.8176 107.396C63.2911 107.336 62.8762 107.12 62.5875 106.755C62.2478 106.325 62.1023 105.711 62.1872 105.068C62.1945 105.01 62.1872 104.95 62.1629 104.895C61.9227 104.355 61.9494 103.738 62.2406 103.159C62.6021 102.437 63.3057 101.889 64.1209 101.695C64.1864 101.678 64.2446 101.644 64.2907 101.594C64.6086 101.236 65.1108 101.059 65.6567 101.059C66.2026 101.059 66.7801 101.234 67.2653 101.584C67.3405 101.64 67.4376 101.659 67.5298 101.64C67.622 101.62 67.6996 101.56 67.7457 101.481C68.0344 100.965 68.6992 100.811 69.2233 100.843C69.9657 100.886 70.5893 101.26 70.8149 101.798C70.8829 101.964 71.0745 102.04 71.2395 101.973C71.9577 101.685 72.9913 101.495 73.724 101.832C74.134 102.019 74.4106 102.345 74.5732 102.825C74.5926 102.883 74.6314 102.931 74.6799 102.969C74.6921 102.979 74.7066 102.986 74.7212 102.996C74.7382 103.005 74.7527 103.022 74.7721 103.027C75.056 103.133 75.2719 103.409 75.3617 103.788C75.4903 104.331 75.3326 104.935 74.9565 105.329C74.8862 105.404 74.8546 105.507 74.874 105.61C74.8934 105.711 74.959 105.797 75.0512 105.843C75.8712 106.239 76.4535 107.221 76.4705 108.236H76.4729ZM78.8628 98.2955C78.4867 100.778 75.9125 101.983 75.0657 102.314C74.8328 101.827 74.4834 101.462 74.0054 101.243C73.0325 100.799 71.8752 101.073 71.2808 101.27C70.8901 100.655 70.1356 100.245 69.2694 100.194C68.4979 100.151 67.7991 100.408 67.3842 100.881C66.1905 100.185 64.6983 100.264 63.8807 101.09C62.9223 101.347 62.0998 102.007 61.6655 102.871C61.3016 103.596 61.2579 104.374 61.5394 105.07C61.4569 105.852 61.6534 106.606 62.0829 107.149C62.2915 107.413 62.5535 107.615 62.852 107.766C61.4108 108.462 60.1855 109.482 58.9967 110.481C57.2376 111.955 55.5781 113.349 53.5036 113.349C51.4292 113.349 49.789 111.96 48.0373 110.488C46.8484 109.489 45.6208 108.464 44.1771 107.766C44.478 107.615 44.74 107.413 44.9463 107.149C45.3757 106.604 45.5722 105.85 45.4897 105.07C45.7712 104.374 45.7275 103.596 45.3636 102.871C44.9293 102.007 44.1068 101.347 43.146 101.09C42.3186 100.274 40.8265 100.194 39.6449 100.881C39.23 100.408 38.541 100.144 37.7597 100.194C36.8935 100.242 36.1365 100.655 35.7483 101.27C35.1539 101.071 33.9966 100.797 33.0237 101.243C32.5457 101.462 32.1963 101.827 31.9634 102.314C31.1215 101.98 28.5594 100.775 28.1663 98.2955C27.8897 96.4879 28.5133 95.4581 29.1708 94.3706C29.7531 93.408 30.3475 92.4094 30.4057 90.8682C40.2029 87.7811 40.875 75.3294 40.2563 67.4868C41.598 68.9127 43.0295 70.1946 44.1941 71.2364C44.723 71.7093 45.1865 72.1246 45.5455 72.4679C47.3458 74.1699 49.8788 76.124 53.5036 76.124C57.1285 76.124 59.6809 74.1699 61.4836 72.4679C61.8402 72.1246 62.3036 71.7117 62.8326 71.2388C63.9972 70.197 65.4311 68.9151 66.7728 67.4868C66.1541 75.3294 66.831 87.7811 76.6476 90.8682C76.7034 92.4094 77.293 93.408 77.8705 94.3706C78.5231 95.4605 79.1418 96.4879 78.8652 98.3003L78.8628 98.2955ZM90.6398 76.124C91.9403 75.8239 93.0636 75.567 94.6286 74.5468C95.5942 73.9227 96.2493 72.9528 97.0111 71.8318C97.8336 70.6171 98.7653 69.2416 100.316 68.0149C100.444 67.914 100.476 67.734 100.391 67.5948C100.306 67.4555 100.129 67.4003 99.9784 67.4652C98.8357 67.9621 97.8045 68.2021 96.7103 68.4566C95.2618 68.7927 93.7672 69.1407 91.8772 70.1082C90.089 71.0228 89.269 72.0838 88.1311 73.553C87.3207 74.5996 86.3381 75.8647 84.7125 77.4275C84.7513 77.3218 84.7877 77.221 84.8265 77.1154C85.5471 75.1421 86.2701 73.1521 86.8646 71.1668C87.7938 69.3448 88.9123 68.0821 89.9944 66.8626C91.0692 65.6503 92.0834 64.5077 92.7288 62.9761C93.7405 60.5371 92.9593 58.2518 92.1319 55.8344C91.9087 55.1815 91.6807 54.5165 91.4866 53.8348C91.4429 53.6835 91.2949 53.5875 91.1372 53.6019C90.9795 53.6187 90.8557 53.746 90.846 53.902C90.7441 55.4359 90.0745 56.689 89.2301 58.2782C88.8444 59.0056 88.4198 59.8074 88.0073 60.7196C87.6919 58.8063 87.0053 56.9387 85.7825 55.1407C85.6975 55.0158 85.535 54.9654 85.3918 55.0206C85.2487 55.0759 85.1638 55.2223 85.188 55.3711C85.4452 57.0299 85.0546 58.2206 84.6445 59.4833C84.2369 60.7316 83.8148 62.0207 84.0428 63.7779C84.2442 65.3431 84.8071 66.3057 85.3021 67.1555C85.9232 68.2165 86.457 69.1335 86.224 71.0396C86.224 71.0444 86.224 71.0516 86.224 71.0564C86.224 71.0564 86.224 71.0564 86.224 71.0588C86.224 71.0588 86.224 71.0588 86.224 71.0612C85.6393 73.008 84.926 74.9597 84.2199 76.8969C82.6671 81.1483 81.2017 85.1621 81.2017 88.7965C81.2017 88.8085 81.2065 88.8157 81.209 88.8277C81.209 88.8493 81.2163 88.8709 81.2211 88.8925C81.2284 88.9117 81.2332 88.931 81.2429 88.9478C81.2527 88.967 81.2648 88.9838 81.2793 89.0006C81.2915 89.0174 81.306 89.0294 81.3206 89.0438C81.3376 89.0582 81.3546 89.0678 81.3715 89.0774C81.3909 89.087 81.4104 89.0966 81.4322 89.1014C81.4419 89.1038 81.4516 89.111 81.4613 89.1134C81.4734 89.1158 81.4856 89.1134 81.4953 89.1134C81.505 89.1134 81.5147 89.1206 81.5268 89.1206C81.5365 89.1206 81.5438 89.1158 81.5535 89.1158C81.5778 89.1158 81.602 89.1086 81.6263 89.1014C81.6433 89.0966 81.6603 89.0894 81.6748 89.0822C81.6942 89.0726 81.7136 89.0582 81.7306 89.0438C81.7452 89.0318 81.7597 89.0174 81.7719 89.003C81.7864 88.9862 81.7961 88.9694 81.8058 88.9526C81.8155 88.9334 81.8252 88.9141 81.8325 88.8925C81.8349 88.8829 81.8422 88.8733 81.8446 88.8637C82.5871 85.3061 85.6223 83.9522 88.1311 84.2139C90.1643 84.4203 92.5153 85.7718 92.8356 88.8853C92.2775 88.5133 91.6224 88.3068 90.9552 88.3068C90.2128 88.3068 89.0894 88.5613 87.9588 89.7664C87.2649 90.5057 86.9082 91.3435 86.5928 92.0829C86.0566 93.3432 85.632 94.3394 83.8706 94.7571C83.759 94.7835 83.6716 94.8651 83.6352 94.9732C83.6013 95.0812 83.6231 95.1988 83.6983 95.2828C84.1059 95.751 85.2171 96.0414 86.5249 96.0414C87.4808 96.0414 88.5411 95.8854 89.5067 95.5325C92.098 94.5843 93.5246 92.4814 93.5246 89.6151C93.5246 85.8102 90.8485 83.837 88.1966 83.5681C85.996 83.3449 83.4241 84.2379 82.0339 86.5736C82.3881 84.137 83.2373 81.5276 84.2175 78.8006C87.3158 76.8922 89.0846 76.4816 90.6447 76.124H90.6398ZM88.6478 73.9491C89.7324 72.5471 90.5161 71.5341 92.1756 70.6843C93.9929 69.7529 95.4486 69.4144 96.8583 69.0879C97.4697 68.9463 98.0641 68.8071 98.6731 68.627C97.7439 69.5872 97.0766 70.5739 96.4677 71.4717C95.7471 72.5351 95.1259 73.4546 94.2719 74.0067C92.804 74.9621 91.734 75.207 90.4942 75.4926C89.2884 75.7711 87.9612 76.076 86.0275 77.041C87.1945 75.8311 87.9782 74.8181 88.6503 73.9491H88.6478ZM88.1602 62.0159C88.694 60.674 89.2835 59.5625 89.8052 58.5807C90.4117 57.4428 90.9576 56.4154 91.2609 55.3087C91.3434 55.556 91.4259 55.8008 91.5108 56.0433C92.2969 58.343 93.0418 60.5179 92.1222 62.7312C91.5205 64.162 90.5403 65.2686 89.5019 66.4377C88.8517 67.1723 88.148 67.9669 87.476 68.9103C88.0364 66.5793 88.3349 64.27 88.1602 62.0135V62.0159ZM85.8625 66.8314C85.3748 65.996 84.8702 65.1318 84.6858 63.6939C84.4771 62.0807 84.858 60.914 85.2608 59.6801C85.5665 58.7391 85.8819 57.7741 85.9159 56.6098C86.8597 58.331 87.3425 60.1218 87.4978 61.9559C87.4978 61.9847 87.4978 62.0135 87.5027 62.0423C87.6798 64.2892 87.3668 66.6033 86.7942 68.9391C86.6049 68.1061 86.2386 67.4771 85.8601 66.829L85.8625 66.8314ZM89.2738 94.9252C87.5512 95.5565 85.683 95.4677 84.7392 95.1604C86.241 94.5603 86.7214 93.4296 87.1897 92.3325C87.4978 91.6076 87.8156 90.861 88.4319 90.2033C89.201 89.3847 90.0721 88.9502 90.9504 88.9502C91.6564 88.9502 92.3455 89.2382 92.8647 89.7423C92.8137 92.9519 90.8921 94.3322 89.2738 94.9252ZM81.8568 74.35C82.0145 74.2611 82.0703 74.0643 81.9805 73.9106C81.8907 73.7546 81.6918 73.6994 81.5365 73.7882C79.3747 74.9957 78.2174 78.5533 78.3606 83.3016C77.3076 81.1748 75.4151 79.0599 72.0135 78.2725C71.8995 78.2485 71.7806 78.2821 71.7005 78.3661C71.6204 78.4501 71.5913 78.5701 71.6277 78.683C71.8291 79.3383 71.9553 79.9193 72.079 80.4834C72.3701 81.8277 72.6225 82.9896 73.7822 84.0914C74.6872 84.9628 75.8009 85.0589 76.7835 85.1429C77.5453 85.2077 78.2029 85.2653 78.6032 85.6638C78.6032 85.6638 78.608 85.6662 78.6105 85.6686C78.6323 85.6902 78.6614 85.707 78.6881 85.7214C78.6978 85.7262 78.7051 85.7334 78.7124 85.7358C78.7512 85.7502 78.79 85.7598 78.8337 85.7598C78.8337 85.7598 78.8555 85.7598 78.8676 85.7598C78.9137 85.755 78.9574 85.7406 78.9962 85.719C78.9962 85.719 78.9987 85.719 79.0011 85.719C79.0035 85.719 79.0035 85.7142 79.0084 85.7118C79.0617 85.6782 79.1006 85.6302 79.1273 85.575C79.1321 85.5678 79.137 85.5606 79.1394 85.551C79.1564 85.5054 79.1661 85.4573 79.1612 85.4069C78.5862 79.9313 79.644 75.5958 81.8592 74.3572L81.8568 74.35ZM76.8369 84.4971C75.9222 84.4179 74.9735 84.3363 74.2335 83.6257C73.2169 82.6583 73.0058 81.6885 72.7147 80.3466C72.6273 79.9481 72.5327 79.5136 72.409 79.0431C75.8009 80.0345 77.4531 82.5167 78.2587 84.7252C77.8268 84.5811 77.3415 84.5403 76.8369 84.4971ZM90.4724 105.327C89.3345 104.477 88.2572 103.675 86.6389 103.046C84.6518 102.278 82.854 102.372 81.5438 102.441C80.879 102.477 80.3064 102.506 79.9255 102.41C79.8454 102.391 79.7654 102.4 79.6974 102.437C79.6756 102.449 79.6562 102.461 79.6368 102.475C79.5931 102.511 79.5567 102.561 79.5373 102.619C79.5324 102.633 79.5276 102.65 79.5252 102.667C79.513 102.729 79.5203 102.792 79.5446 102.845C79.5543 102.869 79.5664 102.89 79.581 102.909C79.5858 102.917 79.5907 102.921 79.5955 102.929C79.9376 103.356 80.2263 103.956 80.5345 104.59C81.2963 106.165 82.245 108.126 84.6494 108.815C85.3797 109.021 86.0809 109.103 86.7505 109.103C88.2378 109.103 89.5723 108.7 90.715 108.354C91.6564 108.071 92.4692 107.823 93.1971 107.823C93.3475 107.823 93.4785 107.723 93.5149 107.579C93.5513 107.434 93.4834 107.286 93.3499 107.216C92.2023 106.616 91.324 105.961 90.4772 105.327H90.4724ZM90.5185 107.737C88.8638 108.236 86.9859 108.803 84.8241 108.195C82.7011 107.586 81.8592 105.848 81.1192 104.314C80.9518 103.968 80.7917 103.634 80.6194 103.325C81.5438 103.685 82.5458 104.225 83.5236 104.748C84.2782 105.154 85.0594 105.574 85.8091 105.915C85.9741 105.989 86.1682 105.917 86.2434 105.756C86.3187 105.593 86.2459 105.404 86.0833 105.327C85.3554 104.995 84.5839 104.58 83.8366 104.179C83.1257 103.798 82.4027 103.409 81.6991 103.082C82.9995 103.015 84.6009 102.955 86.3987 103.651C87.9345 104.247 88.9754 105.022 90.0769 105.845C90.7199 106.325 91.3798 106.818 92.1635 107.295C91.637 107.401 91.0862 107.567 90.5185 107.739V107.737ZM60.4524 42.713C60.8091 42.6746 61.1584 42.4633 61.6 42.1921C61.7116 42.1224 61.8329 42.0504 61.9591 41.9784C61.9737 42.7178 62.3328 43.2387 62.3522 43.2651C62.4153 43.3539 62.5147 43.4019 62.6191 43.4019C62.6846 43.4019 62.7501 43.3827 62.8059 43.3443C62.9539 43.2411 62.9878 43.0419 62.8859 42.8954C62.869 42.8714 62.5074 42.3313 62.6433 41.6207C62.9757 41.4671 63.3542 41.3302 63.7812 41.2318C63.6769 41.4311 63.6138 41.6543 63.6138 41.892C63.6138 42.6986 64.2738 43.3563 65.0865 43.3563C65.8993 43.3563 66.5593 42.701 66.5593 41.892C66.5593 41.6543 66.4938 41.4311 66.3846 41.2318C66.8237 41.335 67.2095 41.4815 67.554 41.6471C67.6123 41.8584 67.5977 42.4369 67.292 42.8378C67.1828 42.9818 67.2119 43.1835 67.3575 43.2915C67.4157 43.3347 67.4861 43.3563 67.554 43.3563C67.6535 43.3563 67.7506 43.3107 67.8161 43.2267C68.0781 42.8834 68.2067 42.4273 68.2285 42.0192C68.4105 42.132 68.5852 42.2449 68.7405 42.3505C69.0899 42.5833 69.3907 42.785 69.6794 42.8762C69.711 42.8858 69.7449 42.8906 69.7789 42.8906C69.8056 42.8906 69.8323 42.8882 69.8565 42.881C69.9124 42.8666 71.208 42.5449 72.0159 41.5391C72.1275 41.3999 72.1057 41.1958 71.9625 41.0854C71.8194 40.975 71.6156 40.9966 71.504 41.1382C70.9484 41.8296 70.0749 42.1416 69.791 42.2281C69.6042 42.1488 69.3713 41.9904 69.1068 41.8152C69.0802 41.796 69.0462 41.7744 69.0171 41.7552C69.3907 41.4719 69.8444 41.0398 70.0749 40.5357C70.1501 40.3724 70.0749 40.1804 69.9124 40.1084C69.7474 40.0339 69.5533 40.1084 69.4805 40.2692C69.2524 40.7661 68.7259 41.1886 68.4299 41.3807C67.6414 40.9102 66.5714 40.4348 65.0865 40.4348C63.8686 40.4348 62.9393 40.7541 62.2163 41.107C62.2042 41.1118 62.1945 41.1166 62.1823 41.1238C61.8257 41.3014 61.5175 41.4839 61.2579 41.6423C60.9013 41.8608 60.5907 42.048 60.3821 42.0696C60.2025 42.0888 60.0739 42.2473 60.0933 42.4249C60.1127 42.6026 60.2729 42.737 60.4524 42.7106V42.713ZM65.0865 41.0782C65.5306 41.0782 65.9066 41.4503 65.9066 41.8872C65.9066 42.3241 65.5306 42.7034 65.0865 42.7034C64.6425 42.7034 64.2689 42.3457 64.2689 41.8872C64.2689 41.4287 64.6353 41.0782 65.0865 41.0782ZM63.4876 38.7689C64.7081 38.1903 66.683 38.7809 67.6414 39.2874C67.6899 39.3138 67.7433 39.3258 67.7942 39.3258C67.9107 39.3258 68.0247 39.2634 68.083 39.1553C68.1679 38.9969 68.1072 38.8025 67.9495 38.7184C66.8359 38.1303 64.6522 37.5038 63.2062 38.1879C63.0436 38.2647 62.9733 38.4568 63.0534 38.62C63.131 38.7809 63.3251 38.8505 63.4901 38.7713L63.4876 38.7689ZM50.4174 53.7243C50.745 53.7243 51.1332 53.9716 51.2108 54.0748C51.2739 54.1612 51.3734 54.2069 51.4753 54.2069C51.5408 54.2069 51.6087 54.1876 51.667 54.1444C51.8125 54.0388 51.8441 53.8372 51.7373 53.6931C51.5505 53.4411 50.9731 53.0762 50.4174 53.0762C50.2379 53.0762 50.0899 53.2202 50.0899 53.4003C50.0899 53.5803 50.2355 53.7243 50.4174 53.7243ZM55.549 54.2069C55.6509 54.2069 55.7503 54.1612 55.8134 54.0748C55.8911 53.9716 56.2793 53.7243 56.6068 53.7243C56.7864 53.7243 56.9344 53.5803 56.9344 53.4003C56.9344 53.2202 56.7888 53.0762 56.6068 53.0762C56.0488 53.0762 55.4713 53.4411 55.2869 53.6931C55.1802 53.8372 55.2117 54.0388 55.3573 54.1444C55.4155 54.1876 55.4835 54.2069 55.549 54.2069ZM51.4025 58.6383C51.3224 58.7967 51.3879 58.9912 51.5481 59.0728C52.2711 59.4305 52.8728 59.5913 53.5012 59.5913C54.1296 59.5913 54.7507 59.4329 55.4762 59.0728C55.6387 58.9936 55.7042 58.7991 55.6218 58.6383C55.5393 58.4798 55.3452 58.4126 55.1826 58.4943C53.9452 59.1088 53.1154 59.1256 51.8392 58.4943C51.6791 58.415 51.4826 58.4798 51.4001 58.6383H51.4025ZM45.332 62.7C45.2665 62.8657 45.3514 63.0529 45.5189 63.1177C47.0086 63.6843 48.1732 63.3722 49.3014 63.0697C50.5436 62.736 51.7155 62.4216 53.3459 63.2786C53.4406 63.329 53.557 63.329 53.6516 63.2786C55.2966 62.4216 56.4685 62.736 57.7083 63.0697C58.378 63.2498 59.0622 63.4346 59.824 63.4346C60.3408 63.4346 60.894 63.3482 61.503 63.1201C61.6728 63.0577 61.7553 62.8705 61.6922 62.7024C61.6291 62.5344 61.4399 62.4504 61.2701 62.5152C59.9672 63.0073 58.9554 62.7336 57.8806 62.4456C56.6092 62.1047 55.2942 61.7494 53.5012 62.6304C51.7203 61.7518 50.4053 62.1047 49.1315 62.4456C48.0591 62.7336 47.0474 63.0073 45.7542 62.5152C45.5868 62.4528 45.3975 62.5344 45.332 62.7ZM56.9465 66.1784C56.2768 66.8482 55.3573 66.9898 53.5522 66.7018C53.5182 66.697 53.4818 66.697 53.4478 66.7018C51.6597 66.9898 50.7474 66.8482 50.0753 66.1784C49.9492 66.0512 49.7405 66.0512 49.6144 66.1784C49.4858 66.3033 49.4858 66.5073 49.6144 66.6346C50.1967 67.2179 50.9124 67.4891 51.9751 67.4891C52.4191 67.4891 52.9238 67.4411 53.5036 67.3499C55.4907 67.662 56.5898 67.4603 57.4147 66.6346C57.5409 66.5073 57.5409 66.3033 57.4123 66.1761C57.2837 66.0512 57.0775 66.0512 56.9489 66.1784H56.9465ZM61.4448 16.6021C65.2879 16.9502 69.7304 19.3291 71.783 22.1354C71.8461 22.2242 71.948 22.2698 72.0475 22.2698C72.113 22.2698 72.1809 22.2506 72.2391 22.2098C72.3847 22.1042 72.4187 21.9025 72.3119 21.7585C70.1259 18.7674 65.5815 16.3284 61.5054 15.9587C61.3186 15.9443 61.1657 16.074 61.1487 16.2516C61.1318 16.4292 61.2652 16.5877 61.4448 16.6045V16.6021ZM45.9629 80.9755C45.9507 80.7979 45.793 80.6514 45.6159 80.673C45.4364 80.685 45.2981 80.8387 45.3102 81.0163C45.7178 87.2458 48.6245 92.9711 49.5804 94.2434C49.6435 94.3298 49.743 94.373 49.8424 94.373C49.9104 94.373 49.9783 94.3514 50.0365 94.3082C50.1821 94.2026 50.2112 93.9985 50.1045 93.8569C49.1776 92.6254 46.3608 87.0609 45.9604 80.9755H45.9629ZM61.4156 78.2653C61.2361 78.2509 61.076 78.3805 61.059 78.5581C60.6053 83.4073 58.1499 90.4553 58.1256 90.5273C58.0674 90.6954 58.1572 90.8802 58.327 90.9378C58.361 90.9498 58.3974 90.9546 58.4338 90.9546C58.5696 90.9546 58.6958 90.8706 58.7419 90.7386C58.7662 90.6666 61.2482 83.5465 61.7092 78.6181C61.7262 78.4405 61.5928 78.2821 61.4132 78.2677L61.4156 78.2653ZM38.7909 103.106C37.4419 102.734 36.1924 103.025 35.2655 103.922C34.1761 104.981 33.6642 106.772 34.0475 108.179C34.2732 109.014 34.7948 109.573 35.513 109.756C35.7872 109.825 36.0541 109.857 36.3137 109.857C37.34 109.857 38.2255 109.367 38.8321 108.901C40.0792 107.946 41.0546 106.371 41.0546 105.32C41.0546 103.946 40.2102 103.123 38.7909 103.106ZM38.4294 108.392C37.784 108.887 36.7819 109.415 35.6756 109.132C35.0593 108.976 34.7924 108.436 34.6784 108.013C34.3581 106.834 34.807 105.276 35.7241 104.386C36.0638 104.057 36.5636 103.721 37.2526 103.625C36.8183 103.942 36.4592 104.386 36.2409 104.907C35.8939 105.73 36.0201 106.551 36.5757 107.106C36.7019 107.233 36.9105 107.233 37.0367 107.106C37.1653 106.981 37.1653 106.774 37.0367 106.649C36.5126 106.129 36.7261 105.432 36.8426 105.156C37.1337 104.463 37.8786 103.762 38.7375 103.759H38.752C39.8463 103.759 40.3995 104.29 40.3995 105.327C40.3995 106.081 39.6085 107.494 38.4294 108.397V108.392ZM68.2358 103.106C66.7971 103.123 65.9721 103.927 65.9721 105.322C65.9721 106.376 66.9499 107.948 68.1946 108.904C68.8011 109.369 69.6843 109.859 70.713 109.859C70.9702 109.859 71.2371 109.828 71.5113 109.758C72.2294 109.576 72.7511 109.016 72.9767 108.181C73.3601 106.772 72.8457 104.984 71.7587 103.925C70.8343 103.027 69.5848 102.739 68.2334 103.109L68.2358 103.106ZM72.3483 108.011C72.2319 108.435 71.9674 108.973 71.3511 109.129C70.2423 109.413 69.2427 108.882 68.5973 108.39C67.4182 107.487 66.6272 106.073 66.6272 105.32C66.6272 104.266 67.1658 103.754 68.2771 103.752C68.2819 103.752 68.2843 103.752 68.2916 103.752C69.1529 103.754 69.8954 104.458 70.1865 105.149C70.303 105.425 70.5141 106.121 69.9924 106.642C69.8638 106.77 69.8663 106.974 69.9924 107.098C70.121 107.226 70.3272 107.223 70.4534 107.098C71.009 106.546 71.1352 105.723 70.7882 104.899C70.5699 104.379 70.2084 103.934 69.7765 103.618C70.4631 103.716 70.9653 104.05 71.3026 104.379C72.2197 105.269 72.6686 106.83 72.3483 108.006V108.011ZM0.655086 64.2652C0.655086 54.4733 3.41616 44.9215 8.63987 36.6396C8.73449 36.4883 8.6884 36.2891 8.53554 36.1931C8.38026 36.097 8.17888 36.145 8.08426 36.2963C2.79504 44.679 0 54.3509 0 64.2628C0 76.2176 3.93295 87.4954 11.3743 96.8792C11.4373 96.9608 11.5344 97.0016 11.6314 97.0016C11.7018 97.0016 11.7722 96.98 11.8328 96.932C11.976 96.8216 12.0002 96.6175 11.8886 96.4783C4.53951 87.2122 0.652662 76.0712 0.652662 64.2628L0.655086 64.2652ZM98.9157 36.2963C98.8211 36.145 98.6197 36.0994 98.4644 36.1931C98.3116 36.2867 98.2655 36.4883 98.3601 36.6396C103.584 44.9191 106.345 54.4733 106.345 64.2652C106.345 76.0736 102.46 87.2146 95.109 96.4807C94.9973 96.6224 95.0216 96.824 95.1648 96.9344C95.2254 96.98 95.2958 97.004 95.3661 97.004C95.4632 97.004 95.5602 96.9608 95.6233 96.8816C103.065 87.4978 107 76.22 107 64.2652C107 54.3533 104.205 44.6814 98.9157 36.2987V36.2963Z" fill="black"/>
</svg>
