<svg width="34" height="34" viewBox="0 0 34 34" fill="none" xmlns="http://www.w3.org/2000/svg">
<g clip-path="url(#clip0_324_133)">
<path d="M17 17.0691L9.38692 11.0234H24.613L17 17.0691ZM17 18.8835C16.8248 18.8835 16.6495 18.826 16.5045 18.7107L7.83594 11.827V22.5283C7.83594 22.7755 8.03702 22.9766 8.28418 22.9766H25.7158C25.963 22.9766 26.1641 22.7755 26.1641 22.5283V11.8269L17.4955 18.7108C17.3504 18.826 17.1752 18.8835 17 18.8835ZM34 5.20578V28.7943C34 31.6647 31.6647 34 28.7942 34H5.20578C2.33531 34 0 31.6647 0 28.7942V5.20578C0 2.33531 2.33531 0 5.20578 0H28.7943C31.6647 0 34 2.33531 34 5.20578ZM27.7578 11.4717C27.7578 10.3457 26.8418 9.42969 25.7158 9.42969H8.28418C7.1582 9.42969 6.24219 10.3457 6.24219 11.4717V22.5283C6.24219 23.6543 7.1582 24.5703 8.28418 24.5703H25.7158C26.8418 24.5703 27.7578 23.6543 27.7578 22.5283V11.4717Z" fill="white"/>
</g>
<defs>
<clipPath id="clip0_324_133">
<rect width="34" height="34" fill="white"/>
</clipPath>
</defs>
</svg>
