<svg width="93" height="93" viewBox="0 0 93 93" fill="none" xmlns="http://www.w3.org/2000/svg">
<path d="M46.4319 92.8081C72.0755 92.8081 92.8638 72.0323 92.8638 46.4041C92.8638 20.7758 72.0755 0 46.4319 0C20.7883 0 0 20.7758 0 46.4041C0 72.0323 20.7883 92.8081 46.4319 92.8081Z" fill="#446661"/>
<path d="M70.9603 51.6274H21.9035C19.7897 51.6274 18.0715 49.9087 18.0715 47.7978C18.0715 45.6869 19.7913 43.9681 21.9035 43.9681H70.9603C73.0741 43.9681 74.7923 45.6869 74.7923 47.7978C74.7923 49.9087 73.0725 51.6274 70.9603 51.6274ZM21.9035 44.7494C20.2212 44.7494 18.8532 46.1165 18.8532 47.7978C18.8532 49.479 20.2212 50.8462 21.9035 50.8462H70.9603C72.6426 50.8462 74.0106 49.479 74.0106 47.7978C74.0106 46.1165 72.6426 44.7494 70.9603 44.7494H21.9035Z" fill="white"/>
<path d="M28.1336 67.3756H24.988C24.7723 67.3756 24.5972 67.2006 24.5972 66.9849V51.2383C24.5972 51.0227 24.7723 50.8477 24.988 50.8477C25.2038 50.8477 25.3789 51.0227 25.3789 51.2383V66.5943H27.7428V51.2383C27.7428 51.0227 27.9179 50.8477 28.1336 50.8477C28.3494 50.8477 28.5245 51.0227 28.5245 51.2383V66.9849C28.5245 67.2006 28.3494 67.3756 28.1336 67.3756Z" fill="white"/>
<path d="M67.8741 67.3756H64.7285C64.5127 67.3756 64.3376 67.2006 64.3376 66.9849V51.2383C64.3376 51.0227 64.5127 50.8477 64.7285 50.8477C64.9443 50.8477 65.1194 51.0227 65.1194 51.2383V66.5943H67.4832V51.2383C67.4832 51.0227 67.6583 50.8477 67.8741 50.8477C68.0898 50.8477 68.2649 51.0227 68.2649 51.2383V66.9849C68.2649 67.2006 68.0898 67.3756 67.8741 67.3756Z" fill="white"/>
<path d="M28.1337 61.9022C27.9977 61.9022 27.8648 61.8303 27.7929 61.7022C27.6866 61.5147 27.7538 61.2757 27.9415 61.171L46.2397 50.8961C46.4273 50.7899 46.6665 50.8571 46.7712 51.0461C46.8775 51.2336 46.8103 51.4727 46.6211 51.5774L28.3229 61.8522C28.2619 61.8866 28.1963 61.9022 28.1322 61.9022H28.1337Z" fill="white"/>
<path d="M64.7287 61.9022C64.6646 61.9022 64.5974 61.8865 64.538 61.8522L46.2398 51.5773C46.0522 51.4711 45.985 51.2336 46.0897 51.0461C46.196 50.8586 46.4337 50.7914 46.6213 50.8961L64.9195 61.1709C65.1071 61.2772 65.1743 61.5147 65.068 61.7022C64.9961 61.8303 64.8632 61.9022 64.7272 61.9022H64.7287Z" fill="white"/>
<path d="M29.6143 49.4321H22.6399C22.4241 49.4321 22.249 49.2571 22.249 49.0415C22.249 48.8259 22.4241 48.6509 22.6399 48.6509H29.6143C29.83 48.6509 30.0051 48.8259 30.0051 49.0415C30.0051 49.2571 29.83 49.4321 29.6143 49.4321Z" fill="white"/>
<path d="M33.7322 49.4321H32.3486C32.1329 49.4321 31.9578 49.2571 31.9578 49.0415C31.9578 48.8259 32.1329 48.6509 32.3486 48.6509H33.7322C33.948 48.6509 34.1231 48.8259 34.1231 49.0415C34.1231 49.2571 33.948 49.4321 33.7322 49.4321Z" fill="white"/>
<path d="M69.5891 36.3619H56.791C55.2948 36.3619 54.0769 35.1448 54.0769 33.6495C54.0769 32.1542 55.2948 30.937 56.791 30.937H68.2368C68.329 30.937 68.4228 30.9417 68.5135 30.9511C69.4828 31.0495 69.8877 31.8417 69.8518 32.5354C69.8142 33.2839 69.2671 34.0401 68.2977 34.0401H57.2897C57.074 34.0401 56.8989 33.8651 56.8989 33.6495C56.8989 33.4339 57.074 33.2589 57.2897 33.2589H68.2977C68.8778 33.2589 69.0576 32.7792 69.0716 32.4948C69.0779 32.3776 69.0748 31.7932 68.4338 31.7276C68.3697 31.7214 68.3024 31.7183 68.2368 31.7183H56.791C55.7263 31.7183 54.8586 32.5839 54.8586 33.6495C54.8586 34.7151 55.7247 35.5807 56.791 35.5807H69.5891C69.8049 35.5807 69.98 35.7557 69.98 35.9713C69.98 36.1869 69.8049 36.3619 69.5891 36.3619Z" fill="white"/>
<path d="M51.1675 42.9119H38.3694C36.8732 42.9119 35.6553 41.6947 35.6553 40.1994C35.6553 38.7041 36.8732 37.4869 38.3694 37.4869H49.8151C49.9074 37.4869 49.9996 37.4916 50.0919 37.501C51.0627 37.601 51.4661 38.3916 51.4301 39.0854C51.3926 39.8338 50.8454 40.59 49.8761 40.59H38.8681C38.6523 40.59 38.4772 40.415 38.4772 40.1994C38.4772 39.9838 38.6523 39.8088 38.8681 39.8088H49.8761C50.4561 39.8088 50.6359 39.3291 50.65 39.0447C50.6563 38.9275 50.6531 38.3432 50.0121 38.2776C49.9465 38.2713 49.8808 38.2682 49.8151 38.2682H38.3694C37.3047 38.2682 36.437 39.1338 36.437 40.1994C36.437 41.265 37.3031 42.1306 38.3694 42.1306H51.1675C51.3832 42.1306 51.5583 42.3056 51.5583 42.5212C51.5583 42.7369 51.3832 42.9119 51.1675 42.9119Z" fill="white"/>
<path d="M67.2676 42.9119H54.4695C54.2537 42.9119 54.0786 42.7369 54.0786 42.5212C54.0786 42.3056 54.2537 42.1306 54.4695 42.1306H67.2676C68.3323 42.1306 69.2 41.265 69.2 40.1994C69.2 39.1338 68.3338 38.2682 67.2676 38.2682H55.8218C55.7562 38.2682 55.6905 38.2713 55.6248 38.2776C54.9838 38.3432 54.9823 38.9275 54.9885 39.0447C55.0026 39.3275 55.1824 39.8088 55.7624 39.8088H66.7704C66.9862 39.8088 67.1613 39.9838 67.1613 40.1994C67.1613 40.415 66.9862 40.59 66.7704 40.59H55.7624C54.7915 40.59 54.2459 39.8322 54.2084 39.0854C54.1724 38.3916 54.5773 37.601 55.5467 37.501C55.6389 37.4916 55.7311 37.4869 55.8234 37.4869H67.2692C68.7653 37.4869 69.9832 38.7041 69.9832 40.1994C69.9832 41.6947 68.7653 42.9119 67.2692 42.9119H67.2676Z" fill="white"/>
</svg>
