<svg id="Icons" enable-background="new 0 0 32 32" viewBox="0 0 32 32" xmlns="http://www.w3.org/2000/svg"><g style="fill:none;stroke:#000;stroke-width:2;stroke-linecap:round;stroke-linejoin:round;stroke-miterlimit:10"><path d="m23 31h-14c-4.4 0-8-3.6-8-8v-14c0-4.4 3.6-8 8-8h14c4.4 0 8 3.6 8 8v14c0 4.4-3.6 8-8 8z"/><path d="m7 13h4v12h-4z"/><path d="m20.5 13c-.9 0-1.8.3-2.5.8v-.8h-4v12h2 2v-6.5c0-.8.7-1.5 1.5-1.5s1.5.7 1.5 1.5v6.5h4v-7.5c0-2.5-2-4.5-4.5-4.5z"/><circle cx="9" cy="8" r="2"/></g></svg>