<svg width="33" height="33" viewBox="0 0 33 33" fill="none" xmlns="http://www.w3.org/2000/svg">
<g clip-path="url(#clip0_289_28)">
<path d="M28.5 0H4.5C3.30653 0 2.16193 0.474106 1.31802 1.31802C0.474106 2.16193 0 3.30653 0 4.5L0 28.5C0 29.6935 0.474106 30.8381 1.31802 31.682C2.16193 32.5259 3.30653 33 4.5 33H28.5C29.6935 33 30.8381 32.5259 31.682 31.682C32.5259 30.8381 33 29.6935 33 28.5V4.5C33 3.30653 32.5259 2.16193 31.682 1.31802C30.8381 0.474106 29.6935 0 28.5 0ZM11.25 26.115C11.2502 26.2065 11.2324 26.2972 11.1976 26.3818C11.1627 26.4664 11.1115 26.5433 11.0469 26.6081C10.9823 26.6729 10.9055 26.7243 10.821 26.7594C10.7365 26.7944 10.6459 26.8125 10.5544 26.8125H7.59C7.49833 26.8127 7.40752 26.7949 7.32279 26.7599C7.23805 26.7249 7.16106 26.6736 7.09624 26.6088C7.03142 26.5439 6.98006 26.4669 6.94509 26.3822C6.91013 26.2975 6.89225 26.2067 6.8925 26.115V13.6875C6.8925 13.5025 6.96599 13.3251 7.09679 13.1943C7.2276 13.0635 7.40501 12.99 7.59 12.99H10.5544C10.739 12.9905 10.916 13.0642 11.0464 13.195C11.1768 13.3257 11.25 13.5028 11.25 13.6875V26.115ZM9.07125 11.8125C8.51499 11.8125 7.97122 11.6475 7.50871 11.3385C7.0462 11.0295 6.68571 10.5902 6.47284 10.0763C6.25997 9.56238 6.20427 8.99688 6.31279 8.45131C6.42131 7.90574 6.68918 7.4046 7.08251 7.01126C7.47585 6.61793 7.97699 6.35006 8.52256 6.24154C9.06813 6.13302 9.63363 6.18872 10.1475 6.40159C10.6615 6.61446 11.1007 6.97495 11.4098 7.43746C11.7188 7.89997 11.8837 8.44374 11.8837 9C11.8837 9.74592 11.5874 10.4613 11.06 10.9887C10.5325 11.5162 9.81717 11.8125 9.07125 11.8125ZM26.745 26.1637C26.7452 26.248 26.7288 26.3315 26.6967 26.4094C26.6646 26.4874 26.6173 26.5581 26.5577 26.6177C26.4981 26.6773 26.4273 26.7246 26.3494 26.7567C26.2715 26.7888 26.188 26.8052 26.1038 26.805H22.9163C22.832 26.8052 22.7485 26.7888 22.6706 26.7567C22.5926 26.7246 22.5219 26.6773 22.4623 26.6177C22.4027 26.5581 22.3554 26.4874 22.3233 26.4094C22.2912 26.3315 22.2748 26.248 22.275 26.1637V20.3419C22.275 19.4719 22.53 16.5319 20.0006 16.5319C18.0413 16.5319 17.6419 18.5438 17.5631 19.4475V26.1712C17.5631 26.3397 17.4969 26.5014 17.3786 26.6214C17.2604 26.7414 17.0997 26.81 16.9313 26.8125H13.8525C13.7684 26.8125 13.6851 26.7959 13.6074 26.7637C13.5297 26.7314 13.4591 26.6841 13.3997 26.6246C13.3403 26.565 13.2933 26.4943 13.2613 26.4165C13.2292 26.3387 13.2129 26.2554 13.2131 26.1712V13.6331C13.2129 13.549 13.2292 13.4657 13.2613 13.3879C13.2933 13.3101 13.3403 13.2394 13.3997 13.1798C13.4591 13.1202 13.5297 13.073 13.6074 13.0407C13.6851 13.0085 13.7684 12.9919 13.8525 12.9919H16.9313C17.1013 12.9919 17.2644 13.0594 17.3847 13.1797C17.5049 13.3 17.5725 13.4631 17.5725 13.6331V14.7169C18.3 13.6237 19.3781 12.7838 21.6788 12.7838C26.775 12.7838 26.7412 17.5425 26.7412 20.1562L26.745 26.1637Z" fill="white"/>
</g>
<defs>
<clipPath id="clip0_289_28">
<rect width="33" height="33" fill="white"/>
</clipPath>
</defs>
</svg>
