<svg id="Layer_1" height="512" viewBox="0 0 512 512" width="512" xmlns="http://www.w3.org/2000/svg" data-name="Layer 1"><path d="m426.667 64h-341.334a64.073 64.073 0 0 0 -64 64v256a64.073 64.073 0 0 0 64 64h341.334a64.073 64.073 0 0 0 64-64v-256a64.073 64.073 0 0 0 -64-64zm-341.334 42.667h341.334a21.358 21.358 0 0 1 19.739 13.267l-161.863 145.676a42.581 42.581 0 0 1 -57.085 0l-161.863-145.676a21.358 21.358 0 0 1 19.738-13.267zm341.334 298.666h-341.334a21.357 21.357 0 0 1 -21.333-21.333v-208.1l134.916 121.425a85.155 85.155 0 0 0 114.169 0l134.915-121.425v208.1a21.357 21.357 0 0 1 -21.333 21.333z"/></svg>