<svg width="94" height="93" viewBox="0 0 94 93" fill="none" xmlns="http://www.w3.org/2000/svg">
<path d="M46.6549 92.6774C72.4217 92.6774 93.3098 71.9308 93.3098 46.3387C93.3098 20.7465 72.4217 0 46.6549 0C20.8881 0 0 20.7465 0 46.3387C0 71.9308 20.8881 92.6774 46.6549 92.6774Z" fill="#446661"/>
<path d="M59.3477 44.0951C58.2512 44.0951 57.2096 43.8221 56.3645 43.3072C56.1791 43.1949 56.1225 42.9546 56.2357 42.7705C56.3488 42.5863 56.5907 42.5302 56.7761 42.6425C57.6291 43.1637 58.7271 43.3946 59.8739 43.2916C61.027 43.1886 62.0732 42.7627 62.821 42.0917L62.8351 42.0793C63.7023 41.3085 65.0077 41.1571 66.0885 41.697L66.4812 41.8936C66.6744 41.9903 66.753 42.2244 66.6556 42.4178C66.5582 42.6098 66.3226 42.6878 66.1278 42.591L65.735 42.3944C64.9401 41.9966 63.9866 42.1027 63.3629 42.6581L63.3457 42.6737C62.4754 43.4554 61.2658 43.9532 59.9446 44.0702C59.7451 44.0873 59.5456 44.0967 59.3477 44.0967V44.0951Z" fill="white"/>
<path d="M64.4344 44.2714C64.315 44.2714 64.1972 44.2183 64.1202 44.1154C63.7227 43.5895 63.0048 43.3196 62.2885 43.4242C62.0733 43.4569 61.8738 43.3087 61.8423 43.0949C61.8109 42.8812 61.9586 42.683 62.1738 42.6518C63.1855 42.502 64.172 42.8843 64.7486 43.6457C64.8789 43.8173 64.8444 44.0623 64.67 44.1918C64.5993 44.2449 64.5161 44.2698 64.4344 44.2698V44.2714Z" fill="white"/>
<path d="M56.3222 38.0631C56.2688 38.0631 56.2154 38.0521 56.1635 38.0287C55.9656 37.9414 55.876 37.7104 55.964 37.5139C57.1045 34.9597 61.1795 34.139 66.1043 35.4699C66.3133 35.5261 66.4374 35.7414 66.3808 35.9489C66.3243 36.1564 66.1075 36.2797 65.8985 36.2235C61.434 35.0174 57.6449 35.6774 56.6835 37.8306C56.6191 37.9757 56.4746 38.0631 56.3238 38.0631H56.3222Z" fill="white"/>
<path d="M44.4554 44.0951C44.2575 44.0951 44.0595 44.0857 43.8584 44.0686C42.5357 43.95 41.3277 43.4538 40.4543 42.6706L40.7009 42.3663L40.4385 42.6565C39.8149 42.1011 38.8613 41.995 38.0664 42.3928L37.6737 42.5894C37.4805 42.6862 37.2433 42.6097 37.1459 42.4162C37.0485 42.2243 37.1255 41.9887 37.3203 41.892L37.713 41.6954C38.7938 41.154 40.0992 41.3069 40.9632 42.073L40.9837 42.0917C41.7283 42.7611 42.7745 43.187 43.9291 43.29C45.0728 43.393 46.174 43.1621 47.027 42.6409C47.2108 42.5286 47.4543 42.5848 47.5674 42.7689C47.6805 42.953 47.624 43.1933 47.4386 43.3056C46.595 43.8205 45.5535 44.0935 44.4554 44.0935V44.0951Z" fill="white"/>
<path d="M39.3687 44.2714C39.287 44.2714 39.2038 44.2464 39.1331 44.1934C38.9603 44.0639 38.9242 43.8189 39.0545 43.6473C39.6311 42.8859 40.6176 42.5036 41.6293 42.6534C41.8445 42.6846 41.9922 42.8828 41.9607 43.0965C41.9293 43.3103 41.7298 43.4569 41.5146 43.4257C40.7998 43.3212 40.0804 43.5927 39.6829 44.1169C39.6059 44.2184 39.4881 44.273 39.3687 44.273V44.2714Z" fill="white"/>
<path d="M47.481 38.0631C47.3302 38.0631 47.1872 37.9773 47.1213 37.8306C46.1598 35.6774 42.3708 35.0159 37.9062 36.2235C37.6973 36.2797 37.4805 36.158 37.4239 35.9489C37.3674 35.7414 37.4899 35.5261 37.7004 35.4699C42.6253 34.139 46.7002 34.9613 47.8407 37.5139C47.9287 37.7105 47.8407 37.9414 47.6412 38.0288C47.5894 38.0522 47.536 38.0631 47.4826 38.0631H47.481Z" fill="white"/>
<path d="M51.9016 60.57C49.8327 60.57 47.9083 59.4685 46.8809 57.696C46.8102 57.5759 46.8102 57.4276 46.8809 57.3059C47.5595 56.1357 48.6388 55.237 49.9191 54.7767C50.4453 54.5879 51.025 54.6457 51.512 54.9359C51.7382 55.0716 52.065 55.0716 52.2912 54.9359C52.7782 54.6457 53.3594 54.5879 53.8841 54.7767C55.1644 55.237 56.2436 56.1357 56.9223 57.3059C56.9929 57.4261 56.9929 57.5743 56.9223 57.696C55.8949 59.4685 53.9705 60.57 51.9016 60.57ZM47.6805 57.501C48.5932 58.9177 50.1893 59.7883 51.9016 59.7883C53.6139 59.7883 55.2099 58.9177 56.1226 57.501C55.5335 56.5851 54.6507 55.883 53.617 55.5101C53.3154 55.4008 52.9792 55.4352 52.6949 55.6037C52.2252 55.8845 51.578 55.8845 51.1083 55.6037C50.8255 55.4352 50.4893 55.4008 50.1861 55.5101C49.1509 55.883 48.2696 56.5851 47.6805 57.501Z" fill="white"/>
<path d="M51.9016 52.8045C51.0832 52.8045 50.3134 52.4878 49.7353 51.9136C49.5814 51.7607 49.5814 51.5142 49.7353 51.3613C49.8893 51.2084 50.1375 51.2084 50.2914 51.3613C50.7219 51.7888 51.2937 52.0244 51.9016 52.0244C52.5096 52.0244 53.0814 51.7888 53.5118 51.3613C53.6658 51.2084 53.914 51.2084 54.0679 51.3613C54.2219 51.5142 54.2219 51.7607 54.0679 51.9136C53.4898 52.4878 52.7201 52.8045 51.9016 52.8045Z" fill="white"/>
<path d="M52.7437 67.0109H51.0597C49.6615 67.0109 48.3278 66.4898 47.3067 65.5411L38.9604 57.8037C36.2584 55.2995 34.7095 51.7576 34.7095 48.0879V33.7957C34.7095 33.5804 34.8854 33.4056 35.1022 33.4056C35.319 33.4056 35.4949 33.5804 35.4949 33.7957V48.0879C35.4949 51.5423 36.9528 54.8751 39.4961 57.2326L47.8424 64.9701C48.719 65.783 49.861 66.2292 51.0597 66.2292H52.7437C53.9423 66.2292 55.0844 65.7814 55.9609 64.9701L64.3073 57.2326C66.8506 54.8751 68.3084 51.5423 68.3084 48.0879V34.3871C68.3084 34.1717 68.4844 33.997 68.7011 33.997C68.9179 33.997 69.0939 34.1717 69.0939 34.3871V48.0879C69.0939 51.7576 67.5449 55.2995 64.8429 57.8021L56.4966 65.5396C55.474 66.4867 54.1418 67.0093 52.7437 67.0093V67.0109Z" fill="white"/>
<path d="M70.8784 53.7937C70.8203 53.7937 70.7606 53.7812 70.7056 53.7531C70.5108 53.658 70.4307 53.4239 70.5265 53.2304C72.2985 49.6574 72.8107 45.5492 71.9702 41.6657C71.1235 37.7619 68.9415 34.259 65.8263 31.8032C64.1203 30.4598 57.7596 25.6385 57.6952 25.5901C57.5224 25.4591 57.4894 25.2141 57.6214 25.044C57.7533 24.8724 58 24.8396 58.1712 24.9707C58.2356 25.0191 64.6026 29.845 66.3133 31.1931C69.5714 33.7613 71.8524 37.4217 72.7368 41.5018C73.6165 45.557 73.0809 49.8446 71.2303 53.5753C71.1612 53.7126 71.023 53.7937 70.8769 53.7937H70.8784Z" fill="white"/>
<path d="M33.9774 72.4016C33.8847 72.4016 33.7905 72.3985 33.6947 72.3938C33.4779 72.3813 33.3129 72.1957 33.3255 71.9819C33.3381 71.7666 33.525 71.6028 33.7402 71.6152C35.839 71.7401 37.5639 70.1252 37.922 69.5541C40.3899 65.6207 36.1453 60.8571 31.6509 55.8159C30.7885 54.8485 29.8977 53.8499 29.0432 52.8435L29.0149 52.8092C26.283 49.3672 25.5557 44.8534 27.0685 40.7358C28.5813 36.6182 32.064 33.6318 36.3857 32.7456L46.3956 30.6938C51.7462 29.714 55.8039 27.4703 58.4681 24.0252C59.4264 22.7864 60.4271 20.1105 60.4381 20.084C60.5135 19.8811 60.7397 19.7797 60.9424 19.853C61.145 19.9279 61.2502 20.1526 61.1748 20.3539C61.1324 20.4678 60.1223 23.1671 59.0918 24.5011C56.3066 28.1038 52.0855 30.4458 46.5464 31.4599L36.5443 33.5101C32.4913 34.3402 29.2238 37.1425 27.8053 41.0042C26.3867 44.8658 27.0685 49.0989 29.6307 52.3271L29.6511 52.3521C30.4915 53.3413 31.3807 54.3367 32.2384 55.301C36.9323 60.5669 41.3655 65.5411 38.5881 69.9692C38.0933 70.7571 36.2757 72.4047 33.9759 72.4047L33.9774 72.4016Z" fill="white"/>
<path d="M65.3425 72.8494C65.22 72.8494 65.099 72.7917 65.0221 72.6856C62.939 69.7679 61.8394 66.3353 61.8394 62.7591V60.18C61.8394 59.9647 62.0153 59.7899 62.2321 59.7899C62.4489 59.7899 62.6248 59.9647 62.6248 60.18V62.7591C62.6248 66.173 63.6758 69.4496 65.663 72.2347C65.7887 72.411 65.7462 72.6544 65.5703 72.7777C65.5012 72.826 65.4226 72.8494 65.3441 72.8494H65.3425Z" fill="white"/>
<path d="M26.7228 35.381C26.5358 35.381 26.3709 35.2483 26.3363 35.0595C25.521 30.4942 26.5845 25.9319 29.252 22.5414C29.3855 22.3714 29.6321 22.3417 29.8034 22.4743C29.9746 22.607 30.0045 22.8519 29.8709 23.022C27.3402 26.2377 26.3332 30.5753 27.1092 34.9222C27.1469 35.1344 27.004 35.3373 26.7919 35.3747C26.7683 35.3794 26.7464 35.381 26.7228 35.381Z" fill="white"/>
<path d="M28.4711 35.8147C28.446 35.8147 28.4209 35.8131 28.3957 35.8069C28.1821 35.7663 28.0438 35.5604 28.0863 35.3497C28.3109 34.2107 28.6487 33.0983 29.0917 32.0419C29.1749 31.8438 29.4058 31.7486 29.6053 31.8329C29.8049 31.9156 29.9007 32.1449 29.8158 32.3431C29.3933 33.3495 29.0697 34.412 28.856 35.4995C28.8199 35.6852 28.6549 35.8147 28.4711 35.8147Z" fill="white"/>
<path d="M45.4686 28.0398C45.2833 28.0398 45.1183 27.9088 45.0838 27.7215C45.0445 27.5093 45.1843 27.3065 45.3979 27.2659C47.8407 26.8134 49.9159 25.8305 51.567 24.3451C51.7272 24.2 51.977 24.2125 52.1215 24.3716C52.2676 24.5307 52.255 24.7773 52.0948 24.9224C50.3338 26.5061 48.1298 27.553 45.5425 28.032C45.5189 28.0367 45.4938 28.0383 45.4702 28.0383L45.4686 28.0398Z" fill="white"/>
<path d="M53.3626 23.3511C53.2809 23.3511 53.1976 23.3262 53.127 23.2731C52.9526 23.1436 52.918 22.9002 53.0484 22.727C53.3579 22.3167 53.6454 21.8782 53.903 21.4242C54.0098 21.237 54.2486 21.1699 54.4387 21.276C54.6272 21.3821 54.6947 21.6192 54.5879 21.808C54.313 22.2917 54.0067 22.7582 53.6783 23.1951C53.6014 23.2981 53.4836 23.3511 53.3642 23.3511H53.3626Z" fill="white"/>
<path d="M35.0063 69.4543C34.989 69.4543 34.9702 69.4543 34.9513 69.4511C34.7361 69.4215 34.5869 69.2249 34.6167 69.0111C34.9859 66.3587 32.7866 63.9824 28.0817 61.9478L23.7318 60.0676C20.4485 58.6228 19.2971 56.3308 18.909 54.6628C18.8603 54.4522 18.9923 54.2431 19.2028 54.1947C19.4133 54.1464 19.6254 54.2774 19.6741 54.4865C20.1736 56.6319 21.6864 58.3139 24.0475 59.353L28.3958 61.2331C33.4637 63.4238 35.82 66.0762 35.3959 69.1188C35.3692 69.3138 35.2011 69.4558 35.0079 69.4558L35.0063 69.4543Z" fill="white"/>
</svg>
