<svg width="93" height="93" viewBox="0 0 93 93" fill="none" xmlns="http://www.w3.org/2000/svg">
<path d="M46.1064 92.7257C71.5703 92.7257 92.2129 71.9683 92.2129 46.3628C92.2129 20.7574 71.5703 0 46.1064 0C20.6425 0 0 20.7574 0 46.3628C0 71.9683 20.6425 92.7257 46.1064 92.7257Z" fill="#446661"/>
<path d="M31.3205 45.3004C31.2336 45.3004 31.1484 45.267 31.0849 45.2018L27.4673 41.5842C27.377 41.494 27.347 41.362 27.3871 41.2417C28.3311 38.4144 30.363 35.3466 33.1067 32.6029C35.8504 29.8592 38.9183 27.8273 41.7472 26.8832C41.8675 26.8431 41.9995 26.8749 42.0897 26.9634L45.7074 30.581C45.7976 30.6713 45.8277 30.8033 45.7876 30.9236C44.8435 33.7508 42.8133 36.8187 40.0679 39.5641C37.3242 42.3078 34.2547 44.3396 31.4274 45.2837C31.3923 45.2954 31.3572 45.3004 31.3221 45.3004H31.3205ZM28.0872 41.2601L31.4107 44.5836C34.0541 43.6545 37.0251 41.6628 39.595 39.0928C42.1649 36.5229 44.1567 33.552 45.0858 30.9085L41.7622 27.5867C39.1188 28.5157 36.1478 30.5075 33.5779 33.0774C31.008 35.6473 29.0162 38.6183 28.0872 41.2617V41.2601Z" fill="white"/>
<path d="M60.3299 67.9034C60.1895 67.9034 60.0475 67.9 59.9055 67.8933C57.6062 67.7797 55.414 66.722 53.8917 64.9926L47.355 57.5702C45.2379 55.1657 41.906 54.2667 38.8665 55.2793C35.8237 56.2936 32.5253 55.5149 30.2578 53.2475L25.4939 48.4836C24.8523 47.8419 24.498 46.9881 24.498 46.0791C24.498 45.1701 24.8523 44.3162 25.4939 43.6746C26.0203 43.1482 26.8775 43.1482 27.4038 43.6746L30.0239 46.2946C30.8243 47.095 31.8887 47.5362 33.0199 47.5362C34.1511 47.5362 35.2155 47.095 36.0159 46.2946L46.7935 35.517C48.4461 33.8645 48.4461 31.1776 46.7935 29.525L44.1735 26.9049C43.6471 26.3786 43.6471 25.5214 44.1735 24.9951C45.5002 23.6683 47.6574 23.6683 48.9825 24.9951L53.7464 29.7589C56.0138 32.0264 56.7925 35.3249 55.7782 38.3677C54.7656 41.4071 55.6646 44.739 58.0691 46.8561L65.6652 53.5449C67.408 55.0788 68.4256 57.2895 68.4574 59.6121C68.4891 61.9331 67.5317 64.1738 65.829 65.7595C64.3335 67.1531 62.3918 67.9067 60.3249 67.9067L60.3299 67.9034ZM41.3897 54.1982C43.8226 54.1982 46.187 55.2309 47.8563 57.1257L54.393 64.5481C55.7966 66.1422 57.8185 67.118 59.9372 67.2233C61.9808 67.3252 63.9107 66.6284 65.3762 65.2649C66.9418 63.8079 67.8208 61.7493 67.7924 59.6171C67.7623 57.4833 66.8265 55.4515 65.2258 54.0428L57.6296 47.354C55.023 45.0581 54.0488 41.4472 55.1466 38.1521C56.0807 35.3516 55.3638 32.3155 53.2768 30.2268L48.5129 25.4629C47.9966 24.9466 47.3099 24.6625 46.5813 24.6625C45.8528 24.6625 45.166 24.9466 44.6497 25.4629C44.384 25.7286 44.384 26.163 44.6497 26.4287L47.2697 29.0488C49.183 30.962 49.183 34.0733 47.2697 35.9849L36.4921 46.7625C35.5664 47.6882 34.3333 48.1995 33.0232 48.1995C31.7132 48.1995 30.4817 47.6899 29.5543 46.7625L26.9343 44.1425C26.6686 43.8768 26.2358 43.8768 25.9685 44.1425C25.4522 44.6588 25.1681 45.3455 25.1681 46.0741C25.1681 46.8026 25.4522 47.4894 25.9685 48.0057L30.7324 52.7696C32.8194 54.8566 35.8572 55.5734 38.6577 54.641C39.5566 54.3419 40.479 54.1966 41.393 54.1966L41.3897 54.1982Z" fill="white"/>
<path d="M47.6073 57.682C47.5221 57.682 47.4368 57.6486 47.3717 57.5835C47.2413 57.4531 47.2413 57.2409 47.3717 57.1106L57.6146 46.8676C57.7449 46.7373 57.9571 46.7373 58.0875 46.8676C58.2178 46.998 58.2178 47.2102 58.0875 47.3405L47.8446 57.5835C47.7794 57.6486 47.6942 57.682 47.609 57.682H47.6073Z" fill="white"/>
<path d="M60.8859 62.7969C60.2677 62.7969 59.6494 62.5613 59.1782 62.0917C58.2375 61.151 58.2375 59.6187 59.1782 58.678C60.1206 57.7372 61.6512 57.7372 62.592 58.678C63.5327 59.6187 63.5327 61.151 62.592 62.0917C62.1208 62.5629 61.5025 62.7969 60.8843 62.7969H60.8859ZM60.8859 58.6395C60.4381 58.6395 59.992 58.81 59.6511 59.1492C58.971 59.8293 58.971 60.9371 59.6511 61.6188C60.3312 62.2989 61.439 62.2989 62.1208 61.6188C62.8008 60.9388 62.8008 59.8309 62.1208 59.1492C61.7799 58.8083 61.3337 58.6395 60.8859 58.6395Z" fill="white"/>
<path d="M32.2179 44.9647C32.0542 44.9647 31.9105 44.8427 31.8871 44.6756L30.6506 35.5539C30.6255 35.3717 30.7542 35.203 30.9363 35.1779C31.1168 35.1512 31.2872 35.2815 31.3123 35.4637L32.5488 44.5854C32.5738 44.7675 32.4452 44.9363 32.263 44.9613C32.248 44.963 32.233 44.9647 32.2179 44.9647Z" fill="white"/>
<path d="M40.7682 38.6785C40.6044 38.6785 40.4607 38.5565 40.4373 38.3894L39.0705 28.3119C39.0454 28.1298 39.1741 27.961 39.3562 27.936C39.5367 27.9109 39.7071 28.0396 39.7322 28.2217L41.099 38.2992C41.1241 38.4813 40.9954 38.6501 40.8133 38.6752C40.7983 38.6768 40.7832 38.6785 40.7682 38.6785Z" fill="white"/>
<path d="M36.5808 42.4597C36.4171 42.4597 36.2734 42.3378 36.25 42.1707L34.7712 31.261C34.7461 31.0789 34.8748 30.9101 35.0569 30.8851C35.2391 30.8583 35.4078 30.9887 35.4329 31.1708L36.9117 42.0804C36.9367 42.2626 36.8081 42.4313 36.6259 42.4564C36.6109 42.4581 36.5959 42.4597 36.5808 42.4597Z" fill="white"/>
<path d="M39.6268 47.6549C39.5416 47.6549 39.4564 47.6215 39.3912 47.5563C39.2609 47.426 39.2609 47.2138 39.3912 47.0834L43.49 42.9846C43.6204 42.8543 43.8326 42.8543 43.9629 42.9846C44.0933 43.1149 44.0933 43.3271 43.9629 43.4575L39.8641 47.5563C39.7989 47.6215 39.7137 47.6549 39.6285 47.6549H39.6268Z" fill="white"/>
<path d="M45.5751 41.7079C45.4898 41.7079 45.4046 41.6744 45.3394 41.6093C45.2091 41.4789 45.2091 41.2667 45.3394 41.1364L46.2484 40.2274C46.3788 40.0971 46.591 40.0971 46.7213 40.2274C46.8517 40.3577 46.8517 40.5699 46.7213 40.7003L45.8123 41.6093C45.7472 41.6744 45.6619 41.7079 45.5767 41.7079H45.5751Z" fill="white"/>
</svg>
