<svg width="93" height="93" viewBox="0 0 93 93" fill="none" xmlns="http://www.w3.org/2000/svg">
<path d="M46.1064 92.7257C71.5703 92.7257 92.2129 71.9683 92.2129 46.3628C92.2129 20.7574 71.5703 0 46.1064 0C20.6425 0 0 20.7574 0 46.3628C0 71.9683 20.6425 92.7257 46.1064 92.7257Z" fill="#446661"/>
<path d="M45.8004 51.3036C41.1415 51.3036 36.481 50.637 31.9448 49.3023L31.1499 49.0682C30.9434 49.0073 30.8254 48.7903 30.886 48.5842C30.9465 48.3766 31.1623 48.2579 31.3672 48.3188L32.1621 48.553C41.3511 51.2552 51.0509 51.1756 60.2135 48.3204C60.4184 48.2564 60.6357 48.3719 60.6994 48.578C60.763 48.784 60.6481 49.0026 60.4432 49.0666C55.6585 50.5574 50.7295 51.3036 45.8004 51.3036Z" fill="white"/>
<path d="M28.2127 48.5858C25.5316 48.5858 23.3489 46.3924 23.3489 43.6949C23.3489 40.9973 25.5301 38.804 28.2127 38.804C30.8954 38.804 33.0766 40.9973 33.0766 43.6949C33.0766 46.3924 30.8954 48.5858 28.2127 48.5858ZM28.2127 39.5845C25.9586 39.5845 24.1251 41.4282 24.1251 43.6949C24.1251 45.9616 25.9586 47.8052 28.2127 47.8052C30.4669 47.8052 32.3003 45.9616 32.3003 43.6949C32.3003 41.4282 30.4669 39.5845 28.2127 39.5845Z" fill="white"/>
<path d="M32.5596 62.7824C29.5354 62.7824 26.7239 61.1916 25.1528 58.5019L25.0037 58.2474C23.0337 54.8708 23.5662 50.5653 26.3 47.7787C26.3295 47.7491 26.3606 47.721 26.3916 47.6944C26.4072 47.6804 26.4227 47.6679 26.4382 47.6523C26.5919 47.5024 26.8372 47.5055 26.9878 47.6601C27.1368 47.8146 27.1337 48.0613 26.98 48.2127C26.9567 48.2361 26.9319 48.258 26.9055 48.2798C26.8884 48.2955 26.8698 48.3111 26.8543 48.3267C24.3657 50.8634 23.8813 54.7802 25.6744 57.8524L25.8234 58.1069C27.4582 60.9091 30.574 62.3999 33.7658 61.9097L34.1772 61.777C41.7765 59.3199 49.8105 59.3199 57.4097 61.777L57.8227 61.9097C61.0145 62.3999 64.1303 60.9091 65.7651 58.1069L65.9141 57.8524C67.7072 54.7802 67.2213 50.8634 64.7342 48.3267C63.2703 46.8343 61.2365 45.9788 59.1531 45.9788H32.4354C32.4136 45.9788 32.3919 45.9804 32.3702 45.9819C32.3375 45.9835 32.3065 45.9866 32.2739 45.9866C32.0643 45.9897 31.8827 45.8196 31.878 45.6041C31.8734 45.3887 32.0441 45.2107 32.2584 45.2061C32.2786 45.2061 32.2972 45.2045 32.3174 45.2029C32.3577 45.1998 32.3981 45.1982 32.4385 45.1982H59.1562C61.4461 45.1982 63.6817 46.138 65.29 47.7772C68.0239 50.5653 68.5579 54.8692 66.5863 58.2458L66.4373 58.5003C64.6349 61.5897 61.1962 63.2288 57.6752 62.6747C57.655 62.6715 57.6348 62.6669 57.6162 62.6606L57.1753 62.5185C49.7313 60.1113 41.8619 60.1113 34.4178 62.5185L33.9769 62.6606C33.9583 62.6669 33.9381 62.6715 33.918 62.6747C33.4631 62.7465 33.0113 62.7808 32.5627 62.7808L32.5596 62.7824Z" fill="white"/>
<path d="M31.0694 37.5582C29.7901 37.5582 28.75 36.5123 28.75 35.2259C28.75 33.9396 29.7901 32.8937 31.0694 32.8937C32.3486 32.8937 33.3887 33.9396 33.3887 35.2259C33.3887 36.5123 32.3486 37.5582 31.0694 37.5582ZM31.0694 33.6727C30.2186 33.6727 29.5262 34.3689 29.5262 35.2244C29.5262 36.0799 30.2186 36.7761 31.0694 36.7761C31.9201 36.7761 32.6125 36.0799 32.6125 35.2244C32.6125 34.3689 31.9201 33.6727 31.0694 33.6727Z" fill="white"/>
<path d="M32.2165 28.1652C31.0941 28.1652 30.1797 27.2457 30.1797 26.117C30.1797 24.9883 31.0941 24.0688 32.2165 24.0688C33.3389 24.0688 34.2533 24.9883 34.2533 26.117C34.2533 27.2457 33.3389 28.1652 32.2165 28.1652ZM32.2165 24.8494C31.521 24.8494 30.9559 25.4176 30.9559 26.117C30.9559 26.8164 31.521 27.3846 32.2165 27.3846C32.912 27.3846 33.4771 26.8164 33.4771 26.117C33.4771 25.4176 32.912 24.8494 32.2165 24.8494Z" fill="white"/>
<path d="M44.4935 41.4703C44.2792 41.4703 44.1054 41.2954 44.1054 41.08C44.1054 40.4665 43.6086 39.9669 42.9985 39.9669C42.7842 39.9669 42.6104 39.7921 42.6104 39.5767C42.6104 39.3612 42.7842 39.1864 42.9985 39.1864C44.0371 39.1864 44.8816 40.0356 44.8816 41.08C44.8816 41.2954 44.7077 41.4703 44.4935 41.4703Z" fill="white"/>
<path d="M25.6542 44.0446C25.44 44.0446 25.2661 43.8698 25.2661 43.6544C25.2661 42.0933 26.5283 40.8241 28.0807 40.8241C28.295 40.8241 28.4688 40.9989 28.4688 41.2144C28.4688 41.4298 28.295 41.6046 28.0807 41.6046C26.9567 41.6046 26.0423 42.5241 26.0423 43.6544C26.0423 43.8698 25.8685 44.0446 25.6542 44.0446Z" fill="white"/>
<path d="M22.6643 36.8916C20.8262 36.8916 19.3296 35.3883 19.3296 33.5384C19.3296 31.6885 20.8246 30.1852 22.6643 30.1852C24.5039 30.1852 25.9989 31.6885 25.9989 33.5384C25.9989 35.3883 24.5039 36.8916 22.6643 36.8916ZM22.6643 30.9673C21.2531 30.9673 20.1058 32.1209 20.1058 33.54C20.1058 34.959 21.2531 36.1126 22.6643 36.1126C24.0755 36.1126 25.2227 34.959 25.2227 33.54C25.2227 32.1209 24.0755 30.9673 22.6643 30.9673Z" fill="white"/>
<path d="M65.8225 44.822C64.3259 44.822 62.6415 44.2038 61.0735 42.9893C60.9043 42.8581 60.8717 42.613 61.0036 42.4413C61.134 42.2712 61.3778 42.2384 61.5485 42.3711C64.0371 44.299 66.92 44.5722 68.4011 43.0189C68.8777 42.5194 69.1618 42.0432 69.4614 41.5374C69.9504 40.7163 70.4534 39.8702 71.7761 39.0303C68.9864 37.143 66.4326 36.8776 65.0804 37.4864C63.8726 38.0297 62.7284 39.1989 62.095 40.5368C62.0034 40.7319 61.7705 40.8147 61.578 40.721C61.384 40.6289 61.3033 40.3947 61.3948 40.2012C62.1043 38.7025 63.396 37.3896 64.7637 36.7746C67.0334 35.7536 70.3975 37.029 72.7231 38.7478C72.8302 38.8274 72.8892 38.9554 72.8799 39.0897C72.8706 39.2223 72.7945 39.3426 72.6781 39.4066C71.135 40.248 70.6459 41.0707 70.1274 41.9418C69.8185 42.4616 69.4971 43.0002 68.96 43.5637C68.1527 44.4083 67.0504 44.8251 65.8225 44.8251V44.822Z" fill="white"/>
<path d="M58.3087 45.7743C58.2497 45.7743 58.1892 45.7602 58.1333 45.7321C57.9423 45.6338 57.8663 45.3996 57.9641 45.2091C58.0494 45.0405 60.1266 41.0551 66.5973 39.8515C66.8084 39.8125 67.0102 39.953 67.049 40.1637C67.0879 40.376 66.9481 40.579 66.7386 40.618C60.6684 41.7466 58.6766 45.5229 58.6565 45.562C58.5882 45.6962 58.4515 45.7743 58.3103 45.7743H58.3087Z" fill="white"/>
<path d="M58.3008 40.2543C58.2481 40.2543 58.1937 40.2433 58.1425 40.2199C55.8433 39.1818 54.6308 37.2367 55.1944 35.4883C55.362 34.9684 55.584 34.5953 55.7983 34.2363C56.1569 33.6321 56.4674 33.1107 56.4736 31.943C56.4736 31.8088 56.5435 31.6854 56.6552 31.6136C56.767 31.5418 56.9083 31.534 57.0294 31.5918C59.7105 32.8765 60.7584 34.6983 60.8422 35.866C60.881 36.4015 60.8034 36.9916 60.6171 37.5739C60.5519 37.7784 60.333 37.8923 60.1296 37.8268C59.9263 37.7612 59.8129 37.5411 59.8781 37.3366C60.0334 36.8495 60.0986 36.3593 60.0675 35.9222C59.9775 34.6515 58.6113 33.3636 57.2172 32.5706C57.1148 33.5463 56.7856 34.0989 56.4643 34.6375C56.2625 34.9746 56.0731 35.2947 55.9333 35.7302C55.5033 37.0634 56.5667 38.6526 58.4607 39.5081C58.6564 39.597 58.7433 39.8281 58.6564 40.0232C58.5911 40.1684 58.4499 40.2543 58.3024 40.2543H58.3008Z" fill="white"/>
<path d="M58.6921 42.4241C58.6673 42.4241 58.6409 42.421 58.6145 42.4163C58.4049 42.3742 58.2683 42.1681 58.3102 41.9558C58.6254 40.3853 58.3972 38.256 57.6675 35.9596C57.6023 35.7536 57.7141 35.535 57.919 35.4695C58.1239 35.4039 58.3413 35.5179 58.4065 35.7224C59.1765 38.1436 59.4125 40.4119 59.0709 42.1103C59.0337 42.2961 58.8722 42.4241 58.6906 42.4241H58.6921Z" fill="white"/>
<path d="M45.7943 68.6567C33.5982 68.6567 20.9829 65.8405 20.9829 61.1276C20.9829 60.9121 21.1568 60.7373 21.371 60.7373C21.5853 60.7373 21.7591 60.9121 21.7591 61.1276C21.7591 64.3871 31.417 67.8762 45.7943 67.8762C52.282 67.8762 58.3769 67.1393 62.9551 65.8015C67.3238 64.5245 69.8294 62.8214 69.8294 61.1291C69.8294 60.9137 70.0033 60.7389 70.2175 60.7389C70.4318 60.7389 70.6057 60.9137 70.6057 61.1291C70.6057 65.8421 57.9904 68.6583 45.7943 68.6583V68.6567Z" fill="white"/>
<path d="M46.8189 42.1197C46.6046 42.1197 46.4308 41.9449 46.4308 41.7295C46.4308 39.5705 44.6842 37.8142 42.5372 37.8142C40.9382 37.8142 39.4789 38.8243 38.9044 40.3292C38.8641 40.4353 38.7802 40.518 38.6747 40.5555C38.5691 40.5945 38.4511 40.5852 38.3533 40.529C37.9279 40.2901 37.4451 40.1637 36.9592 40.1637C36.3072 40.1637 35.6909 40.3807 35.1786 40.7912C35.0792 40.8709 34.9472 40.8958 34.8261 40.8599C34.705 40.824 34.6088 40.7304 34.5684 40.6086C34.3231 39.8686 33.6432 39.3706 32.8747 39.3706C32.263 39.3706 31.6995 39.6829 31.3673 40.2043C31.2508 40.3854 31.0118 40.4384 30.8317 40.3213C30.6516 40.2043 30.5988 39.9639 30.7152 39.7828C31.1918 39.035 31.9991 38.5901 32.8763 38.5901C33.8093 38.5901 34.6507 39.099 35.1009 39.8983C35.6614 39.5611 36.2963 39.3847 36.9592 39.3847C37.4358 39.3847 37.9093 39.4799 38.3487 39.6626C39.1264 38.0749 40.7612 37.0337 42.5372 37.0337C45.1127 37.0337 47.207 39.1412 47.207 41.7295C47.207 41.9449 47.0331 42.1197 46.8189 42.1197Z" fill="white"/>
</svg>
