<svg width="94" height="93" viewBox="0 0 94 93" fill="none" xmlns="http://www.w3.org/2000/svg">
<path d="M46.7722 92.7257C72.6037 92.7257 93.5443 71.9683 93.5443 46.3628C93.5443 20.7574 72.6037 0 46.7722 0C20.9406 0 0 20.7574 0 46.3628C0 71.9683 20.9406 92.7257 46.7722 92.7257Z" fill="#446661"/>
<path d="M47.1313 54.3337C47.0635 54.3337 46.9958 54.3149 46.936 54.279C46.6761 54.1182 40.5688 50.3154 40.279 47.1261C40.279 47.1214 40.279 47.1183 40.279 47.1136L40.2554 46.7046C40.2554 46.7046 40.2554 46.6906 40.2554 46.6843C40.2554 44.5441 41.9058 42.8019 43.9343 42.8019C45.2776 42.8019 46.4887 43.5731 47.1313 44.7626C47.7738 43.5731 48.9849 42.8019 50.3283 42.8019C52.3567 42.8019 54.0072 44.5441 54.0072 46.6843C54.0072 46.7062 53.9867 47.0964 53.982 47.1323C53.6922 50.3138 47.5848 54.1182 47.325 54.279C47.2651 54.3165 47.1974 54.3337 47.1297 54.3337H47.1313ZM41.0145 47.0652C41.1215 48.2111 42.235 49.7081 44.2319 51.3926C45.4556 52.4244 46.6698 53.2347 47.1313 53.5328C47.5943 53.2331 48.8132 52.4213 50.0369 51.3863C52.0338 49.7003 53.1441 48.2048 53.2481 47.059C53.2512 47.0153 53.267 46.7265 53.2701 46.6749C53.2654 44.9406 51.9488 43.5325 50.3283 43.5325C49.0006 43.5325 47.8337 44.491 47.4888 45.8616C47.4478 46.024 47.2998 46.1379 47.1313 46.1379C46.9628 46.1379 46.8147 46.024 46.7738 45.8616C46.4289 44.4894 45.2603 43.5325 43.9343 43.5325C42.3153 43.5325 40.9971 44.9406 40.9924 46.6734L41.0145 47.0652Z" fill="white"/>
<path d="M43.008 71.1217C42.8285 71.1217 42.671 70.9906 42.6442 70.8095C42.6143 70.6096 42.7545 70.4239 42.9545 70.3942L49.2288 69.4763C50.4902 69.2921 51.6651 68.7535 52.6258 67.9199L61.1033 60.5609C60.9269 60.4828 60.7631 60.4173 60.6812 60.3954C59.0087 59.9568 57.3646 60.9215 56.533 61.535L51.5485 65.2161C50.8824 65.7078 50.0571 65.9795 49.2272 65.9795H47.446C46.7783 65.9795 46.1168 65.8077 45.5341 65.4815C45.5278 65.4783 45.5199 65.4737 45.5136 65.469L42.7513 63.6815C39.9905 61.8956 36.6865 61.2556 33.4501 61.8816C33.2501 61.9206 33.0564 61.791 33.017 61.5928C32.9776 61.3945 33.1084 61.2025 33.3084 61.1635C36.7337 60.5016 40.2299 61.1775 43.1529 63.0696L45.9042 64.8508C46.3735 65.1115 46.9042 65.2489 47.4429 65.2489H49.224C49.8981 65.2489 50.5658 65.0287 51.106 64.6307L56.0889 60.9496C57.026 60.2565 58.8938 59.1731 60.8655 59.6898C61.149 59.7632 61.801 60.0785 61.9301 60.1394C62.0403 60.1925 62.1175 60.2986 62.1333 60.4188C62.149 60.5406 62.1033 60.6608 62.0104 60.742L53.1077 68.4694C52.0399 69.3951 50.7359 69.993 49.3327 70.1991L43.0584 71.117C43.0395 71.1201 43.0222 71.1201 43.0049 71.1201L43.008 71.1217Z" fill="white"/>
<path d="M54.4686 73.9535C54.1961 73.9535 53.9237 73.9379 53.6543 73.9067L49.3313 73.4087C49.1297 73.3852 48.9833 73.2042 49.0069 73.0028C49.0305 72.803 49.2132 72.6578 49.4164 72.6812L53.7394 73.1792C54.6638 73.2853 55.6182 73.187 56.5017 72.8951L68.507 68.9252C67.8093 67.9729 67.0628 67.7372 65.7541 67.9917C65.5557 68.0307 65.3604 67.9011 65.321 67.7029C65.2816 67.5046 65.4124 67.3126 65.6124 67.2736C67.3935 66.927 68.4534 67.3922 69.3952 68.9315C69.4535 69.0267 69.4645 69.1422 69.4267 69.2468C69.3873 69.3514 69.3039 69.4326 69.1968 69.4669L56.7364 73.5882C56.0104 73.8286 55.2387 73.9504 54.4701 73.9504L54.4686 73.9535Z" fill="white"/>
<path d="M43.9105 74.4593C42.8034 74.4593 41.6978 74.2361 40.682 73.7959L30.6611 69.4592C28.2027 68.3945 25.5081 68.0901 22.8702 68.5771C22.6702 68.6131 22.4781 68.4835 22.4403 68.2852C22.4025 68.087 22.5348 67.8965 22.7348 67.859C25.5176 67.3454 28.3602 67.667 30.9556 68.791L40.9765 73.1277C42.4034 73.7459 44.0239 73.8942 45.5421 73.5477L55.1551 71.3512C56.0638 71.1436 56.9111 70.7689 57.6733 70.2381C57.6781 70.235 57.6812 70.2319 57.686 70.2303L70.1668 62.2922C68.9589 61.1885 66.9305 60.9387 65.5241 61.7833C65.3493 61.8879 65.1225 61.8317 65.017 61.66C64.9115 61.4867 64.9682 61.2619 65.1414 61.1588C66.962 60.0676 69.6566 60.511 71.0235 62.1283C71.0913 62.2095 71.1212 62.3141 71.1054 62.4186C71.0897 62.5217 71.0299 62.6138 70.9401 62.6715L58.0907 70.8439C57.2513 71.4277 56.319 71.8383 55.3205 72.0662L45.7075 74.2626C45.1185 74.3969 44.5137 74.464 43.9105 74.464V74.4593Z" fill="white"/>
<path d="M55.7803 69.5715C55.6732 69.5715 55.5677 69.5262 55.4952 69.4372C55.3661 69.2811 55.3897 69.0501 55.5472 68.9236L68.4013 58.5127C66.6595 57.7696 64.6673 57.9554 63.0814 59.0404C62.9145 59.1543 62.6845 59.1122 62.568 58.9467C62.453 58.7812 62.494 58.5533 62.6625 58.4378C64.6342 57.0906 67.1619 56.9672 69.258 58.1162C69.3651 58.1755 69.436 58.2817 69.447 58.4034C69.4581 58.5236 69.4077 58.6423 69.3132 58.7188L56.0149 69.4903C55.9472 69.5465 55.8638 69.573 55.7819 69.573L55.7803 69.5715Z" fill="white"/>
<path d="M44.4129 64.5386C44.268 64.5386 44.131 64.4527 44.0711 64.3123C43.9939 64.1249 44.0837 63.9126 44.2727 63.8346L45.8822 63.1789C47.3862 62.5748 49.1296 62.5139 50.7974 63.0072L52.7676 63.5895C52.9628 63.6472 53.0731 63.8502 53.0164 64.0437C52.9581 64.2373 52.7518 64.3466 52.5581 64.2888L50.5879 63.7066C49.0808 63.2616 47.5091 63.3132 46.1657 63.8533L46.1358 63.8658L44.5546 64.5105C44.5089 64.5292 44.4617 64.5386 44.4144 64.5386H44.4129Z" fill="white"/>
<path d="M56.3115 61.6084C56.2658 61.6084 56.2201 61.6006 56.176 61.5819L48.256 58.4581C47.6056 58.2021 46.9662 58.0085 46.352 57.8836C42.9408 57.1921 23.0202 58.0585 22.8202 58.0678C22.6171 58.0757 22.4438 57.9211 22.436 57.7197C22.4265 57.5183 22.584 57.3466 22.7887 57.3388C23.6124 57.3029 43.0022 56.4599 46.5016 57.1687C47.1583 57.3014 47.8402 57.5074 48.5316 57.779L56.4516 60.9028C56.6406 60.9777 56.7335 61.19 56.6579 61.3774C56.6013 61.521 56.4611 61.6084 56.3146 61.6084H56.3115Z" fill="white"/>
<path d="M33.7385 36.7355C33.3921 36.7355 33.0362 36.6949 32.6771 36.5997C32.3936 36.5263 31.7416 36.2109 31.6125 36.1501C31.5022 36.097 31.4251 35.9908 31.4093 35.8706C31.3936 35.7489 31.4392 35.6287 31.5321 35.5475L40.4349 27.8201C41.5027 26.8944 42.8067 26.2965 44.2099 26.0904L50.4842 25.1725C50.6873 25.1444 50.8732 25.2817 50.9031 25.48C50.933 25.6798 50.7928 25.8656 50.5928 25.8953L44.3185 26.8132C43.0571 26.9974 41.8822 27.536 40.9215 28.3696L32.444 35.7286C32.6204 35.8066 32.7842 35.8722 32.8661 35.894C34.5386 36.3327 36.1827 35.368 37.0143 34.7544L41.9972 31.0734C42.6634 30.5816 43.4886 30.31 44.3185 30.31H46.0997C46.7675 30.31 47.4289 30.4817 48.0116 30.808C48.0179 30.8111 48.0258 30.8158 48.0321 30.8205L50.7944 32.6079C53.5568 34.3954 56.8593 35.0339 60.0956 34.4094C60.2956 34.3704 60.4893 34.5 60.5287 34.6982C60.5681 34.8965 60.4374 35.0885 60.2374 35.1275C56.812 35.7894 53.3158 35.1119 50.3928 33.2215L47.6415 31.4402C47.1722 31.1795 46.6415 31.0422 46.1029 31.0422H44.3217C43.6492 31.0422 42.9799 31.2623 42.4397 31.6604L37.4568 35.3414C36.6899 35.9081 35.3008 36.737 33.7417 36.737L33.7385 36.7355Z" fill="white"/>
<path d="M26.9192 29.1237C25.7207 29.1237 24.8987 28.5789 24.1522 27.3581C24.0939 27.2629 24.0829 27.1474 24.1207 27.0428C24.16 26.9382 24.2435 26.857 24.3506 26.8227L36.811 22.7014C37.7953 22.3751 38.8599 22.2674 39.8915 22.3845L44.2145 22.8825C44.4161 22.9059 44.5625 23.087 44.5389 23.2883C44.5153 23.4882 44.3326 23.6333 44.1294 23.6099L39.8064 23.1119C38.882 23.0058 37.9276 23.1041 37.0441 23.3961L25.0388 27.3659C25.7365 28.3182 26.4814 28.5539 27.7917 28.2994C27.9901 28.2604 28.1854 28.39 28.2248 28.5882C28.2642 28.7865 28.1334 28.9785 27.9334 29.0175C27.5665 29.0894 27.2295 29.1253 26.9176 29.1253L26.9192 29.1237Z" fill="white"/>
<path d="M26.1224 35.7349C24.7617 35.7349 23.379 35.1822 22.5191 34.1675C22.4514 34.0864 22.4215 33.9818 22.4372 33.8772C22.453 33.7741 22.5128 33.682 22.6026 33.6243L35.452 25.452C36.2914 24.8697 37.2237 24.4575 38.2222 24.2296L47.8352 22.0332C49.5061 21.6523 51.2905 21.8162 52.8606 22.4953L62.8815 26.832C65.3399 27.8951 68.0345 28.201 70.6724 27.714C70.8724 27.6781 71.0646 27.8076 71.1024 28.0059C71.1402 28.2042 71.0079 28.3946 70.8079 28.4321C68.0251 28.9457 65.1824 28.6225 62.587 27.5001L52.5661 23.1634C51.1393 22.5452 49.5172 22.3969 48.0006 22.7435L38.3875 24.9399C37.4788 25.1475 36.6316 25.5222 35.8693 26.053C35.8646 26.0561 35.8614 26.0592 35.8567 26.0608L23.3758 33.9989C24.5838 35.1026 26.6122 35.3524 28.0186 34.5078C28.1934 34.4033 28.4186 34.4595 28.5257 34.6312C28.6312 34.8045 28.5745 35.0293 28.4013 35.1323C27.7241 35.5382 26.9272 35.7317 26.1208 35.7317L26.1224 35.7349Z" fill="white"/>
<path d="M27.3272 38.9586C26.2862 38.9586 25.242 38.6994 24.2876 38.1765C24.1806 38.1171 24.1097 38.011 24.0987 37.8892C24.0876 37.769 24.138 37.6504 24.2325 37.5739L37.5308 26.8024C37.6882 26.6744 37.9213 26.6978 38.0489 26.8539C38.178 27.01 38.1544 27.241 37.9969 27.3675L25.1428 37.7784C26.8846 38.5215 28.8768 38.3357 30.4627 37.2507C30.6312 37.1368 30.8596 37.1789 30.9761 37.3444C31.0911 37.5099 31.0502 37.7378 30.8816 37.8533C29.8076 38.587 28.5697 38.9586 27.3256 38.9586H27.3272Z" fill="white"/>
<path d="M45.0035 33.6134C44.2554 33.6134 43.4932 33.5041 42.7483 33.2825L40.7781 32.7002C40.5828 32.6424 40.4726 32.4395 40.5293 32.2459C40.5875 32.0523 40.7923 31.9415 40.9876 32.0008L42.9577 32.5831C44.4649 33.028 46.035 32.9765 47.38 32.4363L47.4146 32.4223L48.9911 31.7791C49.1785 31.7026 49.3942 31.7916 49.473 31.9789C49.5501 32.1663 49.4604 32.3786 49.273 32.4566L47.6587 33.1139C46.8303 33.4464 45.9279 33.6134 45.0051 33.6134H45.0035Z" fill="white"/>
<path d="M53.3898 39.4049C50.4842 39.4049 48.0762 39.33 47.0462 39.1208C46.3911 38.9881 45.7076 38.7821 45.0162 38.5104L37.0961 35.3867C36.9072 35.3117 36.8142 35.0994 36.8898 34.9121C36.9654 34.7248 37.1796 34.6327 37.3686 34.7076L45.2886 37.8313C45.9391 38.0874 46.58 38.2809 47.1927 38.4058C50.6038 39.099 70.5244 38.231 70.7244 38.2216C70.9244 38.2123 71.1008 38.3684 71.1087 38.5697C71.1181 38.7711 70.9607 38.9428 70.7559 38.9507C70.1748 38.9756 60.3507 39.4034 53.3882 39.4034L53.3898 39.4049Z" fill="white"/>
</svg>
