<svg width="43" height="35" viewBox="0 0 43 35" fill="none" xmlns="http://www.w3.org/2000/svg">
<path d="M10.5419 35C8.50753 35 6.84301 34.5833 5.54839 33.75C4.25376 32.9167 3.19032 31.8519 2.35806 30.5556C1.43333 28.9815 0.786021 27.3611 0.416129 25.6945C0.13871 23.9352 0 22.5 0 21.3889C0 16.8519 1.15591 12.7315 3.46774 9.02778C5.77957 5.32408 9.38602 2.31482 14.2871 0L15.5355 2.5C12.6688 3.70371 10.172 5.60185 8.04516 8.19445C6.01075 10.787 4.99355 13.4259 4.99355 16.1111C4.99355 17.2222 5.13226 18.1944 5.40968 19.0278C6.88925 17.8241 8.6 17.2222 10.5419 17.2222C12.9462 17.2222 15.0269 18.0093 16.7839 19.5833C18.5409 21.1574 19.4194 23.3333 19.4194 26.1111C19.4194 28.7037 18.5409 30.8333 16.7839 32.5C15.0269 34.1667 12.9462 35 10.5419 35ZM34.1226 35C32.0882 35 30.4237 34.5833 29.129 33.75C27.8344 32.9167 26.771 31.8519 25.9387 30.5556C25.014 28.9815 24.3667 27.3611 23.9968 25.6945C23.7194 23.9352 23.5806 22.5 23.5806 21.3889C23.5806 16.8519 24.7366 12.7315 27.0484 9.02778C29.3602 5.32408 32.9667 2.31482 37.8677 0L39.1161 2.5C36.2495 3.70371 33.7527 5.60185 31.6258 8.19445C29.5914 10.787 28.5742 13.4259 28.5742 16.1111C28.5742 17.2222 28.7129 18.1944 28.9903 19.0278C30.4699 17.8241 32.1806 17.2222 34.1226 17.2222C36.5269 17.2222 38.6075 18.0093 40.3645 19.5833C42.1215 21.1574 43 23.3333 43 26.1111C43 28.7037 42.1215 30.8333 40.3645 32.5C38.6075 34.1667 36.5269 35 34.1226 35Z" fill="#446661"/>
</svg>
