<svg width="94" height="93" viewBox="0 0 94 93" fill="none" xmlns="http://www.w3.org/2000/svg">
<path d="M46.7722 92.7257C72.6037 92.7257 93.5443 71.9683 93.5443 46.3628C93.5443 20.7574 72.6037 0 46.7722 0C20.9406 0 0 20.7574 0 46.3628C0 71.9683 20.9406 92.7257 46.7722 92.7257Z" fill="#446661"/>
<path d="M35.6592 39.7375C33.8205 39.7375 32.0754 39.2782 30.6653 38.412C30.496 38.3076 30.442 38.0861 30.5465 37.9168C30.6509 37.7475 30.8724 37.6953 31.0417 37.7979C32.5761 38.7398 34.5498 39.1594 36.5992 38.9739C38.6649 38.7884 40.5414 38.0176 41.8848 36.802L41.9155 36.775C43.3111 35.5252 45.4272 35.2803 47.1812 36.1627L47.862 36.5049C48.0403 36.5949 48.1105 36.811 48.0223 36.9893C47.9322 37.1676 47.7161 37.2378 47.5378 37.1496L46.8571 36.8074C45.366 36.0565 43.5723 36.2582 42.3945 37.3135L42.3657 37.3405C40.9088 38.6587 38.8828 39.4944 36.6641 39.6943C36.3273 39.7249 35.9905 39.7393 35.6592 39.7393V39.7375Z" fill="white"/>
<path d="M45.4688 38.8946C45.359 38.8946 45.2509 38.8442 45.1807 38.7506C44.4855 37.8267 43.2843 37.3657 42.0435 37.5512C41.849 37.58 41.6635 37.4449 41.6347 37.2468C41.6059 37.0505 41.741 36.8668 41.9391 36.838C43.441 36.6165 44.9051 37.182 45.7588 38.3184C45.8776 38.4768 45.847 38.7037 45.6867 38.8226C45.6219 38.8712 45.5463 38.8946 45.4706 38.8946H45.4688Z" fill="white"/>
<path d="M43.2082 40.0436C43.0875 40.0436 42.9686 39.9824 42.9002 39.8707C42.3383 38.9469 41.4163 38.457 40.4942 38.5939C40.2997 38.6227 40.1142 38.4877 40.0854 38.2896C40.0566 38.0933 40.1917 37.9096 40.3898 37.8808C41.6018 37.7025 42.7993 38.3202 43.5161 39.4944C43.6188 39.6636 43.5665 39.8851 43.3954 39.9896C43.3378 40.0256 43.273 40.0418 43.2082 40.0418V40.0436Z" fill="white"/>
<path d="M40.4821 40.9152C40.3452 40.9152 40.2155 40.8378 40.1543 40.7045C39.7383 39.7986 39.1098 39.2674 38.5479 39.3502C38.3534 39.379 38.1679 39.244 38.1391 39.0459C38.1103 38.8496 38.2454 38.6659 38.4435 38.6371C39.3421 38.5038 40.2498 39.1809 40.8098 40.4037C40.8927 40.5838 40.8134 40.7981 40.6334 40.881C40.5847 40.9026 40.5343 40.9134 40.4839 40.9134L40.4821 40.9152Z" fill="white"/>
<path d="M25.9358 66.2825H25.1632C24.9651 66.2825 24.803 66.1204 24.803 65.9223C24.803 65.7242 24.9651 65.5621 25.1632 65.5621H25.9358C28.5578 65.5621 30.9999 64.1953 32.3613 61.9784C31.4753 60.5341 30.1174 59.4265 28.5164 58.8466C28.0122 58.6648 27.4557 58.7206 26.9857 59.0033C26.3626 59.3761 25.5071 59.3761 24.8858 59.0033C24.7148 58.9007 24.6607 58.6792 24.7616 58.5099C24.8642 58.3388 25.0857 58.2848 25.255 58.3856C25.653 58.6251 26.2167 58.6251 26.6147 58.3856C27.2702 57.9912 28.0536 57.9138 28.7613 58.1695C30.5874 58.8304 32.1236 60.1199 33.0907 61.7983C33.1555 61.9099 33.1555 62.0468 33.0907 62.1585C31.6266 64.7013 28.8838 66.2825 25.934 66.2825H25.9358Z" fill="white"/>
<path d="M25.8241 54.3372C25.2856 54.3372 24.7436 54.2345 24.2249 54.0238C24.0412 53.95 23.9512 53.7393 24.0268 53.5538C24.1025 53.3701 24.3114 53.28 24.4969 53.3557C25.8133 53.8887 27.3134 53.5862 28.3201 52.5813C28.4606 52.4408 28.6893 52.4408 28.8298 52.5813C28.9703 52.7218 28.9703 52.9505 28.8298 53.091C28.0158 53.905 26.9317 54.3372 25.8277 54.3372H25.8241Z" fill="white"/>
<path d="M35.5778 72.4486C35.4823 72.4486 35.3851 72.4108 35.3148 72.3334C35.1798 72.1875 35.187 71.9606 35.3328 71.8237L45.5511 62.2862C48.2038 59.81 50.4531 56.1362 51.5696 52.4588C51.6272 52.2679 51.8289 52.1616 52.0198 52.2193C52.2107 52.2769 52.317 52.4786 52.2594 52.6695C51.1068 56.464 48.7836 60.2566 46.0427 62.8139L35.8245 72.3514C35.756 72.4162 35.666 72.4486 35.5796 72.4486H35.5778Z" fill="white"/>
<path d="M52.6522 47.645C52.4541 47.645 52.292 47.4829 52.292 47.2848V33.8322C52.292 33.6341 52.4541 33.472 52.6522 33.472C52.8503 33.472 53.0123 33.6341 53.0123 33.8322V47.2848C53.0123 47.4829 52.8503 47.645 52.6522 47.645Z" fill="white"/>
<path d="M52.2666 53.2027C52.1892 53.2027 52.1099 53.1775 52.0433 53.1253L47.867 49.835C47.7104 49.7126 47.6834 49.4857 47.8076 49.329L50.5702 45.8209C50.6296 45.7452 50.716 45.6966 50.8115 45.6858C50.9051 45.675 51.0024 45.702 51.0762 45.7596L55.2543 49.0499C55.411 49.1723 55.438 49.3992 55.3137 49.5559C55.1912 49.7126 54.9643 49.7396 54.8077 49.6153L50.9141 46.5466L48.5964 49.4893L52.4899 52.5562C52.6466 52.6787 52.6736 52.9056 52.5493 53.0622C52.4791 53.1523 52.3729 53.1991 52.2666 53.1991V53.2027Z" fill="white"/>
<path d="M48.2809 49.6693C48.1854 49.6693 48.0882 49.6315 48.018 49.5559L44.8052 46.1144C44.6845 45.9847 44.6755 45.7848 44.7854 45.6461L46.2819 43.7462C46.3918 43.6057 46.5881 43.5679 46.7429 43.6561L50.84 45.9739C51.0128 46.0711 51.0741 46.2908 50.9768 46.4655C50.8796 46.6384 50.6581 46.6996 50.4852 46.6024L46.6565 44.4359L45.5417 45.8496L48.5438 49.0642C48.6789 49.2101 48.6717 49.437 48.5258 49.5739C48.4556 49.6387 48.3673 49.6711 48.2791 49.6711L48.2809 49.6693Z" fill="white"/>
<path d="M71.2227 68.6417C70.6825 68.6417 70.1404 68.467 69.6848 68.1086L51.5174 53.7951C51.3608 53.6727 51.3337 53.4458 51.458 53.2891L55.2777 48.4411C55.3371 48.3655 55.4236 48.3169 55.519 48.306C55.6144 48.2952 55.7099 48.3223 55.7837 48.3799L73.9511 62.6933C75.0298 63.5433 75.2153 65.1119 74.3671 66.1906L73.1839 67.6926C72.6923 68.3157 71.9629 68.6417 71.2245 68.6417H71.2227ZM52.245 53.453L70.1296 67.5431C70.8968 68.1464 72.0115 68.015 72.6166 67.2478L73.7998 65.7458C74.4031 64.9787 74.2716 63.8639 73.5045 63.2588L55.6199 49.1687L52.245 53.4512V53.453Z" fill="white"/>
<path d="M70.5423 63.0788C70.4648 63.0788 70.3856 63.0536 70.3189 63.0013L68.5775 61.6291C68.4208 61.5066 68.3938 61.2797 68.5181 61.123C68.6405 60.9663 68.8674 60.9393 69.0241 61.0636L70.7656 62.4359C70.9222 62.5583 70.9493 62.7852 70.825 62.9419C70.7548 63.032 70.6485 63.0788 70.5423 63.0788Z" fill="white"/>
<path d="M66.7546 60.0965C66.6772 60.0965 66.5979 60.0713 66.5313 60.0191L58.8919 54.0005C58.7353 53.8781 58.7083 53.6512 58.8325 53.4945C58.955 53.3378 59.1819 53.3108 59.3386 53.4351L66.9779 59.4536C67.1346 59.5761 67.1616 59.803 67.0374 59.9597C66.9671 60.0497 66.8609 60.0965 66.7546 60.0965Z" fill="white"/>
<path d="M45.2486 45.9991C45.1712 45.9991 45.0919 45.9739 45.0253 45.9217L43.1128 44.4144C43.0047 44.3297 42.9543 44.1892 42.9831 44.0542L43.4225 42.0624C43.4495 41.9417 43.536 41.8427 43.653 41.8013C43.7701 41.7598 43.8997 41.7815 43.997 41.8571L46.6083 43.9137C46.765 44.0362 46.792 44.2631 46.6677 44.4198C46.5452 44.5764 46.3183 44.6034 46.1617 44.4792L44.0024 42.7773L43.7359 43.9875L45.4719 45.3544C45.6286 45.4769 45.6556 45.7038 45.5313 45.8605C45.4611 45.9505 45.3549 45.9973 45.2486 45.9973V45.9991Z" fill="white"/>
<path d="M31.6879 44.7168C30.7569 44.7168 30.0005 43.9604 30.0005 43.0293C30.0005 42.0983 30.7569 41.3419 31.6879 41.3419C32.619 41.3419 33.3753 42.0983 33.3753 43.0293C33.3753 43.9604 32.619 44.7168 31.6879 44.7168ZM31.6879 42.0623C31.1549 42.0623 30.7208 42.4963 30.7208 43.0293C30.7208 43.5624 31.1549 43.9964 31.6879 43.9964C32.221 43.9964 32.655 43.5624 32.655 43.0293C32.655 42.4963 32.221 42.0623 31.6879 42.0623Z" fill="white"/>
<path d="M37.7553 46.343C36.8242 46.343 36.0679 45.5866 36.0679 44.6556C36.0679 43.7245 36.8242 42.9681 37.7553 42.9681C38.6864 42.9681 39.4427 43.7245 39.4427 44.6556C39.4427 45.5866 38.6864 46.343 37.7553 46.343ZM37.7553 43.6867C37.2222 43.6867 36.7882 44.1207 36.7882 44.6538C36.7882 45.1868 37.2222 45.6208 37.7553 45.6208C38.2884 45.6208 38.7224 45.1868 38.7224 44.6538C38.7224 44.1207 38.2884 43.6867 37.7553 43.6867Z" fill="white"/>
<path d="M57.8445 50.8237C57.7815 50.8237 57.7185 50.8075 57.6609 50.7732C57.4898 50.6724 57.4339 50.4509 57.5348 50.2798C58.0462 49.4208 58.4604 48.5329 58.7666 47.6415C59.7535 44.7619 59.4653 41.6914 57.9526 38.9954C56.4092 36.2437 53.7565 34.2735 50.6788 33.5928L48.9338 33.2056C41.2836 31.511 34.8814 26.5225 31.3679 19.5207C31.2779 19.3424 31.3499 19.1263 31.5282 19.038C31.7065 18.9498 31.9226 19.02 32.0108 19.1983C35.4271 26.0074 41.6528 30.8554 49.0886 32.5032L50.8337 32.8904C54.1131 33.6162 56.9369 35.7142 58.5811 38.6443C60.1947 41.5203 60.5027 44.7997 59.4473 47.8756C59.125 48.8139 58.691 49.7467 58.1543 50.649C58.0877 50.7624 57.967 50.8255 57.8445 50.8255V50.8237Z" fill="white"/>
<path d="M29.8188 31.9161C29.7882 31.9161 29.7557 31.9125 29.7251 31.9035C29.5324 31.8513 29.419 31.6532 29.4712 31.4623C30.1735 28.8654 33.2116 27.3382 38.0272 27.1599C38.2271 27.1491 38.3928 27.3076 38.4 27.5075C38.4072 27.7056 38.2523 27.8731 38.0524 27.8803C35.4628 27.9757 30.993 28.5917 30.1663 31.6496C30.1231 31.8098 29.9773 31.9161 29.8188 31.9161Z" fill="white"/>
<path d="M56.2485 72.1245C56.1512 72.1245 56.054 72.0849 55.9837 72.0093L55.8235 71.8346C51.8111 67.4819 51.1592 60.9104 54.2387 55.8553C54.3413 55.6842 54.5646 55.632 54.7339 55.7347C54.9032 55.8373 54.9572 56.0588 54.8546 56.2299C51.9408 61.0131 52.5585 67.2279 56.3529 71.3466L56.5132 71.5212C56.6483 71.6671 56.6393 71.8958 56.4934 72.0309C56.425 72.0957 56.3367 72.1263 56.2485 72.1263V72.1245Z" fill="white"/>
<path d="M61.8598 36.1122C61.8292 36.1122 61.7985 36.1085 61.7661 36.0995C61.5734 36.0491 61.46 35.851 61.5104 35.6583C62.7494 31.0084 62.0633 26.2055 59.6285 22.4812C59.5204 22.3156 59.5673 22.0922 59.7329 21.9824C59.8986 21.8725 60.1219 21.9194 60.2318 22.0868C62.7782 25.9822 63.4986 30.9958 62.2074 35.8438C62.1641 36.0041 62.0183 36.1122 61.8598 36.1122Z" fill="white"/>
<path d="M59.6647 35.932C59.4972 35.932 59.3477 35.8149 59.3117 35.6457C59.0668 34.4625 58.7048 33.3099 58.2348 32.2186C58.1556 32.0367 58.2402 31.8242 58.4239 31.7449C58.6058 31.6657 58.8183 31.7503 58.8975 31.934C59.3874 33.0704 59.7638 34.2698 60.0177 35.4998C60.0573 35.6943 59.933 35.8852 59.7385 35.9248C59.7133 35.9302 59.6899 35.932 59.6647 35.932Z" fill="white"/>
<path d="M45.2631 28.5683C45.1929 28.5683 45.1226 28.5485 45.0614 28.5052C42.9274 27.0573 41.3624 25.2456 40.4079 23.1242C40.3269 22.9423 40.4079 22.7298 40.588 22.6488C40.7699 22.5677 40.9824 22.6488 41.0634 22.8289C41.9621 24.8278 43.4424 26.5369 45.4648 27.911C45.6287 28.0226 45.6719 28.2459 45.5603 28.4116C45.49 28.5143 45.3766 28.5701 45.2613 28.5701L45.2631 28.5683Z" fill="white"/>
<path d="M28.187 62.3925H25.5902C25.3921 62.3925 25.23 62.2304 25.23 62.0323C25.23 61.8342 25.3921 61.6721 25.5902 61.6721H28.187C28.3851 61.6721 28.5472 61.8342 28.5472 62.0323C28.5472 62.2304 28.3851 62.3925 28.187 62.3925Z" fill="white"/>
</svg>
