<svg width="34" height="34" viewBox="0 0 34 34" fill="none" xmlns="http://www.w3.org/2000/svg">
<g clip-path="url(#clip0_324_135)">
<path d="M23.8251 12.0448L15.2034 19.0921L14.7978 19.4244C14.7086 19.495 14.6505 19.5975 14.6355 19.7103L14.5447 20.4598L14.2955 22.5655C14.2978 22.5911 14.2898 22.6166 14.2733 22.6364C14.2569 22.6561 14.2332 22.6685 14.2076 22.6708C14.182 22.6731 14.1565 22.6651 14.1367 22.6487C14.117 22.6322 14.1046 22.6085 14.1023 22.5829L13.401 20.4772L12.6766 18.3232C12.6457 18.2267 12.6497 18.1224 12.6878 18.0285C12.7259 17.9346 12.7958 17.857 12.8853 17.8094L21.8566 12.6669L23.545 11.701C23.7904 11.558 24.0415 11.8671 23.8251 12.0448Z" fill="white"/>
<path d="M29.3636 0H4.63636C3.40672 0 2.22745 0.488473 1.35796 1.35796C0.488473 2.22745 0 3.40672 0 4.63636L0 29.3636C0 30.5933 0.488473 31.7726 1.35796 32.642C2.22745 33.5115 3.40672 34 4.63636 34H29.3636C30.5933 34 31.7726 33.5115 32.642 32.642C33.5115 31.7726 34 30.5933 34 29.3636V4.63636C34 3.40672 33.5115 2.22745 32.642 1.35796C31.7726 0.488473 30.5933 0 29.3636 0ZM27.6037 9.84068L24.2849 24.5051C24.1284 25.1928 23.2552 25.5039 22.6428 25.0847L17.6317 21.6847L15.0798 24.0975C14.9757 24.1951 14.8494 24.2659 14.7118 24.3037C14.5742 24.3415 14.4295 24.3451 14.2901 24.3143C14.1508 24.2834 14.0211 24.2191 13.9123 24.1267C13.8035 24.0344 13.7188 23.917 13.6657 23.7845L12.7442 21.08L11.8227 18.3755L6.88307 17.0232C6.74496 16.993 6.62067 16.9181 6.52955 16.81C6.43842 16.7019 6.38555 16.5668 6.37916 16.4256C6.37277 16.2843 6.41322 16.145 6.49422 16.0291C6.57521 15.9132 6.69222 15.8274 6.82705 15.7849L25.9095 8.90954L26.2611 8.78398C27.001 8.52511 27.766 9.12398 27.6037 9.84068Z" fill="white"/>
</g>
<defs>
<clipPath id="clip0_324_135">
<rect width="34" height="34" fill="white"/>
</clipPath>
</defs>
</svg>
