<svg id="Layer_1" enable-background="new 0 0 64 64" height="64" viewBox="0 0 64 64" width="64" xmlns="http://www.w3.org/2000/svg"><path d="m21.142 31.772v9.095c0 1.104.896 2 2 2h9.087l5.083 5.087c.38.38.891.586 1.415.586.172 0 .346-.022.517-.068.69-.185 1.229-.724 1.415-1.414l7.792-29.066c.007-.026.004-.054.01-.08.015-.065.018-.13.026-.196.016-.135.022-.267.012-.399-.005-.069-.014-.136-.027-.205-.025-.134-.065-.263-.117-.39-.024-.058-.042-.116-.071-.172-.092-.176-.203-.341-.347-.485-.001-.001-.002-.003-.003-.005-.003-.004-.008-.005-.011-.008-.143-.141-.306-.251-.479-.341-.056-.029-.115-.048-.173-.071-.127-.052-.255-.092-.39-.117-.068-.013-.134-.021-.203-.027-.135-.011-.27-.004-.407.013-.063.008-.124.011-.186.024-.028.006-.056.004-.083.011l-29.046 7.796c-.69.186-1.229.725-1.413 1.414-.185.689.012 1.426.517 1.931zm16.55 10.903-2.136-2.139 5.074-8.817zm-5.79-3.808h-6.761v-6.767l15.938-9.185zm.392-15.504-8.821 5.084-2.138-2.142z"/><path d="m17.475 57.99h28.925c6.377 0 11.565-5.137 11.565-11.45v-28.942c0-6.382-5.188-11.573-11.565-11.573h-28.925c-6.311 0-11.446 5.191-11.446 11.573v28.942c0 6.314 5.135 11.45 11.446 11.45zm-7.446-40.392c0-4.176 3.34-7.573 7.446-7.573h28.925c4.242 0 7.565 3.326 7.565 7.573v28.942c0 4.108-3.394 7.45-7.565 7.45h-28.925c-4.105 0-7.446-3.342-7.446-7.45z"/></svg>