<svg id="Layer_1" enable-background="new 0 0 1024 1024" viewBox="0 0 1024 1024" xmlns="http://www.w3.org/2000/svg"><g id="XMLID_135_"><g id="XMLID_202_"><g id="XMLID_24_"><path id="XMLID_28_" d="m928.9 120.4c-2.1 6.6-4.2 13.1-6.4 19.7-5.8 17.9-11.6 35.7-17.3 53.6-8.5 26.4-17.1 52.9-25.6 79.3-10.4 32.2-20.9 64.5-31.3 96.7-11.4 35.3-22.9 70.7-34.3 106-11.5 35.7-23.1 71.3-34.6 107-10.8 33.3-21.5 66.5-32.3 99.8-9.1 28.1-18.2 56.2-27.3 84.4-6.6 20.3-13.1 40.6-19.7 60.9-3.1 9.5-6.3 19-9.3 28.6-.1.4-.3.8-.4 1.3 18.4-7.5 36.7-14.9 55.1-22.4-11.4-7.7-22.9-15.5-34.3-23.2-25.4-17.2-50.9-34.4-76.3-51.6-25.6-17.3-51.2-34.6-76.8-51.9-12.3-8.3-24.7-16.7-37-25-19.2-13-38.4-26-57.7-39-.7-.5-1.5-1-2.2-1.5 2.5 19.6 5.1 39.3 7.6 58.9 9.2-11.1 18.4-22.2 27.6-33.3 21.9-26.5 43.9-53 65.8-79.5 26.5-32 53.1-64.1 79.6-96.1 22.9-27.7 45.9-55.4 68.8-83.1 11.2-13.5 22.4-27 33.6-40.5.2-.2.3-.4.5-.6 6.2-7.5 11.4-16.3 11-26.5-.4-8.5-2.8-16-8.1-22.7-11.2-14.5-32.2-19.3-48.4-9.7-13.5 8.1-27 16.1-40.5 24.2-32.4 19.3-64.9 38.7-97.3 58-39.1 23.3-78.1 46.6-117.2 69.9-33.8 20.1-67.6 40.3-101.3 60.4-16.5 9.8-33.2 19.3-49.4 29.5-.2.1-.5.3-.7.4h37.9c-28.6-19.9-57.1-39.8-85.7-59.8-45.2-31.5-90.4-63.1-135.7-94.6-10.5-7.3-20.9-14.6-31.4-21.9-3 22.8-6 45.7-9 68.5l24.3-7.5c22-6.8 44-13.5 66.1-20.3 32.4-10 64.9-19.9 97.3-29.9 39.7-12.2 79.4-24.4 119.1-36.6 43.3-13.3 86.7-26.6 130-39.9 43.9-13.5 87.8-26.9 131.7-40.4 40.9-12.6 81.9-25.1 122.8-37.7 34.5-10.6 68.9-21.2 103.4-31.7 24.9-7.6 49.8-15.3 74.6-22.9 11.7-3.6 23.5-7.1 35.2-10.8.5-.2 1-.3 1.5-.5 9.2-2.8 17.5-8.9 22.4-17.2 4.7-8 6.7-19.9 3.8-28.9-6.1-18.9-26-32.4-46.1-26.2-8.1 2.5-16.2 5-24.3 7.5-22 6.8-44 13.5-66.1 20.3-32.4 10-64.9 19.9-97.3 29.9-39.7 12.2-79.4 24.4-119.1 36.6-43.3 13.3-86.7 26.6-130 39.9-43.9 13.5-87.8 26.9-131.7 40.4-40.9 12.6-81.9 25.1-122.8 37.7-34.5 10.6-68.9 21.2-103.4 31.7-24.9 7.6-49.8 15.3-74.6 22.9-11.7 3.6-23.5 7.1-35.2 10.8-.5.2-1 .3-1.5.5-14.4 4.4-24.8 16.2-26.9 31.2-2.1 15.6 5.3 28.5 17.9 37.3 28.6 19.9 57.1 39.8 85.7 59.8 45.2 31.5 90.4 63.1 135.7 94.6 10.5 7.3 20.9 14.6 31.4 21.9 10.7 7.5 27.1 6.4 37.9 0 13.5-8.1 27-16.1 40.5-24.2 32.4-19.3 64.9-38.7 97.3-58 39.1-23.3 78.1-46.6 117.2-69.9 33.8-20.1 67.6-40.3 101.3-60.4 16.5-9.8 33.2-19.3 49.4-29.5.2-.1.5-.3.7-.4-15.1-19.6-30.3-39.3-45.4-58.9-9.2 11.1-18.4 22.2-27.6 33.3-21.9 26.5-43.9 53-65.8 79.5-26.5 32-53.1 64.1-79.6 96.1-22.9 27.7-45.9 55.4-68.8 83.1-11.2 13.5-22.4 27-33.6 40.5-.2.2-.3.4-.5.6-7.9 9.5-12 19-10.3 31.5 1.6 12.1 7.9 20.6 17.9 27.4 19.6 13.2 39.1 26.5 58.7 39.7 10.2 6.9 20.4 13.8 30.6 20.7l74.1 50.1c26.1 17.6 52.2 35.3 78.3 52.9 14 9.5 27.8 19.3 42 28.4.2.1.4.3.6.4 9.8 6.6 23 6.3 33.4 1.9 11-4.6 18-13 21.7-24.3 2.1-6.6 4.2-13.1 6.4-19.7 5.8-17.9 11.6-35.7 17.3-53.6 8.5-26.4 17.1-52.9 25.6-79.3 10.4-32.2 20.9-64.5 31.3-96.7 11.4-35.3 22.9-70.7 34.3-106 11.5-35.7 23.1-71.3 34.6-107 10.8-33.3 21.5-66.5 32.3-99.8 9.1-28.1 18.2-56.2 27.3-84.4 6.6-20.3 13.1-40.6 19.7-60.9 3.1-9.5 6.3-19 9.3-28.6.1-.4.3-.8.4-1.3 6-18.7-7-41.8-26.2-46.1-20.6-4.7-39.7 6.2-46.2 26.2z"/></g></g><g id="XMLID_220_"><g id="XMLID_18_"><path id="XMLID_22_" d="m691.7 315.8c-20.5 24.7-40.9 49.4-61.4 74.1-40.3 48.6-80.5 97.2-120.8 145.9-29.2 35.3-58.5 70.6-87.7 105.9-2 2.4-4 4.7-5.9 7.1-4.6 5.7-6.7 9.3-9.6 15.5-10 21.7-20 43.5-30 65.2-21.9 47.5-43.7 95-65.6 142.5-.4.9-.8 1.8-1.3 2.8l69.9 18.9c-3.4-34.8-6.8-69.7-10.2-104.5-5.4-55.5-10.8-110.9-16.2-166.4-1.2-12.6-2.5-25.3-3.7-37.9-6.2 10.8-12.4 21.6-18.6 32.4 13.5-8.1 27-16.1 40.5-24.2 32.4-19.3 64.9-38.7 97.3-58 39.1-23.3 78.1-46.6 117.2-69.9 33.8-20.1 67.6-40.3 101.3-60.4 16.5-9.8 33.1-19.4 49.4-29.5.2-.1.5-.3.7-.4 16.8-10 24.5-34.2 13.5-51.3-10.9-16.9-33.3-24.2-51.3-13.5-13.5 8.1-27 16.1-40.5 24.2-32.4 19.3-64.9 38.7-97.3 58-39.1 23.3-78.1 46.6-117.2 69.9-33.8 20.1-67.6 40.3-101.3 60.4-16.5 9.8-33.1 19.4-49.4 29.5-.2.1-.5.3-.7.4-10.5 6.3-19.8 19.5-18.6 32.4 3.4 34.8 6.8 69.7 10.2 104.5 5.4 55.5 10.8 110.9 16.2 166.4 1.2 12.6 2.5 25.3 3.7 37.9.8 8.6 2.7 15.7 8.1 22.7 4.8 6.2 11.6 11.7 19.5 13.4 6.6 1.5 13.3 1.5 19.9 0 8.1-1.8 18.9-9.5 22.4-17.2 11.3-24.6 22.7-49.3 34-73.9 18-39.2 36.1-78.4 54.1-117.6 4.1-8.9 8.2-17.9 12.3-26.8-2 2.5-3.9 5.1-5.9 7.6 9.2-11.1 18.4-22.2 27.6-33.3 21.9-26.5 43.9-53 65.8-79.5 26.5-32 53.1-64.1 79.6-96.1 22.9-27.7 45.9-55.4 68.8-83.1 11.2-13.5 22.4-27 33.6-40.5.2-.2.3-.4.5-.6 6.5-7.9 11-16 11-26.5 0-9.2-4.1-20.2-11-26.5-7.1-6.6-16.5-11.4-26.5-11-9.3.4-20.2 3.4-26.4 11z"/></g></g><g id="XMLID_156_"><g id="XMLID_12_"><path id="XMLID_16_" d="m465.9 684.8c-17 20.5-33.9 41.1-50.9 61.6-27 32.7-54.1 65.5-81.1 98.2-6.2 7.5-12.4 15-18.6 22.5-6.5 7.9-11 15.9-11 26.5 0 9.2 4.1 20.2 11 26.5 7.1 6.6 16.5 11.4 26.5 11 9.4-.4 20.3-3.4 26.5-11 17-20.5 33.9-41.1 50.9-61.6 27-32.7 54.1-65.5 81.1-98.2l18.6-22.5c6.5-7.9 11-15.9 11-26.5 0-9.2-4.1-20.2-11-26.5-7.1-6.6-16.5-11.4-26.5-11-9.3.4-20.2 3.4-26.5 11z"/></g></g></g></svg>