<svg id="a" height="512" viewBox="0 0 512 512" width="512" xmlns="http://www.w3.org/2000/svg" data-name="outline"><path d="m484.103 497.978c-8.445-5.046-23.993-10.807-47.448-17.592-8.011-20.2-16.899-41.932-19.499-48.274 1.001-11 5.29-62.751-.41-85.147-2.624-10.309-13.461-26.85-26.197-43.3 12.983-13.603 33.45-40.258 33.45-73.088 0-35.407-10.292-59.072-34.195-77.936 3.609-12.989 7.166-44.106-25.112-79.385-7.283-7.961-16.577-14.433-27.514-19.296-6.317-10.999-18.942-28.87-39.317-40.674-25.661-14.867-55.527-16.021-88.768-3.426-48.837 18.501-63.929 66.674-67.946 84.752-2.728 2.551-5.372 5.179-7.908 7.9-24.972 26.793-39.909 60.559-44.396 100.36-5.574 49.436 18.355 84.312 32.843 100.488-12.838 16.55-23.794 33.232-26.434 43.605-5.699 22.396-1.411 74.146-.41 85.147-2.6 6.341-11.488 28.074-19.499 48.274-23.451 6.783-39.004 12.547-47.448 17.592-3.793 2.266-5.031 7.178-2.765 10.971 1.498 2.508 4.152 3.898 6.875 3.898 1.396 0 2.81-.365 4.095-1.133 4.172-2.493 13.034-6.526 31.843-12.405-.352.917-.697 1.821-1.03 2.695-1.57 4.13.506 8.75 4.636 10.32.936.355 1.896.524 2.84.524 3.226 0 6.266-1.965 7.479-5.16 9.74-25.629 28.333-70.864 28.519-71.318.497-1.209.69-2.522.563-3.823-1.622-16.546-4.818-63.468-.195-81.635 2.212-8.691 14.245-26.783 32.189-48.395 17.29-20.825 31.695-34.935 34.523-36.633.636-.344 2.567-.327 5.053 1.189 6.329 3.861 12.921 15.257 12.445 35.662-.602 25.761-5.396 47.014-14.249 63.17-7.689 14.033-11.351 29.372-14.581 42.906-2.588 10.843-5.033 21.085-8.752 25.887-9.163 11.828-15.877 17.66-15.931 17.706-1.625 1.388-2.627 3.369-2.783 5.5l-3.383 46.358c-.321 4.407 2.99 8.24 7.396 8.562 4.409.308 8.24-2.991 8.562-7.396l2.059-28.218c20.178-4.579 34.869-7.591 35.026-7.623 3.335-.682 5.873-3.4 6.325-6.774l5.821-43.41c18.844 14.212 38.539 22.197 56.052 22.197s36.591-7.562 55.102-21.371l5.71 42.585c.455 3.388 3.011 6.113 6.363 6.782.134.027 12.941 2.592 34.99 7.654l2.056 28.179c.322 4.406 4.149 7.712 8.562 7.396 4.406-.322 7.718-4.155 7.396-8.562l-3.383-46.358c-.155-2.119-1.16-4.102-2.77-5.489-.067-.058-6.782-5.89-15.944-17.717-3.719-4.802-6.164-15.044-8.752-25.888-3.23-13.534-6.892-28.873-14.581-42.906-8.853-16.156-13.647-37.409-14.249-63.169-.477-20.405 6.116-31.802 12.445-35.663 2.487-1.518 4.421-1.534 5.007-1.215 2.874 1.724 17.279 15.834 34.569 36.659 17.944 21.612 29.978 39.704 32.189 48.395 4.623 18.167 1.426 65.089-.195 81.635-.127 1.301.066 2.614.563 3.823.187.454 18.779 45.689 28.519 71.318 1.214 3.195 4.253 5.161 7.479 5.16.944 0 1.905-.168 2.84-.524 4.13-1.569 6.206-6.19 4.636-10.32-.332-.874-.678-1.778-1.029-2.694 18.823 5.884 27.683 9.919 31.842 12.404 1.286.768 2.699 1.134 4.095 1.134 2.723 0 5.377-1.391 6.875-3.898 2.266-3.793 1.028-8.705-2.765-10.971zm-379.359-293.312c4.095-36.317 17.621-67.017 40.202-91.244 19.76-21.201 46.221-36.841 76.524-45.23 9.199-2.546 18.345-4.573 27.185-6.023 4.36-.715 7.314-4.83 6.599-9.19s-4.83-7.312-9.19-6.599c-9.402 1.542-19.113 3.693-28.862 6.392-19.543 5.41-37.637 13.628-53.674 24.233 7.796-18.466 22.845-41.426 51.236-52.182 49.979-18.933 80.787 1.58 97.588 21.428-10.26-2.032-21.38-3.015-33.19-2.878-4.418.053-7.957 3.677-7.904 8.095s3.688 8.003 8.095 7.904c32.518-.376 58.62 8.38 73.538 24.685 24.236 26.489 24.484 49.161 22.431 60.422-7.726-3.129-20.25-7.386-36.576-10.182-25.546-4.375-65.82-5.874-112.616 11.832-40.687 15.395-69.299 41.919-85.042 78.837-9.801 22.983-12.485 45.452-12.887 61.24-12.416-16.012-27.688-44.005-23.455-81.541zm86.113 48.749c-3.291-2.008-6.753-3.198-10.13-3.574-.035-.171-.08-.339-.108-.512-1.06-6.53 3.391-12.704 9.92-13.764 6.538-1.057 12.705 3.391 13.764 9.92.273 1.683.18 3.386-.278 5.063-.664 2.432-.142 5.034 1.407 7.022 1.549 1.989 3.967 3.139 6.464 3.083 15.803-.295 29.611 11.245 32.146 26.861 2.716 16.735-8.111 32.704-24.649 36.355-3.208.708-5.657 3.307-6.175 6.552s1.001 6.476 3.83 8.147c4.108 2.428 6.901 6.515 7.664 11.215.684 4.217-.315 8.449-2.813 11.916-2.499 3.466-6.197 5.752-10.415 6.437-4.527.735-9.026-.485-12.498-3.244 7.383-16.989 11.416-37.707 11.979-61.781.777-33.306-13.803-45.848-20.108-49.694zm-11.306 201.662c-5.02 1.06-13.123 2.797-23.003 5.004 3.259-3.317 7.988-8.485 13.487-15.584 5.833-7.529 8.536-18.856 11.667-31.971.605-2.533 1.228-5.137 1.889-7.776.796.787 1.595 1.562 2.397 2.326l-6.436 48.001zm175.927 5.031c-10.361-2.342-18.198-4.026-23.031-5.042l-6.311-47.063c.832-.786 1.661-1.584 2.488-2.395.582 2.345 1.135 4.66 1.674 6.919 3.13 13.115 5.833 24.442 11.667 31.972 5.513 7.117 10.253 12.294 13.513 15.61zm-71.976-99.846c-1.054-2.162-1.784-4.464-2.169-6.84-1.791-11.034 4.089-21.893 14.297-26.406 2.47-1.092 4.222-3.356 4.66-6.021s-.499-5.37-2.49-7.194c-2.321-2.126-3.813-4.892-4.318-7.999-1.013-6.241 2.373-12.334 8.007-14.87-.382 3.716-.556 7.76-.453 12.179.639 27.357 5.756 50.385 15.187 68.521-2.109 1.01-4.361 1.729-6.698 2.109-3.391.551-6.79.392-10.104-.469-2.217-.576-4.57-.175-6.471 1.1-1.9 1.275-3.164 3.303-3.47 5.571-.467 3.455-3.199 6.258-6.643 6.817-4.355.708-8.469-2.261-9.176-6.613-.623-3.838 1.593-7.548 5.267-8.82 2.163-.749 3.901-2.388 4.775-4.503.875-2.115.801-4.503-.201-6.561zm21.39-85.109c-1.451-2.003-2.415-4.314-2.818-6.796-.684-4.217.314-8.449 2.813-11.916s6.197-5.752 10.415-6.437c3.358-.544 6.721.033 9.648 1.481-1.284.529-2.558 1.168-3.806 1.93-4.087 2.493-11.647 8.649-16.251 21.737zm46.858-83.56c-10.079-12.514-21.16-23.268-32.934-31.964-3.555-2.625-8.563-1.871-11.188 1.682-2.625 3.554-1.872 8.563 1.682 11.188 10.672 7.882 20.759 17.684 29.979 29.13 20.182 25.057 26.576 53.945 28.287 74.598-7.886-8.741-15.087-16.038-20.142-20.431.083-1.331-.16-2.701-.784-3.987-6.121-12.608-20.064-19.846-33.91-17.597-8.436 1.369-15.834 5.941-20.832 12.875-4.998 6.933-6.996 15.397-5.626 23.834.506 3.119 1.455 6.104 2.81 8.888-8.538 6.532-13.206 17.444-11.402 28.556.514 3.171 1.544 6.231 3.023 9.056-11.525 8.94-17.591 23.656-15.172 38.563.231 1.426.538 2.836.918 4.226-6.545 5.279-10.005 13.778-8.59 22.5 1.91 11.766 12.12 20.156 23.674 20.156 1.272 0 2.562-.102 3.857-.312 7.688-1.248 14.043-5.992 17.454-12.581 3.067.208 6.153.062 9.234-.438 3.757-.61 7.384-1.748 10.79-3.35.21.573.421 1.146.623 1.721-21.865 23.671-46.675 37.696-66.969 37.696-20.595 0-45.674-14.33-67.73-38.524.927-2.588 1.944-5.145 3.068-7.646 5.042 3.186 10.903 4.918 16.977 4.918 1.722 0 3.461-.139 5.202-.421 8.436-1.369 15.834-5.941 20.832-12.875 4.997-6.933 6.995-15.397 5.626-23.833-.737-4.542-2.421-8.797-4.891-12.53 17.343-9.545 27.543-29.26 24.22-49.739-3.323-20.475-19.585-36.288-39.456-39.644-.06-.795-.154-1.59-.283-2.384-2.473-15.239-16.886-25.627-32.12-23.151-15.238 2.473-25.624 16.882-23.151 32.12.17 1.049.405 2.079.688 3.091-4.997 4.203-12.46 11.705-20.692 20.806 1.187-12.908 4.188-28.612 10.982-44.545 13.967-32.754 39.533-56.356 75.986-70.148 43.117-16.313 80.111-15.064 103.553-11.145 23.28 3.894 38.22 11.115 40.761 12.405 22.644 16.263 31.897 36.068 31.897 68.223 0 23.443-13.029 43.611-23.869 56.335-.26-24.564-5.806-62.326-32.382-95.322z"/></svg>