<svg width="99" height="119" viewBox="0 0 99 119" fill="none" xmlns="http://www.w3.org/2000/svg">
<path d="M52.6866 82.0166C52.2825 82.4629 51.4969 82.3665 50.6636 82.2655C49.8985 82.1736 49.1061 82.1758 48.35 82.2655C47.4895 82.371 46.7448 82.4607 46.3406 82.0166C46.2271 81.8932 46.0341 81.882 45.9092 81.9941C45.7844 82.1063 45.773 82.2969 45.8865 82.4203C46.5018 83.0977 47.4804 82.9811 48.4249 82.8667C49.1447 82.7792 49.8621 82.777 50.5887 82.8667C50.9542 82.9115 51.3243 82.9564 51.6763 82.9564C52.2416 82.9564 52.7616 82.8398 53.143 82.4226C53.2565 82.2992 53.2452 82.1063 53.1203 81.9964C52.9954 81.8842 52.8001 81.8954 52.6889 82.0188L52.6866 82.0166ZM42.4921 77.9454C42.3718 77.8288 42.1788 77.831 42.0608 77.9499C41.9427 78.0688 41.945 78.2595 42.0653 78.3761C42.0971 78.4075 42.8804 79.1589 43.7636 79.1589C44.0043 79.1589 44.3471 79.0221 44.9851 78.7619C46.2384 78.2482 48.132 77.4744 49.3922 78.0284C49.4716 78.0643 49.5624 78.0643 49.6419 78.0284C50.9066 77.4721 52.8774 78.2841 54.0557 78.7686C54.6778 79.0243 55.0161 79.1589 55.2477 79.1589C55.9675 79.1589 56.6668 78.6654 56.9665 78.3761C57.0868 78.2595 57.0891 78.0688 56.971 77.9477C56.853 77.8288 56.66 77.8265 56.5374 77.9432C56.3625 78.1137 55.7904 78.5533 55.2477 78.5533C55.1274 78.5533 54.6824 78.3694 54.2919 78.2101C52.9772 77.6695 51.011 76.8598 49.5193 77.425C48.0344 76.862 46.0682 77.6673 44.7536 78.2034C44.3517 78.3671 43.8953 78.5533 43.7682 78.5533C43.3004 78.5533 42.7419 78.1787 42.499 77.9432L42.4921 77.9454ZM45.9206 74.7446C46.8628 73.9461 48.3137 74.0717 49.2991 75.0384C49.3581 75.0967 49.4376 75.1259 49.5148 75.1259C49.592 75.1259 49.6714 75.0967 49.7305 75.0384C50.7136 74.0717 52.1667 73.9438 53.1089 74.7446C53.2384 74.8545 53.4313 74.8388 53.5403 74.7132C53.6516 74.5876 53.6357 74.3969 53.5085 74.287C52.3892 73.336 50.7204 73.4077 49.517 74.4149C48.3137 73.4055 46.6426 73.336 45.5255 74.287C45.3984 74.3947 45.3825 74.5853 45.4937 74.7132C45.605 74.841 45.7957 74.8545 45.9251 74.7446H45.9206ZM46.8742 67.6543C47.326 67.8136 47.7074 68.2173 47.8005 68.4977C47.8437 68.6255 47.9617 68.7063 48.0912 68.7063C48.1229 68.7063 48.1547 68.7018 48.1865 68.6906C48.3477 68.639 48.4363 68.4685 48.3818 68.3093C48.216 67.8068 47.6689 67.2909 47.0808 67.0846C46.9241 67.0285 46.747 67.1092 46.6903 67.2663C46.6335 67.4233 46.7153 67.596 46.8742 67.6521V67.6543ZM51.9487 67.0846C51.2517 67.3223 50.784 67.8876 50.6455 68.3115C50.5932 68.4708 50.6818 68.6413 50.8407 68.6928C50.8725 68.7018 50.9043 68.7085 50.9361 68.7085C51.0655 68.7085 51.1858 68.6278 51.2267 68.4999C51.3221 68.2083 51.6944 67.8136 52.1485 67.6565C52.3075 67.6027 52.3937 67.43 52.337 67.273C52.2825 67.116 52.1077 67.0307 51.9487 67.0868V67.0846ZM34.7725 56.4278C35.272 56.1856 35.851 55.9747 36.4844 55.8357C36.3732 56.0398 36.3051 56.2731 36.3051 56.5243C36.3051 57.3251 36.9703 57.9755 37.7854 57.9755C38.6005 57.9755 39.2454 57.3251 39.2454 56.5243C39.2454 56.2596 39.1682 56.0151 39.0433 55.802C39.57 55.9007 40.0832 56.0488 40.5668 56.217C40.5713 56.5557 40.4896 57.2039 40.2898 57.5067C40.199 57.6458 40.2376 57.8342 40.3806 57.924C40.4328 57.9576 40.4896 57.9733 40.5463 57.9733C40.6462 57.9733 40.7439 57.9239 40.8029 57.8365C41.039 57.4776 41.1503 56.8899 41.173 56.4391C41.5431 56.5826 41.8927 56.7306 42.2083 56.863C42.9508 57.1793 43.4889 57.4058 43.8658 57.4058C44.0338 57.4058 44.1723 57.2712 44.1723 57.103C44.1723 56.9348 44.0361 56.8002 43.8658 56.8002C43.6138 56.8002 43.0484 56.5602 42.449 56.3067C41.2207 55.7863 39.5405 55.073 37.7854 55.073C36.6161 55.073 35.4718 55.4162 34.4841 55.8917C34.1685 55.7168 33.5442 55.1964 33.2263 54.6581C33.1423 54.5145 32.9538 54.4652 32.8085 54.5482C32.6632 54.6312 32.6133 54.8173 32.6973 54.9609C32.9902 55.4566 33.467 55.9164 33.8734 56.2125C33.4511 56.4548 33.0628 56.7127 32.7359 56.9729C32.1909 56.6835 31.5234 56.125 31.2351 55.5822C31.1556 55.4342 30.9717 55.3758 30.8218 55.4566C30.672 55.5351 30.6152 55.7168 30.6947 55.8648C31.0898 56.605 31.998 57.3138 32.6541 57.6054C32.695 57.6234 32.7381 57.6324 32.779 57.6324C32.8494 57.6324 32.9198 57.6077 32.9765 57.5606C33.1309 57.4305 33.5714 57.0895 34.1912 56.7329C34.298 57.3766 34.6317 57.8679 34.6499 57.8948C34.7089 57.98 34.8043 58.0249 34.9019 58.0249C34.9609 58.0249 35.0222 58.0069 35.0745 57.9711C35.213 57.8768 35.2493 57.6884 35.1539 57.5516C35.1494 57.5449 34.7997 57.0245 34.7748 56.4256L34.7725 56.4278ZM37.7832 55.6764C38.2509 55.6764 38.6323 56.0555 38.6323 56.522C38.6323 56.9886 38.2509 57.3677 37.7832 57.3677C37.3154 57.3677 36.9136 56.9953 36.9136 56.522C36.9136 56.0488 37.295 55.6764 37.7832 55.6764ZM35.3946 53.3302C35.2311 53.375 35.1358 53.5388 35.1789 53.7003C35.2243 53.8618 35.3901 53.956 35.5535 53.9134C36.8 53.5792 38.5937 53.4491 39.8947 54.0816C39.9378 54.1018 39.9833 54.113 40.0287 54.113C40.1422 54.113 40.2512 54.0524 40.3034 53.9448C40.3783 53.7945 40.3147 53.6151 40.1649 53.541C38.7118 52.8322 36.7478 52.9691 35.3946 53.3302ZM34.307 45.7375C35.9781 45.8137 39.1568 46.1681 41.6657 47.671C41.7156 47.7001 41.7701 47.7158 41.8246 47.7158C41.9291 47.7158 42.029 47.6642 42.0857 47.57C42.1743 47.4265 42.1266 47.2403 41.9836 47.1551C39.3589 45.5827 36.0667 45.2126 34.3366 45.1341C31.7641 45.0062 29.7956 45.6006 29.0736 46.7311C28.9827 46.8724 29.0259 47.0586 29.1689 47.1483C29.312 47.2381 29.5004 47.1954 29.5912 47.0541C30.1838 46.1255 31.9911 45.6231 34.307 45.7397V45.7375ZM54.8549 57.1052C54.8549 57.2712 54.9912 57.4081 55.1615 57.4081C55.5384 57.4081 56.0719 57.1815 56.8098 56.8675C57.1254 56.7329 57.4751 56.5848 57.8474 56.4413C57.8724 56.9034 57.9973 57.4933 58.2243 57.841C58.2834 57.9307 58.381 57.9778 58.4809 57.9778C58.5377 57.9778 58.5944 57.9621 58.6467 57.9284C58.7874 57.8387 58.8283 57.6503 58.7375 57.5112C58.5399 57.2107 58.4378 56.5512 58.4514 56.2215C58.9395 56.0532 59.4527 55.903 59.9862 55.8043C59.8614 56.0174 59.7842 56.2641 59.7842 56.5288C59.7842 57.3295 60.4381 57.98 61.2441 57.98C62.0501 57.98 62.7244 57.3295 62.7244 56.5288C62.7244 56.2776 62.6541 56.0443 62.5383 55.8379C63.1649 55.9747 63.7394 56.1833 64.2366 56.4234C64.2162 57.029 63.8779 57.5583 63.8733 57.5628C63.7802 57.7019 63.8211 57.8903 63.9619 57.98C64.0141 58.0137 64.0731 58.0294 64.1299 58.0294C64.2298 58.0294 64.3251 57.9823 64.3842 57.8948C64.4023 57.8679 64.7247 57.3744 64.8246 56.7284C65.4536 57.0895 65.9009 57.435 66.0553 57.5651C66.112 57.6122 66.1824 57.6368 66.2528 57.6368C66.2959 57.6368 66.3391 57.6279 66.3777 57.6099C67.0111 57.3295 67.9102 56.6252 68.3325 55.876C68.4143 55.7302 68.3621 55.5463 68.2145 55.4656C68.0669 55.3848 67.8807 55.4364 67.799 55.5822C67.4879 56.1362 66.8249 56.6948 66.2937 56.9796C65.9644 56.7194 65.5762 56.4592 65.1516 56.2147C65.5603 55.9209 66.0371 55.4656 66.3322 54.9676C66.4163 54.8241 66.3686 54.6379 66.221 54.5549C66.0757 54.4719 65.8872 54.519 65.8032 54.6648C65.4785 55.2166 64.861 55.7235 64.5386 55.8962C63.5532 55.4229 62.4111 55.082 61.2441 55.082C59.4731 55.082 57.7952 55.7975 56.5692 56.3179C55.9766 56.5714 55.4135 56.8092 55.1637 56.8092C54.9957 56.8092 54.8572 56.9437 54.8572 57.112L54.8549 57.1052ZM61.2418 55.6764C61.7209 55.6764 62.1114 56.0555 62.1114 56.522C62.1114 56.9886 61.7141 57.3677 61.2418 57.3677C60.7696 57.3677 60.3927 56.9886 60.3927 56.522C60.3927 56.0555 60.7741 55.6764 61.2418 55.6764ZM58.8601 53.541C58.708 53.6151 58.6467 53.7967 58.7216 53.9448C58.7761 54.0524 58.8828 54.113 58.9963 54.113C59.0417 54.113 59.0871 54.104 59.1303 54.0816C60.429 53.4491 62.2249 53.5792 63.4714 53.9134C63.6349 53.956 63.8029 53.8618 63.8461 53.7003C63.8892 53.5388 63.7938 53.3728 63.6304 53.3302C62.2772 52.9668 60.3132 52.8322 58.8601 53.541ZM57.2004 47.7158C57.2548 47.7158 57.3093 47.7024 57.3593 47.671C59.8682 46.1681 63.0469 45.8137 64.7202 45.7375C67.0384 45.6208 68.8411 46.1233 69.4337 47.0519C69.5245 47.1932 69.713 47.2358 69.856 47.1461C69.9991 47.0564 70.0422 46.8702 69.9514 46.7289C69.2294 45.5984 67.2631 44.9995 64.6907 45.1318C62.9606 45.2103 59.6684 45.5782 57.0437 47.1528C56.8984 47.2381 56.853 47.4242 56.9415 47.5678C56.9983 47.662 57.1005 47.7136 57.2026 47.7136L57.2004 47.7158ZM15.6141 65.3776C13.2074 63.9959 12.3969 60.73 13.6434 57.4372C13.7024 57.2802 13.6229 57.1075 13.464 57.0492C13.305 56.9886 13.1302 57.0693 13.0712 57.2264C11.718 60.8018 12.6375 64.3682 15.3053 65.9025C15.353 65.9294 15.4075 65.9429 15.4597 65.9429C15.5665 65.9429 15.6686 65.889 15.7254 65.7926C15.8094 65.649 15.7617 65.4628 15.6141 65.3799V65.3776ZM50.2186 15.306C52.1349 15.5639 53.6107 16.441 54.2692 17.715C56.106 21.3084 53.9354 25.6711 50.8702 27.6495C50.7295 27.7415 50.6886 27.9276 50.7817 28.0667C50.8407 28.1564 50.9384 28.2035 51.0383 28.2035C51.095 28.2035 51.1541 28.1878 51.204 28.1542C54.4894 26.0323 56.803 21.3308 54.8141 17.4391C54.0625 15.9856 52.4187 14.9897 50.3003 14.7048C47.1217 14.2809 43.7205 15.4473 41.6384 17.6881C41.5249 17.8115 41.5317 18.0021 41.6566 18.1143C41.7792 18.2264 41.9745 18.2197 42.088 18.0963C44.0088 16.0305 47.2738 14.909 50.2163 15.3037L50.2186 15.306ZM58.356 27.1852C58.44 27.1852 58.524 27.1515 58.5853 27.0842C60.4313 25.0341 61.4552 22.9481 61.5483 21.0527C61.5574 20.8867 61.4257 20.7454 61.2577 20.7364C61.1056 20.7297 60.9467 20.8575 60.9376 21.0235C60.8536 22.7798 59.8818 24.7358 58.129 26.6805C58.0155 26.8061 58.0268 26.9968 58.154 27.1067C58.213 27.1583 58.2856 27.1829 58.3583 27.1829L58.356 27.1852ZM85.8675 78.8068C83.8445 77.3017 81.9328 75.8818 80.8543 74.2085C77.8164 69.4645 80.0732 66.4161 81.2789 64.8774C82.8024 64.763 84.7391 63.0919 86.3875 60.4339C89.7478 55.0125 91.6981 46.0492 87.1163 37.1354C87.4478 32.97 84.6982 29.8297 82.1916 26.9855C81.2289 25.8932 80.3207 24.8591 79.5942 23.8004C78.745 21.1155 76.5812 18.4126 73.3095 16.5441C69.7266 7.9869 66.6365 7.47324 56.4534 5.78423L54.4077 5.44328C45.4302 3.9382 38.2055 5.22571 32.3272 9.36638C31.9525 8.37495 31.4871 7.35436 31.0035 6.30686C30.0817 4.3083 29.1281 2.24469 28.8102 0.25735C28.7875 0.116037 28.6694 0.0106141 28.5264 0.00164185C28.3743 -0.0140595 28.2517 0.0846346 28.2153 0.221461C27.9769 1.06709 27.9065 2.32993 27.8861 3.6466C27.5001 4.39802 27.0279 5.11131 26.5261 5.86498C25.3023 7.70204 24.0513 9.60414 23.8628 12.3272C23.0999 11.2864 22.026 10.7189 20.9589 10.8199C19.7669 10.9343 18.8155 11.8113 18.341 13.2312C17.3874 14.4604 16.7426 16.4836 17.1649 18.2511C15.4529 17.7823 11.1662 16.9591 9.60189 18.6728C8.8163 19.5341 8.83673 20.8665 9.66319 22.634C8.85489 23.6905 8.58017 24.8031 8.87306 25.864C9.18639 26.9945 10.1332 27.9568 11.5681 28.614C8.84808 30.1864 7.17701 32.2679 7.23831 34.0444C6.8387 34.9035 6.97493 35.7402 7.61748 36.3458C8.11472 36.8146 8.82992 37.0591 9.56102 37.0591C9.84937 37.0591 10.1377 37.0075 10.417 36.9312C10.249 37.4 10.0832 37.8711 9.9084 38.3399C9.0547 40.6368 8.16921 43.0099 8.16921 45.41C8.16921 45.5221 8.23278 45.6253 8.33268 45.6769C8.37809 45.6993 8.42577 45.7105 8.47572 45.7105C8.53703 45.7105 8.59833 45.6926 8.65055 45.6567C9.29764 45.2148 10.1354 45.0959 11.0232 44.9703C11.4796 44.9053 11.9473 44.8358 12.4105 44.7258C12.2697 45.5221 11.9269 46.4664 11.4932 47.6239C10.526 50.2101 9.20228 53.7541 9.20228 58.6103C9.20228 66.1088 15.0533 68.4326 19.3241 70.1284C20.0075 70.3998 20.6478 70.6533 21.2109 70.9112C25.8154 72.995 27.6681 75.1439 29.6276 77.4161C30.2451 78.1338 30.8877 78.8763 31.6279 79.6367C32.2114 80.572 32.9152 81.4737 33.6781 82.3328C34.8293 92.1596 33.7008 99.2858 30.4086 102.94C28.6036 104.945 26.1129 105.961 23.0068 105.961C23 105.961 22.9932 105.966 22.9864 105.966C22.9637 105.966 22.9455 105.972 22.9251 105.979C22.9069 105.984 22.8888 105.988 22.8729 105.997C22.8547 106.006 22.8411 106.017 22.8252 106.028C22.8093 106.042 22.7934 106.053 22.7798 106.069C22.7752 106.073 22.7684 106.078 22.7639 106.082C22.7571 106.093 22.7548 106.105 22.748 106.116C22.7366 106.134 22.7276 106.15 22.7208 106.17C22.7139 106.19 22.7117 106.21 22.7071 106.23C22.7071 106.242 22.7003 106.253 22.7003 106.264C22.7003 106.271 22.7049 106.277 22.7049 106.284C22.7049 106.307 22.7117 106.325 22.7185 106.347C22.723 106.365 22.7276 106.383 22.7366 106.399C22.7457 106.416 22.7571 106.43 22.7684 106.446C22.7821 106.461 22.7934 106.477 22.8093 106.49C22.8138 106.495 22.8184 106.502 22.8229 106.506C24.1239 107.484 25.3681 108.868 26.685 110.331C29.3528 113.294 32.1092 116.358 35.6852 116.358C40.5009 116.358 45.0101 112.361 46.7811 109.566C47.2216 112.242 49.0175 115.615 52.3143 117.576C53.5721 118.325 55.3045 119 57.4547 119C58.994 119 60.7491 118.652 62.6949 117.737C62.8266 117.674 62.8947 117.531 62.8607 117.392C62.8243 117.253 62.7017 117.152 62.5496 117.163C59.9045 117.286 57.7816 116.732 56.5782 115.597C55.7881 114.855 55.3885 113.863 55.3885 112.654C55.3885 109.24 59.5458 106.565 64.8519 106.565C66.8181 106.565 68.8003 106.845 70.8982 107.143C74.4629 107.65 78.1479 108.173 82.1848 107.374C89.5071 105.93 94.4272 99.6649 94.4272 91.7828C94.4272 85.1591 89.8817 81.781 85.8721 78.8L85.8675 78.8068ZM79.9166 25.2472C80.4774 25.9515 81.0881 26.6536 81.7307 27.3826C85.0183 31.1128 88.415 34.9708 85.3544 40.9171C85.2772 41.0652 85.3385 41.2469 85.4883 41.3231C85.5337 41.3456 85.5792 41.3568 85.6268 41.3568C85.7381 41.3568 85.8471 41.2962 85.8993 41.1908C86.4374 40.1478 86.7689 39.1653 86.9596 38.23C90.9034 46.6481 89.0394 55.0035 85.8675 60.1177C84.2941 62.6545 82.4277 64.2942 81.1131 64.2942C77.2328 64.2942 75.4369 59.0679 74.3107 54.4966C74.3834 53.9739 74.4447 53.4984 74.4946 53.0835C75.7139 54.999 77.5235 56.3224 79.383 56.6163C79.6577 56.6589 79.9325 56.6813 80.2072 56.6813C81.8533 56.6813 83.4812 55.9119 84.9616 54.4225C85.0797 54.3037 85.0774 54.113 84.957 53.9941C84.8367 53.8775 84.6437 53.8797 84.5234 53.9986C82.9431 55.5912 81.1971 56.2888 79.4784 56.0196C77.5485 55.7168 75.6662 54.1691 74.5673 51.9799C73.4752 49.7548 72.9371 47.2852 72.844 44.0955C73.4434 44.93 74.1404 45.6904 75.0169 46.3319C76.7924 47.6373 78.4226 48.0186 79.719 48.0186C80.239 48.0186 80.7044 47.9581 81.1063 47.8706C82.7774 47.5072 84.2736 46.4463 85.0115 45.1027C85.0933 44.9569 85.0365 44.7729 84.8889 44.6922C84.7413 44.6137 84.5552 44.6675 84.4734 44.8133C83.8173 46.0089 82.4754 46.9532 80.9746 47.2807C79.6918 47.5588 77.6824 47.5386 75.3801 45.8474C72.8281 43.9767 71.7428 41.0315 70.5917 37.9115C69.9809 36.2561 69.3543 34.5536 68.4779 32.8848C71.6565 34.345 74.5787 34.3069 76.781 32.7547C79.0379 31.1666 80.2912 28.1138 79.9166 25.2427V25.2472ZM76.8968 62.5357C76.1612 64.606 75.2984 66.1515 74.7785 67.0801L74.6422 67.3246C73.9475 68.5381 72.4807 69.2872 71.2501 69.119C71.5793 67.9706 71.8677 66.9208 72.097 66.0887C72.2923 65.3754 72.4444 64.8213 72.542 64.4938C72.9212 63.231 73.6046 59.2788 74.086 56.0577C74.7421 58.4421 75.6163 60.8377 76.8991 62.5357H76.8968ZM27.0347 6.19919C27.3298 5.75507 27.6091 5.3244 27.877 4.88925C27.877 5.08215 27.877 5.2773 27.877 5.46796C27.8793 6.44144 27.8816 7.28259 27.8316 7.82989C27.8157 7.99588 27.9406 8.14167 28.1086 8.15738C28.2744 8.17308 28.4242 8.04971 28.4401 7.88372C28.4923 7.3095 28.4901 6.4549 28.4878 5.46571C28.4855 4.33297 28.481 3.02303 28.5673 1.92618C29.0236 3.48061 29.7434 5.03729 30.4449 6.55808C31.587 9.03217 32.6655 11.3672 32.4679 13.3478C32.2545 15.3755 31.251 16.4499 30.2815 17.4885C29.6253 18.1905 28.9646 18.9308 28.5582 19.9267C27.9156 19.3457 27.1641 19.0048 26.3467 18.9263C27.3866 16.201 28.2131 12.1971 28.2494 12.0199C28.2834 11.8562 28.1767 11.6969 28.011 11.6633C27.8475 11.6319 27.684 11.735 27.65 11.8988C27.6409 11.9369 26.9416 15.3329 26.0447 17.9685C25.7314 16.1897 25.0503 14.2989 24.4463 13.2469C24.3805 10.1963 25.7269 8.16411 27.0347 6.19919ZM23.0727 31.3931C22.941 31.3999 22.8184 31.4739 22.7775 31.5995C22.2848 33.0508 21.027 33.865 20.0121 34.1431C19.1447 34.3786 18.341 34.28 17.8665 33.8784C17.1013 33.2257 17.3965 32.2477 17.6803 31.3012C17.8006 30.8997 17.9141 30.5161 17.9368 30.1729C18.4886 30.0832 19.0267 29.8522 19.4899 29.4753C21.3403 27.9792 22.2553 28.6858 22.2894 28.7127C22.3915 28.8024 22.5437 28.8136 22.6572 28.7396C22.773 28.6656 22.8229 28.5265 22.7821 28.3964C22.5913 27.7886 23.4087 26.7926 24.1988 25.8326C25.0821 24.756 26.0856 23.538 26.1946 22.3267C26.2355 21.8534 26.1787 21.4183 26.0606 21.0235C26.1832 20.5996 26.2287 20.0882 26.2105 19.5252C27.1618 19.5857 27.9701 20.0433 28.6376 20.8957C29.9795 22.6116 30.3632 25.5545 29.8819 27.2278C29.203 29.6323 25.6383 31.4335 23.0704 31.3954L23.0727 31.3931ZM19.365 44.0395C18.8564 43.1647 17.4578 40.6883 16.5609 38.4857C16.5541 38.452 16.5405 38.4229 16.5246 38.396C16.1023 37.344 15.8026 36.366 15.7753 35.6594C16.5882 35.2781 17.2761 34.8542 17.6962 34.4908C18.0867 34.7375 18.5771 34.8699 19.122 34.8699C19.4581 34.8699 19.8145 34.8205 20.1755 34.7218C21.2926 34.4168 22.6685 33.542 23.2816 31.9943C23.9196 31.9808 24.6416 31.8619 25.375 31.6489C25.9335 36.9425 22.8706 40.7422 19.3672 44.0372L19.365 44.0395ZM15.7254 24.4845C16.2453 23.8722 17.1808 23.538 18.3433 23.538C18.5362 23.538 18.7338 23.5469 18.9381 23.5649C19.0312 23.5716 19.1198 23.5402 19.1856 23.4752C19.2492 23.4101 19.281 23.3204 19.2696 23.2284C19.0993 21.7705 19.6692 20.4381 20.7227 19.8347C21.4402 19.4242 22.2281 19.4624 22.882 19.9379C22.882 19.9379 22.8865 19.9401 22.8888 19.9424C23.3156 20.2564 23.5404 20.8194 23.4768 21.4116C23.3905 22.2258 22.8116 22.9301 21.892 23.3428C20.2323 24.0808 19.0675 25.6307 19.2401 26.8712C19.2628 27.0349 19.4172 27.1515 19.5852 27.1291C19.7532 27.1067 19.869 26.9541 19.8463 26.7882C19.7283 25.9403 20.5729 24.5922 22.1441 23.8924C23.2679 23.3877 23.9741 22.5062 24.0853 21.4744C24.1489 20.8844 23.9922 20.3102 23.6675 19.8728C24.1012 19.8369 24.5099 19.9491 24.8482 20.2048C25.1184 20.4112 25.3182 20.6938 25.4431 21.0325C25.4431 21.0841 25.4567 21.1312 25.4817 21.1738C25.5793 21.4968 25.6202 21.8624 25.5861 22.2684C25.493 23.2957 24.553 24.4374 23.7243 25.4468C22.9501 26.3889 22.2598 27.2278 22.1554 27.9927C21.5764 27.8289 20.5434 27.8379 19.1016 29.0043C18.0322 29.8768 16.7403 29.6907 15.991 29.1456C15.1714 28.549 14.9398 27.5687 15.3757 26.519C15.4007 26.4584 15.4052 26.3889 15.3871 26.3261C15.1896 25.615 15.3076 24.978 15.7277 24.4823L15.7254 24.4845ZM8.03752 35.9084C7.57661 35.4733 7.49942 34.8811 7.81955 34.2396C7.84226 34.1925 7.85361 34.1386 7.85134 34.087C7.76279 32.7143 9.13871 30.561 12.4105 28.8428C12.5172 28.7867 12.5808 28.6746 12.5717 28.5557C12.5649 28.4368 12.4854 28.3336 12.3741 28.2932C10.7984 27.7123 9.76536 26.7949 9.46339 25.707C9.21136 24.7941 9.48609 23.8116 10.2581 22.8673C10.333 22.7753 10.3466 22.652 10.2944 22.5465C9.50653 20.9383 9.42706 19.7719 10.056 19.0833C11.4932 17.5064 16.293 18.5606 17.5213 18.998C17.6326 19.0362 17.7597 19.0093 17.8437 18.924C17.9278 18.8388 17.955 18.7154 17.9096 18.6033C17.2557 16.9277 17.9096 14.7564 18.8541 13.5654C18.8768 13.5362 18.8927 13.5048 18.9041 13.4712C19.2946 12.2622 20.0643 11.5152 21.0156 11.4255C22.0078 11.3335 23.0205 11.9908 23.6812 13.1773C24.6075 14.4693 25.7133 18.029 25.5929 20.1128C25.4794 19.9738 25.3613 19.8392 25.2183 19.7293C24.6325 19.2852 23.856 19.1551 23.1135 19.3681C22.2894 18.8365 21.2903 18.8164 20.4117 19.3166C19.2378 19.9895 18.559 21.3869 18.6293 22.9413C17.1422 22.8808 15.9343 23.2935 15.2531 24.0965C14.7286 24.7156 14.5561 25.5276 14.7672 26.3889C14.2814 27.6585 14.606 28.8944 15.6255 29.6368C16.1273 30.0025 16.7176 30.1864 17.317 30.2088C17.2875 30.4713 17.1921 30.792 17.0899 31.1307C16.8107 32.0661 16.4792 33.2078 17.233 34.0893C16.8288 34.428 16.1636 34.8205 15.3894 35.1749C15.3349 35.1861 15.2895 35.2041 15.2531 35.2377C13.8908 35.8389 12.2198 36.3032 10.971 36.1193C10.9642 36.1193 10.9596 36.1237 10.9528 36.1215C10.8915 36.117 10.8325 36.1237 10.7803 36.1529C10.7803 36.1529 10.7803 36.1529 10.778 36.1529C9.79488 36.6912 8.61195 36.4512 8.03752 35.9084ZM10.9324 44.3759C10.2036 44.4791 9.4543 44.5868 8.79359 44.8873C8.90939 42.7654 9.7086 40.6255 10.4806 38.5507C10.7053 37.9473 10.9256 37.344 11.1345 36.7406C12.3673 36.8482 13.8749 36.4624 15.1805 35.9219C15.2599 36.6643 15.5551 37.6064 15.9479 38.5956C15.3053 43.7501 13.0825 44.0686 10.9324 44.3759ZM30.0907 77.028C28.0927 74.7132 26.2037 72.524 21.5219 70.3931C19.6828 68.5941 20.28 64.5522 21.254 61.7798C22.0714 64.4467 23.1453 66.369 23.7516 67.4479L23.8515 67.6251C24.5962 68.9261 26.0538 69.7605 27.4229 69.7605C27.5978 69.7605 27.7703 69.7426 27.9406 69.7134C28.7012 72.349 29.6525 75.3973 30.6016 77.6157C30.4313 77.4206 30.2565 77.2209 30.0885 77.028H30.0907ZM21.6173 60.8377C22.6095 58.4354 23.8742 55.2435 24.5621 53.4244C24.9731 56.5849 25.9744 62.8026 26.4829 64.4938C26.5829 64.8236 26.735 65.3843 26.9325 66.1066C27.1596 66.9343 27.4456 67.9773 27.7703 69.119C26.5374 69.2828 25.0775 68.5358 24.385 67.3268L24.2874 67.1519C23.6358 65.9944 22.4301 63.8456 21.6173 60.8354V60.8377ZM32.1274 79.2957C30.4449 76.6243 28.4719 69.4151 27.5228 65.9496C27.323 65.2228 27.1686 64.6553 27.0687 64.3234C26.4875 62.3944 25.2546 54.4584 25.0253 52.1414C25.3795 51.0064 26.0879 47.4354 25.9131 44.6294C27.6136 42.8035 29.2688 39.9773 30.4835 37.898C30.7265 37.483 30.9535 37.0927 31.1624 36.7451C32.4543 34.576 35.2379 30.4129 37.463 28.5736C39.7335 26.6984 43.8567 25.6375 47.3419 27.2345C47.4963 27.3063 47.6779 27.239 47.7483 27.0887C47.8187 26.9362 47.7529 26.7568 47.6007 26.6872C43.7114 24.904 39.4179 26.1758 37.0725 28.1093C34.7816 30.0025 31.948 34.2351 30.6357 36.4355C30.4268 36.7854 30.1975 37.1757 29.9545 37.5929C28.733 39.6812 27.0619 42.5433 25.3772 44.3131C22.8956 46.9375 16.8493 54.7074 18.6384 59.1016C18.6861 59.2182 18.8019 59.29 18.9222 59.29C18.9608 59.29 18.9994 59.2832 19.0358 59.2675C19.1924 59.2047 19.2673 59.0298 19.206 58.875C17.6553 55.0663 22.8048 48.1128 25.325 45.2709C25.3681 47.9132 24.7233 51.0916 24.4236 52.0158C24.0876 53.0363 22.303 57.5763 21.0111 60.6986C20.0915 62.8901 18.9608 67.2909 20.4117 69.9108C20.1324 69.7964 19.8463 69.682 19.5489 69.5654C15.4393 67.9347 9.81077 65.7006 9.81077 58.6081C9.81077 53.8573 11.114 50.3738 12.0654 47.8302C12.5603 46.5068 12.9463 45.4503 13.0576 44.5307C14.5039 44.0148 15.8117 42.8484 16.4043 39.6565C17.5009 42.1015 18.9359 44.506 19.0335 44.6675C19.0812 44.746 19.1606 44.7999 19.2537 44.8133C19.2673 44.8133 19.2832 44.8156 19.2969 44.8156C19.3741 44.8156 19.449 44.7864 19.5057 44.7326C23.2702 41.2401 26.6419 37.2116 25.9698 31.447C27.9678 30.727 29.9273 29.3161 30.4722 27.3803C30.9944 25.5747 30.6266 22.4344 29.1235 20.5143C29.0917 20.474 29.0554 20.4381 29.0236 20.3999C29.3665 19.3704 30.0272 18.6459 30.7333 17.8877C31.7709 16.7774 32.8448 15.629 33.0787 13.3994C33.1877 12.3115 32.9516 11.1541 32.5406 9.94509C38.3054 5.8246 45.4256 4.54158 54.3032 6.03096L56.3512 6.37191C66.2414 8.00933 69.1249 8.48935 72.4444 16.0641C70.5667 15.131 68.3643 14.4738 65.8804 14.2159C64.6362 11.9638 62.0206 9.52339 56.5192 9.52339C45.9796 9.52339 40.1921 15.0705 35.969 19.1214C34.8679 20.1779 33.8257 21.176 32.8562 21.9207C32.7222 22.0239 32.6973 22.2123 32.8017 22.3447C32.9039 22.477 33.0969 22.5017 33.2308 22.3985C34.2298 21.6336 35.2811 20.6243 36.3959 19.5566C40.5463 15.5774 46.2294 10.129 56.5215 10.129C60.9603 10.129 64.0981 11.8113 65.5966 14.9942C67.7218 19.5095 66.0257 25.8012 63.8733 28.3269C63.7643 28.4547 63.7802 28.6454 63.9096 28.7531C63.9664 28.8002 64.0368 28.8249 64.1072 28.8249C64.1934 28.8249 64.2797 28.789 64.341 28.7172C66.8749 25.7474 68.2395 19.3637 66.2051 14.8708C73.7817 15.7972 78.5111 20.6287 79.2854 25.0476C79.6782 27.3534 78.8222 30.5722 76.4246 32.2612C74.8647 33.3603 72.1152 34.1902 67.8807 31.909C67.7627 31.844 67.6105 31.8664 67.5152 31.9629C67.4198 32.0593 67.4016 32.2074 67.4698 32.3263C68.5778 34.2171 69.3089 36.2 70.015 38.1156C70.6711 39.8921 71.316 41.608 72.2105 43.1288C72.2151 46.8545 72.76 49.6448 73.977 52.1593C73.7522 54.6042 72.5171 62.4504 71.9562 64.3189C71.8563 64.6486 71.7042 65.2071 71.5067 65.9272C71.014 67.7216 70.2443 70.5164 69.3861 73.17C68.5846 75.6463 67.7059 77.9993 66.8999 79.2913C66.3164 80.2221 65.6102 81.1193 64.8474 81.9762C64.8269 81.9919 64.811 82.0143 64.7951 82.0345C62.1273 85.0088 58.7397 87.4358 57.046 88.6448C55.5883 89.6811 52.673 91.4194 49.5148 91.4194C46.3565 91.4194 43.4276 89.6811 41.9858 88.6448L41.9086 88.5887C39.7585 87.0545 34.7271 83.4611 32.1319 79.289L32.1274 79.2957ZM46.6698 108.523C45.4392 111.078 40.6417 115.757 35.6807 115.757C32.3817 115.757 29.7161 112.796 27.1391 109.931C26.0061 108.673 24.9254 107.491 23.8038 106.535C26.7213 106.372 29.0985 105.306 30.865 103.346C34.2276 99.6111 35.4037 92.7944 34.3729 83.0932C36.9544 85.7983 39.9946 87.9741 41.5476 89.0844L41.6248 89.1405C43.1279 90.2194 46.1499 92.0295 49.5148 92.0295C52.8796 92.0295 55.8857 90.2194 57.4456 89.1091C59.0008 87.9988 62.041 85.8208 64.6362 83.1067C64.2025 87.272 64.173 90.9394 64.5522 94.0236C60.5561 94.1851 56.7758 94.4049 53.3678 96.2442C48.6384 98.808 46.4496 102.825 46.6744 108.523H46.6698ZM82.0622 106.789C78.1274 107.565 74.4946 107.051 70.9822 106.551C68.8616 106.25 66.8567 105.966 64.8496 105.966C59.1984 105.966 54.7732 108.906 54.7732 112.659C54.7732 114.041 55.2364 115.178 56.1514 116.039C57.2276 117.053 58.9282 117.647 61.0307 117.766C57.2957 119.056 54.4372 118.139 52.6253 117.06C49.2718 115.063 47.3987 111.284 47.2829 108.581C47.0445 103.09 49.1288 99.2275 53.6584 96.7736C57.0868 94.9231 60.7945 94.7773 65.0857 94.6068C68.2826 94.4812 71.5861 94.3489 75.2235 93.5032C79.1151 92.5925 81.8442 90.2575 82.7138 87.0971C83.5357 84.1048 82.5844 80.8636 80.2299 78.6385C80.1073 78.5219 79.9143 78.5264 79.7985 78.6475C79.6827 78.7686 79.6872 78.9593 79.8076 79.0737C82.0009 81.144 82.8886 84.1564 82.1235 86.9356C81.3038 89.9188 78.8018 92.043 75.0827 92.9133C71.5407 93.7365 68.2962 93.8711 65.1607 93.9967C64.7565 90.7465 64.8088 86.8324 65.3264 82.3508C66.1007 81.4782 66.8204 80.5631 67.4153 79.6098C68.0919 78.5241 68.8116 76.7342 69.4973 74.7513C70.1853 80.6662 72.8622 84.78 76.5267 85.3834C76.5449 85.3856 76.5608 85.3879 76.5767 85.3879C76.7243 85.3879 76.8537 85.2824 76.8787 85.1366C76.9059 84.9729 76.7946 84.8159 76.6266 84.789C72.9689 84.1878 70.3646 79.6815 69.9809 73.3068C70.3714 72.0978 70.7415 70.8664 71.0776 69.7112C71.2501 69.7403 71.4249 69.7583 71.602 69.7583C72.9712 69.7583 74.4288 68.9216 75.1758 67.6184L75.3143 67.3717C75.8138 66.4789 76.6244 65.0232 77.3486 63.0807C78.2205 64.0475 79.2649 64.698 80.5319 64.8527C79.2922 66.4946 77.2873 69.7673 80.3389 74.5315C81.4787 76.2968 83.4335 77.7503 85.502 79.2868C89.3981 82.1825 93.8142 85.4641 93.8142 91.7873C93.8142 99.3711 89.0916 105.398 82.0644 106.787L82.0622 106.789ZM74.0337 102.505C73.8634 102.475 73.7091 102.583 73.6773 102.749C73.6478 102.913 73.7567 103.07 73.9247 103.101C75.1712 103.323 76.4722 103.447 77.7891 103.447C83.5221 103.447 89.5071 101.103 92.1568 94.4162C92.2181 94.2614 92.1409 94.0864 91.9842 94.0236C91.8275 93.9653 91.6504 94.0393 91.5869 94.1941C88.4649 102.074 80.4728 103.653 74.0337 102.505ZM98.3892 59.189C98.3892 66.9119 96.5978 74.296 93.0627 81.1373C92.9855 81.2853 93.0468 81.467 93.1966 81.5433C93.242 81.5657 93.2875 81.5769 93.3351 81.5769C93.4464 81.5769 93.5531 81.5164 93.6076 81.4132C97.1859 74.4866 99 67.0083 99 59.189C99 45.0129 92.7789 31.5502 81.9305 22.2505C81.8033 22.1428 81.6103 22.154 81.4991 22.2796C81.3878 22.4052 81.4015 22.5959 81.5286 22.7058C92.243 31.8889 98.387 45.1857 98.387 59.1868L98.3892 59.189ZM23.5994 100.849C23.6448 100.874 23.6925 100.89 23.7425 100.89C23.7425 100.89 23.7447 100.89 23.747 100.89C23.747 100.89 23.747 100.89 23.7493 100.89C23.806 100.89 23.8605 100.869 23.9105 100.838C23.915 100.834 23.9218 100.838 23.9287 100.831C27.9134 97.922 30.068 92.9627 29.5481 87.8889C29.1417 83.9187 27.0755 80.7111 24.0581 79.3316C24.0581 79.3316 24.0535 79.3294 24.0513 79.3271C23.604 79.0378 23.2566 78.7238 22.9206 78.4187C22.1304 77.7032 21.3834 77.028 19.7328 77.2052C18.459 77.342 17.4782 77.7727 16.6926 78.1159C16.1659 78.3469 15.7163 78.5376 15.4098 78.5331C15.2736 78.5196 15.1532 78.6094 15.1078 78.7327C15.0624 78.8583 15.1055 78.9974 15.2123 79.0759C15.4098 79.2217 15.6051 79.372 15.798 79.52C17.1058 80.5227 18.3387 81.4693 19.7532 81.2315C20.4026 81.1261 20.9543 80.7986 21.4879 80.4846C22.253 80.0337 22.9183 79.6434 23.7811 79.8677C26.626 81.1844 28.5514 84.2035 28.9351 87.9494C29.2416 90.9529 28.5718 93.9137 27.1164 96.3945C27.373 92.3839 27.2367 90.2508 26.106 88.8153C25.3454 87.853 23.9514 87.3147 22.6027 86.7965C21.6082 86.4152 20.5797 86.0182 19.8713 85.4709C19.7555 85.3811 19.5943 85.3856 19.483 85.4798C19.3718 85.574 19.3445 85.7311 19.4149 85.8567C19.7737 86.4892 19.894 87.216 20.0211 87.9831C20.2368 89.2841 20.4798 90.76 21.9397 92.1933C22.4369 92.68 23.0023 93.1242 23.5518 93.5548C24.9844 94.6786 26.3331 95.7463 26.4171 97.4622C25.6656 98.503 24.7619 99.4339 23.7243 100.217C9.24996 91.332 0.613031 76.0119 0.613031 59.189C0.613031 51.8565 2.2387 44.8088 5.4469 38.2412C5.51955 38.0909 5.45598 37.9115 5.30386 37.8374C5.15173 37.7657 4.97009 37.8285 4.89517 37.9787C1.64837 44.6294 0 51.7668 0 59.189C0 76.2923 8.8163 91.8658 23.5813 100.845C23.5858 100.847 23.5903 100.845 23.5949 100.849H23.5994ZM21.1791 79.9664C20.6728 80.267 20.1914 80.5496 19.6556 80.6371C18.5067 80.83 17.3738 79.9619 16.1772 79.0445C16.159 79.0311 16.1432 79.0176 16.125 79.0041C16.3747 78.9189 16.6427 78.8023 16.9424 78.6699C17.6916 78.3424 18.6225 77.9342 19.8009 77.8064C21.1768 77.6561 21.7354 78.163 22.5096 78.8651C22.6367 78.9795 22.7707 79.1006 22.916 79.2262C22.2757 79.3204 21.7217 79.6479 21.1791 79.9687V79.9664ZM23.9355 93.0815C23.3996 92.6621 22.8479 92.2269 22.3734 91.7626C21.0542 90.4684 20.8362 89.154 20.6274 87.8844C20.5479 87.3999 20.4707 86.9311 20.3345 86.478C20.9657 86.8144 21.6831 87.0903 22.3824 87.3595C23.6539 87.8485 24.9685 88.3532 25.627 89.1876C26.5783 90.3921 26.7372 92.3346 26.5465 95.7306C25.9607 94.6741 24.9367 93.8688 23.9332 93.0838L23.9355 93.0815Z" fill="black"/>
</svg>
