<svg width="33" height="33" viewBox="0 0 33 33" fill="none" xmlns="http://www.w3.org/2000/svg">
<g clip-path="url(#clip0_289_21)">
<path d="M22.2056 10.7943L22.1644 10.753C20.816 9.40422 19.0306 8.58078 17.1293 8.43082C15.228 8.28086 13.3356 8.81422 11.7925 9.93496C10.2493 11.0557 9.15673 12.6903 8.71117 14.5447C8.26561 16.3991 8.49634 18.3517 9.36187 20.0512L9.71437 20.7449L9.05812 23.9324L9.04875 23.9736L12.2156 23.2236L12.9375 23.5893C14.4395 24.3354 16.1376 24.592 17.793 24.323C19.4484 24.0539 20.9779 23.2727 22.1662 22.0893C23.661 20.5943 24.5042 18.569 24.5119 16.455C24.5197 14.3409 23.6913 12.3095 22.2075 10.8037L22.2056 10.7943ZM21.8831 19.7418C21.495 20.353 20.8819 21.0993 20.1112 21.2849C18.7612 21.613 16.6894 21.2961 14.1112 18.8943L14.0794 18.8643C11.8125 16.7643 11.2237 15.0149 11.3662 13.6274C11.445 12.838 12.1012 12.1274 12.6544 11.6605C12.742 11.5863 12.8457 11.5335 12.9573 11.5063C13.0688 11.4791 13.1852 11.4783 13.2971 11.504C13.4091 11.5297 13.5135 11.5811 13.6021 11.6541C13.6907 11.7272 13.761 11.8199 13.8075 11.9249L14.6419 13.8112C14.6965 13.9326 14.7168 14.0668 14.7006 14.199C14.6844 14.3312 14.6323 14.4564 14.55 14.5612L14.1281 15.1087C14.0398 15.2209 13.9865 15.3567 13.9748 15.4991C13.9631 15.6415 13.9936 15.7841 14.0625 15.9093C14.2987 16.3218 14.865 16.9312 15.4931 17.4974C16.1981 18.133 16.98 18.7162 17.475 18.9168C17.6078 18.9699 17.7533 18.9824 17.8932 18.9527C18.033 18.923 18.1609 18.8524 18.2606 18.7499L18.75 18.2568C18.8444 18.1637 18.9619 18.0973 19.0903 18.0643C19.2188 18.0314 19.3537 18.0331 19.4812 18.0693L21.4631 18.6318C21.5727 18.6652 21.6732 18.7234 21.7568 18.8017C21.8405 18.88 21.9051 18.9765 21.9456 19.0837C21.9862 19.1909 22.0016 19.3059 21.9908 19.42C21.98 19.5341 21.9431 19.6441 21.8831 19.7418Z" fill="white"/>
<path d="M28.5 0H4.5C3.30653 0 2.16193 0.474106 1.31802 1.31802C0.474106 2.16193 0 3.30653 0 4.5L0 28.5C0 29.6935 0.474106 30.8381 1.31802 31.682C2.16193 32.5259 3.30653 33 4.5 33H28.5C29.6935 33 30.8381 32.5259 31.682 31.682C32.5259 30.8381 33 29.6935 33 28.5V4.5C33 3.30653 32.5259 2.16193 31.682 1.31802C30.8381 0.474106 29.6935 0 28.5 0ZM26.7244 16.7438C26.669 18.4567 26.1843 20.1284 25.3147 21.6052C24.445 23.0821 23.2183 24.3168 21.7472 25.1961C20.276 26.0754 18.6076 26.5711 16.895 26.6376C15.1824 26.7041 13.4805 26.3394 11.9456 25.5769L6.78 26.8013C6.70171 26.8195 6.61973 26.8137 6.5448 26.7846C6.46986 26.7555 6.40546 26.7044 6.36 26.6381C6.32932 26.5941 6.308 26.5443 6.29735 26.4917C6.28671 26.4392 6.28697 26.385 6.29813 26.3325L7.38375 21.0619C6.67563 19.6714 6.29498 18.1374 6.27091 16.5772C6.24685 15.017 6.58001 13.472 7.2449 12.0603C7.9098 10.6487 8.88881 9.40785 10.107 8.43278C11.3252 7.4577 12.7503 6.77421 14.2733 6.43462C15.7963 6.09503 17.3768 6.10834 18.8939 6.47352C20.4109 6.8387 21.8243 7.54608 23.0259 8.54153C24.2276 9.53698 25.1855 10.7941 25.8266 12.2167C26.4676 13.6394 26.7747 15.1898 26.7244 16.7494V16.7438Z" fill="white"/>
</g>
<defs>
<clipPath id="clip0_289_21">
<rect width="33" height="33" fill="white"/>
</clipPath>
</defs>
</svg>
